/* XPM */
static char *coins[] = {
/* columns rows colors chars-per-pixel */
"80 80 133 2 ",
"   c #000000",
".  c #070A00",
"X  c #150000",
"o  c #0C1300",
"O  c #0F1800",
"+  c #121C00",
"@  c #131313",
"#  c #210000",
"$  c #290000",
"%  c #320000",
"&  c #3B0000",
"*  c #162300",
"=  c #1C2C00",
"-  c #263D00",
";  c #202020",
":  c #373737",
">  c #3A3A3A",
",  c #490100",
"<  c #510000",
"1  c #491200",
"2  c #630000",
"3  c #620B00",
"4  c #750000",
"5  c #7A0000",
"6  c #750A00",
"7  c #462F00",
"8  c #552E00",
"9  c #2B4500",
"0  c #2D4900",
"q  c #344F00",
"w  c #355400",
"e  c #365800",
"r  c #395A00",
"t  c #3A5212",
"y  c #3E6300",
"u  c #3C4925",
"i  c #415F0D",
"p  c #416700",
"a  c #436B00",
"s  c #486D00",
"d  c #467100",
"f  c #497400",
"g  c #4E7B00",
"h  c #527D00",
"j  c #424934",
"k  c #4B4B4B",
"l  c #53584A",
"z  c #545454",
"x  c #6B5858",
"c  c gray39",
"v  c #686868",
"b  c #727272",
"n  c #7B7B7B",
"m  c #850000",
"M  c #930000",
"N  c #9B0000",
"B  c #970808",
"V  c #8F1616",
"C  c #B00000",
"Z  c #B90000",
"A  c #C60000",
"S  c #CF0000",
"D  c #DB0000",
"F  c #E30000",
"G  c #E90000",
"H  c #F10000",
"J  c red",
"K  c #FF0E0E",
"L  c #FF1212",
"P  c #FF1919",
"I  c #FF2F2F",
"U  c #DC4D4D",
"Y  c #D65454",
"T  c #FF4C4C",
"R  c #FF5E5E",
"E  c #FE6363",
"W  c #FF7A7A",
"Q  c #538400",
"!  c #558900",
"~  c #598D00",
"^  c #5C9200",
"/  c #5E9B00",
"(  c #609200",
")  c #649A00",
"_  c #689E00",
"`  c #65A400",
"'  c #69A700",
"]  c #67A800",
"[  c #69AB00",
"{  c #72AE00",
"}  c #6EB100",
"|  c #73B500",
" . c #75B900",
".. c #79BE00",
"X. c #75C100",
"o. c #7CC500",
"O. c #7FC800",
"+. c #81C400",
"@. c #81CC00",
"#. c #85D300",
"$. c #88D700",
"%. c #8ADB00",
"&. c #90DC00",
"*. c #8EE100",
"=. c #92E500",
"-. c #98E700",
";. c #95EB00",
":. c #9AEA00",
">. c #9DF500",
",. c #A1F600",
"<. c gray59",
"1. c #9F9292",
"2. c #AA9E9E",
"3. c gray64",
"4. c #AAAAAA",
"5. c #B1B1B1",
"6. c #FF8484",
"7. c #FF8989",
"8. c #FF9595",
"9. c #FFA4A4",
"0. c #FFB5B5",
"q. c #C6C6C6",
"w. c #CCCCCC",
"e. c #D7D7D7",
"r. c #DEDEDE",
"t. c #FFC5C5",
"y. c #FFC8C8",
"u. c #FFD9D9",
"i. c #ECECEC",
"p. c #FFE6E6",
"a. c #FFEFEF",
"s. c gray95",
"d. c #FFFFFF",
/* pixels */
"' )  . .o.| o...) ' ) / ) ) / ) / / ) / ) / ) ) / ) ) / / ) / ) / ) ) / ) / ) ) ) ) / ) / ) ) / ) / ) ) ) ) ) ) ) ) ) ) ) ) / ) ) / ) ) / ) ` / ) ) / ) ) / ) / ",
"' ' [ [ | | | | | ' ' ' ] ] ] [ ] [ [  .o.O.O.o. .[ [ [ [ o.%.%.%.%.*.%.%.%.%.#.O.o.O.O.o.O.O.O.O. .) ) _ ( _ ..+.+.@.o.O.o.O.o.@.%.%.%.%.$.O.o.O.o.o. .|  .| | ",
"' ' ] ' [ | | | | { ' ' ' ] ] [ [ ] [  .o.o.o.o. .[ [ [ [ o.$.%.%.%.%.%.$.*.%.O.O.O.O.O.O.O.o.O.o.| ) ) ) ) _ ..+.@.o.o.O.O.o.O.O.%.%.%.%.$.o.O.o.O.o. .| | | | ",
"' ' ' ] | | | |  .' ' ' ' ] ` [ ] [ ]  .o.o.O.o. .[ ] [ [ o.$.%.%.%.%.%.*.*.=.O.O.O.O.O.o.o.O.o.@.| ) ) ) ) { +.+.o.@.o.O.o.O.O.@.%.%.%.%.%.O.o.O.O.O.} | |  .| ",
"] ' ' ' | | | |  .' ' ' ' ' ] [ [ ] [  .O.o.O.o.} [ ' ' [ X.$.%.$.*.%.*.$.=.*.O.O.O.o.O.o.O.o.O.+.| ) ) ) ) ' ..o.+.o.+.o.O.o.O.O.%.%.$.$.%.O.o.O.O.O.| | | |  .",
"| [ [ | | ....o.o. . . . .| | [ } } } } }  . . .[ ] ) ' ) | | X.X.X.O.O.O.O.$.O.#.#.#.@.O. . .| | { ) ' _ _ _ { { { { | o.O.O.o.o.#.#.#.O.O. . .|  .} [ } [ } [ ",
"| | | | ..o.o.o.o.o.o.o.o.o...|  . . .} [ [ ] [ ` ) ) ) ) ' ' [ ] ]  .o.O.X.O.O.$.%.%.%.O.} ] ] ' ] ' ' ' ' ' ) _ ) ) { ..O.o.O.O.O.O.O.O.X.[ [ [ ` [ ] ' ' ' ' ",
"| | | | ..@.o.@.@.o.o.@.o.@. . .}  . .[ [ [ ] [ ` ) ) ) ) ) ] [ ] [  .o.O.O.O.$.$.%.*.%.O.} ] [ ' | ] ] ' ' ' ) ) ) ) ' o.o.O.O.O.O.O.O.O.X.[ [ [ [ [ [ ' ' ' ' ",
"|  .| | o.O.O.o.o.o.O.o.@.o...| | | | } [ [ [ [ _ ) ) ) ) ` ' ] [ [  .X.O.O.X.#.$.%.%.*.o.| ' ] [ ' ] ' ' ] ' ) ) ) ) ' +.+.o.+.o.O.o.O.@...[ [ ] [ ' ] ' ] [ [ ",
"| | | | ..o.O.O.@.o.O.o.o.o. . .| | | } [ [ ` [ ) _ ) ) ) ` ' ' [ ]  .o.O.o.O.#.$.%.$.%.@.} [ [ [ ' ' ' ' ' ' ) ) ) ) ' ..@.O.+.O.O.o.O.o.o.[ [ ] ] [ ] ' [ ] [ ",
"@.#.@.#.O.O.o.O.o.#.#.$.$.#.@.o.o.o... .}  .| } ' ) ) ) ) _ ' ' ] } } } }  .} X.O.O.O.O.o.| }  .} ' ] ] ] ' ` [ _ ) ' { ..@.O.o.o.| } } } |  . .X.X. .@.O.@.o.O.",
"%.%.%.%.@.o.O.o.+.#.%.%.%.%.@.o.+.O.o.o. .} | | ' ) ) ) ) _ ' ' [ [ ] [ [ ] [ } O.O.O.O... .| | | } [ ] [ ] [ [ ' ' ' | o.o.o.@.X.[ [ [ } } o.@.o.o.o.%.%.%.$.%.",
"%.%.%.%.#.O.O.O.o.$.%.%.%.%.@.@.o.@.o... .| | | ' ) ) ) ) _ ' ' ] [ [ ` [ [ ] } o.O.O.O.X. .| |  .} [ [ [ ] ] [ ' ' ' { ..o.O.o.X.' [ [ [ ' o.o.o.O.+.%.%.%.%.%.",
"%.%.%.%.#.o.O.o.O.$.%.%.%.%.@.@.o.@.o.o.| | | | { ) ) ) ) ) ' ' ] ] [ ' [ ] ]  .X.O.o.O.X. .| | | | [ ] ] [ ] [ ' ' ' { o.o.o.@.X.[ [ [ ] | o.@.O.O.@.%.%.%.%.%.",
"*.%.%.%.@.o.O.O.o.$.%.%.%.%.O.O.o.o.+.....| | | { _ ) ) ) ] ' ' ] ' ' [ ] [ [  .X.O.O.o.o. .| |  .} ] [ ] [ ] [ ' ' ' ' o.O.O.o.X.] ] [ ] [ o.o.O.o.O.%.%.%.%.%.",
";.;.;.:.*.$.#.#.#.@.#.O.#.@.#.#.#.#.#.@.o.......{ _ ) ' ` [ } } [ | ..o.o.X.o.O.O.O.O.O.o.@.@.#.O.O.O.o.O.o. .| | | | } } { | |  .X.X. . . .| }  .}  .O.#.O.@.@.",
",.,.,.>.:.%.%.%.$.@.O.O.O.o.#.%.%.%.%.#.O.o.o.o. .[ [ ] ] [ | |  .| +.$.%.%.%.@.O.O.O.o.@.%.%.%.$.$.%.%.*.*.O.X. . . .} ' ' ' [ [ o.o.o.o.o.[ [ [ } [ o.O.O.@.@.",
",.,.,.,.;.=.%.%.%.#.O.O.o.O.#.%.%.%.%.#.O.O.o.O. .[ [ [ [ } |  .|  .o.%.%.%.%.#.O.O.O.O.@.#.%.%.%.*.$.%.O.*.O.X. . . .} [ ' ' ' { ..O.O.O. .[ [ [ [ [ O.o.o.O.o.",
",.,.,.,.-.&.%.%.%.O.O.o.O.o.#.%.%.%.%.#.O.O.O.O. .[ ' ] [ } | | |  .@.%.$.%.%.#.o.o.O.O.@.%.%.%.%.%.%.*.*.*.O.X.}  . .} } [ ' ' } o.O.O.O.o.[ [ [ [ [ O.o.@.O.+.",
",.,.,.,.-.&.%.%.%.@.o.O.O.O.$.%.%.%.%.#.O.o.o.O. .[ [ ] ' } | | |  .@.%.%.%.%.#.@.@.O.o.#.#.%.%.%.$.%.%.*.O.*.o. .} } } [ ' ' ' } O.o.O.O.o.[ [ ] [ [ O.@.o.O.o.",
":.:.:.:.-.-.=.=.=.$.#.#.@.@.@.#.$.O.O.X. . . . . . . . . .o.o.o.+. .|  .o...o...|  .|  .| [ +.%.#.$.*.$.*.O.O.O.O.o.O. .[ ' ] ' } O.#.@.@.@. .| |  .| X. .o. .X.",
"*.%.*.*.;.,.,.>.>.=.%.%.%.%.#.o.O.O.O.X.} [ [ [ | o.o.o.o.O.#.$.%.f                         g @.O.O.$.$.*.*.$.$.#.%.#.O.} [ ' ' } #.%.%.%.$.o.o.o.O.o. .|  . . .",
"%.%.%.%.;.>.,.,.,.=.%.%.%.%.@.@.O.O.O. .[ [ [ [  .o.O.o.o.#.%.%.#.f                         g o.O.$.*.*.*.*.$.$.%.%.$.@.} [ [ [ | %.%.%.%.%.@.o.o.O.O. .| | | | ",
"%.%.*.%.;.>.,.,.,.*.%.%.%.%.@.O.O.O.O. .[ ] [ ]  .O.+.o.O.#.$.%.%.f                         f o.O.O.$.$.$.$.*.$.%.*.%.@.} [ [ [ | $.%.%.%.$.O.O.o.o.o.| |  .| | ",
"%.%.%.%.;.>.,.,.,.*.%.%.%.%.@.O.O.o.X. .} [ ] [  .o.o.~ o o o o o 6 G G G G G G G G G G G G 3 o o o o o [ %.%.%.%.$.%.#.} [ [ ' | %.%.%.%.$.o.+.o.@.o.| | | | | ",
" .o.o. .#.-.;.;.:.*.#.#.#.@.O...X.X.X. .[ ] ` [  .#.#.^           5 J J J J J J J J J J J J 2           ) #.@.O.o.X.X.X. . . . .X.@.#.@.@.#.#.#.#.@.#.X.X.o. .o.",
"[ [ ' [ O.%.%.%.%.@.o.@.O.O. . . . . .} ' ] ] ' o.#.$./           5 J J J J J J J J J J J J 2           ) @...[ [ } [ } o.o.O.O.O.O.O.O.@.@.#.%.%.%.%.o.@...O.o.",
"' ' ' ' o.%.%.%.%.@.o.o.O.o.X.}  .}  .} [ [ ' ' 9 9 9 8 C C C C C Y 0.0.7.J J J J J J J J J S C C C C C 7 - - 0 ' [ [ } o.O.O.o.O.O.O.o.o.@.%.%.%.%.%.O.O.o.o.O.",
"' ' ' ' o.%.%.%.%.@.@.o.o.O.X. .| | | } ' ' ' ' .     < J J J J J W d.d.t.J J J J J J J J J J J J J J J &     O [ [ ' | o.o.o.O.o.@.o.o.O.O.%.%.%.%.%.o.O.o.O.O.",
"' ' ' ' o.%.*.%.%.@.O.o.o.O. . .| |  .} ' ' ' ' .     < J J J J J W d.d.t.J J J J J J J J J J J J J J J &     + [ [ [ | o.o.O.o.O.O.O.+.o.O.%.%.%.%.%.o.O.o.o.O.",
"' ' ' '  .@.@.#.#.#.#.#.#.#. .} [ } [ ' ' ` ` ) .     < J J T 8.8.y.d.d.p.8.8.7.K J J J J J J J J J J J &     O ] ] ] [ o.O.o.O.o.@.#.#.#.$.=.-.-.-.-.#.#.#.#.#.",
"[ ' ' '  .O.O.O.+.#.#.%.%.$. .] [ [ ] ] ) ) ) ) .     < J J 6.d.d.d.d.d.d.d.d.p.P J J J J J J J J J J J &     o ` ] [ | ..o.@.o.O.%.%.%.%.%.,.,.>.,.,.%.$.$.#.%.",
"' ' ] '  .O.o.+.o.%.%.%.%.%. .[ [ ' ] ' ) ) ) ) .     < J J 7.d.d.d.d.d.d.d.d.p.P J J J J J J J J J J J &     o ' ' ] [ o.@.o.O.@.%.%.%.%.*.>.,.,.,.,.%.*.%.%.%.",
"' ' ' '  .o.O.o.o.$.%.%.%.%...[ ' ] ] ' ( s f d , , , m J J R 0.0.u.d.d.a.0.0.9.L J J J J J J J J J J J 4 , , 1 f g g { ..o.@.o.@.%.%.%.%.*.,.,.,.,.>.*.%.%.%.%.",
"] ' ' [ | o.o.@.o.%.%.%.%.%...' [ [ ' ' h       H J J J J J J J J W d.d.t.J J J J J J J J J J J J J J J J J J D       } ..@.o.+.O.%.%.%.%.*.,.,.,.,.,.%.%.%.*.%.",
" .|  .|  .o.o.o...O.O.O.O.@.{ ' [ ` ' ] h       H J J J J J J J J W d.d.t.J J J J J J J J J J J J J J J J J J D       | | ....X.X.$.$.$.$.%.>.,.,.,.,.=.=.*.=.;.",
"#.#.#.#.O. . . . . .| [ | [ ' ) ) ) ` ' Q       H J J J J J J J J I E E U 2 2 2 2 2 5 H J J J J J J J J J J J D       ..} } } [ } @.@.O.O.@.>.,.,.,.,.,.,.,.,.,.",
"%.%.%.%.o.| | | | [ ' ' ' ' _ _ ) ) ) ) Q       H J J J J J J J J J J J A           # G J J J J J J J J J J J D       X.[ [ [ [ [ o.O.o.O.@.,.,.,.,.,.,.,.,.,.,.",
"%.%.%.%.O. . .| | ' ' ' ' ' _ ) ) ) ) ) Q       H J J J J J J J J J J J A           # G J J J J J J J J J J J D       o.[ [ ] [ } o.O.O.o.#.,.,.,.,.,.,.,.,.,.,.",
"%.%.%.%.o. .| | | } ' ' ' ' ) ) ) ) ) ) Q       M N N Z J J J J J S N N V c c c c c x B N N F J J J J J C N N m        .[ [ [ ] } X.O.O.+.#.,.,.,.,.,.,.,.,.,.,.",
"#.#.@.#.o.} } } } } }  . .} [ ..| | | | ~             < J J J J J m     > d.d.d.d.d.r.@     Z J J J J J &             O. .}  . .| ..| |  .o.=.&.-.-.-.:.:.:.:.:.",
"o.@.O.O.| ' [ [ [  .o.o.o.o.@.#.#.#.#.@.)             < J J J J J m     > d.d.d.d.d.r.@     Z J J J J J &             #.o.X.X.X.o.[ ' { [ { @.@.#.O.@.%.*.*.*.%.",
"@.o.o.O. .] [ [ ] X.O.O.o.O.#.%.%.%.%.#.`             , J J J J J m     > d.d.d.d.d.r.@     Z J J J J J &             $.O.O.O.O. .[ ' [ ' { o.O.o.o.o.%.%.%.%.%.",
"+.o.O.O. .[ [ [ ]  .o.O.o.O.#.%.%.%.%.#.)       w.e.e.2.$ $ $ $ $ X     > d.d.d.d.d.r.@     # % % % % % 2.w.w.4.      #.O.o.O.o...{ ' ' ' | ..o.O.o.@.%.%.%.%.%.",
"O.O.o.O. .[ [ [ }  .O.o.O.o.%.%.%.%.%.#.`       s.d.d.5.                > d.d.d.d.d.i.@                 q.d.d.r.      $.O.O.O.O. .[ ' ' ' } o.o.o.O.O.%.%.%.%.%.",
" . .X. .} } } } } o.O.#.@.@.%.;.*.=.=.%.'       s.d.d.4.                > d.d.d.d.d.r.@                 q.d.d.r.      $.#.@.@.@.+.[ ' ' ' '  . .X. . .O.O.O.@.O.",
"} } } } X.X.X.X. .#.%.%.%.$.;.,.,.>.,.:.#.~ ~ h z z z v 4.4.4.4.4.4.4.4.<.z z z z z c 3.4.4.4.4.4.4.4.4.v z z l Q ^ ^ %.%.%.%.%.@.[ ' ' ' [ { ' [ } [ | } } } } ",
"[ [ ] ]  .X.O.O.@.$.%.%.%.%.;.,.,.,.,.:.%.%.#.' .     z d.d.d.d.d.d.d.d.q.          ; i.d.d.d.d.d.d.d.d.>     o ] %.%.%.%.%.%.$.@.' ' ' ] ' ' ' ' ' ' [ [ ] [ [ ",
"[ ] [ ]  .o.O.o.X.$.%.%.%.%.:.,.,.,.,.;.%.%.o.^ .     z d.d.d.d.d.d.d.d.q.          ; i.d.d.d.d.d.d.d.d.>     o ^ %.%.%.%.%.%.%.@.[ ' ' ' ' ' ' ' ' ' ' [ ] [ ] ",
"[ ] [ ]  .o.O.O.O.$.%.%.%.%.;.>.>.>.,.>.*.%. .~ .     k d.d.d.d.d.d.d.d.r.v v v v v n s.d.d.d.d.d.d.d.d.>     o ~ %.%.$.%.%.%.%.@.' ' ' ' ' { ' ' ' ' ' ] ] ] [ ",
"} [ [ }  .#.@.#.@.#.#.$.#.#.-.-.>.-.;.-.%.%. .~ .     z d.d.d.d.d.d.d.d.d.d.d.d.d.d.d.d.d.d.d.d.d.d.d.d.>     o / $.%.$.O.o.O.o...' _ ) ' ' ) _ ] ' ' ' ] [ ] [ ",
" .|  .} O.%.%.$.%.#.o.X.o.O.#.%.%.%.%.%.%.%.O./ .     z d.d.d.d.d.d.d.d.d.d.d.d.d.d.d.d.d.d.d.d.d.d.d.d.>     o ' %.$.@.} ' [ [ ' ) ) ) _ ) ) ) ) ) ) ' [ ] [ ] ",
"}  .|  .O.$.$.*.*.O.O.O.o.o.%.%.%.%.%.%.%.%.#.} y r y t : : : > : b d.d.d.d.d.d.d.d.d.d.d.d.c : : : : : i a a f o.%.%.O. .[ [ ] ] / ) ) ) ) ) ) ) ) _ ' ' [ ] [ ",
" .| | | o.*.%.%.%.@.o.O.O.+.#.%.$.%.*.$.$.%.%.o.~ h g w           k d.d.d.d.d.d.d.d.d.d.d.d.:           p ! ~ ' %.%.%.#.} [ ] [ [ ) ) ) ) ) ) ) ) ) _ ' [ [ [ [ ",
"} | |  .O.$.%.%.%.@.o.o.@.o.#.%.%.%.%.*.*.$.%.%.| Q g w           k d.d.d.d.d.d.d.d.d.d.d.d.:           a ~ [ %.%.%.$.O.} [ [ ] ' ) ) ) ) ) ) ) ) ) ) ' [ [ ] ` ",
" . . . .o.#.@.@.@.o.o. .o...#.#.%.%.%.%.$.$.$.$.@.` g r * * + + + j 5.5.5.5.5.5.5.5.5.5.5.5.u = = = = = g o.#.@.@.@.O.o.} ] [ [ ' ` ) _ ) ) ] ` ) ' ) ' [ [ [ [ ",
"O.o.O.o. .} } } } } } } } } o.%.%.%.%.$.O.O.O.O.X.} ~ d d a y a a 0                         s ~ ~ Q g ~ ..o.o.| } } { [ ) ) ) ) ) ] ] ] ] ] } } | | [ [ [ [ [ ] ",
"O.o.O.o. .[ ] ] [ [ ] [ [ [ o.%.%.%.%.O.O.O.O.O. .] ` / d y y p p 0                         a ~ ! Q h ' o.o...{ ' ' ' ' ) ) ) ) ) [ ] [ [ [ } } | |  .[ ` [ [ ] ",
"o.O.O.O. .[ [ ] [ ] ] ] [ ] o.%.%.%.%.#.O.O.O.o. .[ [ ] ` Q d a p 0                   .     a Q ~ ( } o.+.o...[ ' ' ' ` _ ) ) ) ` [ ] [ [ [ }  .| | } [ [ ] ] [ ",
"o.o.O.X. .[ [ [ [ ` [ ] [ [ O.%.%.%.%.$.O.O.o.O. .[ ] [ ] ` / ^ Q f r r r w q w e e e e f / }  ...@.o.o.o.O...[ [ [ ' ' ) ) _ ) ` [ [ ] [ [ }  .| |  .] ] [ ] [ ",
"X.X. ... .} }  . . .X.X. . .O.O.$.$.$.O.o.X. .X.}  .}  .| | | [ { { ' _ ) ( Q Q Q Q ! / } @.@.@.@.@.....o.....| | | | | ' { _ { ' }  . .|  ... . . ...[ ] ] ] ] ",
"[ } [ [  .X.o.X.X.O.O.O.O.*.O.O.O.O.O.X. .[ [ } o.#.$.#.#.@.o.o.o. .| ' ' ' ] ' ] [ ] ] [ } } } | [ ' { [ [ | @.#.#.#.@.+.+. .+.+.#.$.$.#.#.o.o.o.o.o.[ ] ' ] ] ",
"' ' ' ' } O.o.O.O.O.*.*.*.*.$.O.o.O.o. .[ [ [ ] o.%.$.%.%.@.@.O.o.o.| [ ] ' ' ' ] ] [ [ [ [ [ [ [ [ ' ' ' ' | #.$.%.%.#.@.o.+.+.O.%.%.%.%.%.o.@.o.o.o.] ' ' ' ' ",
"' ' ' '  .O.O.o.O.*.*.*.O.*.O.O.O.o.o. .[ [ [ [ X.%.%.%.%.#.O.o.o.O. .' ' ' ' ' ] [ [ ` [ ] [ ' [ [ ' ' ' ' | #.%.%.%.#.+.+.+.+.@.%.%.%.%.$.O.o.+.o.o.[ ] ' ' ' ",
"' ' ' '  .O.o.o.o.$.$.%.%.%.@.O.O.O.O. .[ [ [ [ X.$.%.%.%.#.o.@.@.o. .[ ' ' ' [ ' [ ' } ` [ [ ] [ [ [ ] ' ' | #.%.%.%.$.O.O.O.O.O.*.%.%.%.%.@.O.o.o.O.[ ] ' ' ] ",
"[ [ ' ' o.O.@.@.O.#.$.$.$.$.@.@.O.O.O.X. . . .| O.*.=.=.*.$.@.@.O.o.| ' [ ' ' ' ' [ [ [ [ ] ] [ [ [ [ [ ' [  .@.$.$.#.#.#.@.O.@.#.*.=.*.%.%.@.@.@.+.O.[ [ ' ' ' ",
" .| | | o.%.%.%.%.#.O.O.O.O.#.%.%.%.%.%.#.%.%.%.;.>.,.,.,.=.%.%.%.$.o.{ ' ' ' [ ] [ [ ] ] [ ` [ [ [ } | | |  .o.O.O.O.#.#.%.%.%.*.>.,.,.,.>.%.%.%.%.#.[ ] ' ' ' ",
" .| | | +.%.%.%.%.O.o.O.o.O.#.$.*.%.%.%.%.%.$.%.;.>.,.,.,.-.%.%.%.%. .[ ' ' ' ' [ ] [ ] [ [ [ [ ] [  . .{  . .o.o.O.o.O.#.%.%.%.*.>.,.,.>.,.%.%.%.%.%.' ' ' ] ' ",
" .} }  .O.$.*.%.$.#.O.o.O.O.#.%.%.%.$.%.%.%.%.%.-.,.,.,.,.-.&.%.%.%.o.} ' ] ] [ ` [ ] [ ] [ [ [ ' [  .| |  ...o.O.o.O.O.%.%.%.%.=.,.,.,.,.,.&.%.%.%.$.[ ] ' ' ' ",
" . . . .O.%.%.%.$.#.o.O.O.O.$.%.%.%.*.%.%.%.%.%.:.>.,.,.,.-.&.%.%.%. .[ ] ] [ ] [ ] [ ] ] [ [ [ [ [ |  . .|  .o.o.o.O.#.$.%.%.%.%.,.,.,.,.:.%.%.%.%.%.' ' ' ' ] ",
"} | }  .O.%.%.%.%.@.O.O.O.O.#.%.%.%.%.*.*.%.%.*.-.>.,.>.,.-.%.%.#.#.o.[ ' ' [ ] ] [ ] [ [ ] ' [ [ [ | |  .| ..o.O.O.o.#.$.$.$.%.*.>.,.>.>.,.%.%.%.%.#.] ' [ [ | ",
"[ [ [ [ X.O.o.O.O.#.%.$.$.#.$.%.%.%.%.*.>.>.>.>.=.#.@.@.#.o.| } } } | { | { } } [ ] [ ] [ ) ) ` _ | o.o.o.o.@.#.%.$.%.#.O.O.O.#.#.%.*.%.=.%.@.o.@.o.@.o..... ...",
"[ [ [ ]  .o.o.o.O.$.%.%.$.%.%.%.%.%.*.*.>.,.,.,.%.+.o.@.o. .' ' ] [ }  . . .} } [ [ [ ' ' ) ) ) ) [ +.+.o.o.@.%.%.%.%.#.O.O.O.O.@.%.%.%.%.$.+.O.O.O.O.o.+.o.@.o.",
"[ ` [ ] X.X.O.o.O.$.%.%.%.%.*.%.%.%.%.=.,.,.,.,.&.@.@.o.O. .[ [ [ [ } }  .}  .} [ [ [ ' ' ) ) ) ) ' o.O.o.@.O.%.%.%.%.#.O.O.o.O.@.$.%.%.%.%.O.O.O.O.o.O.o.@.o.@.",
"] [ ] [  .o.X.O.o.$.%.%.%.%.$.%.%.%.%.=.>.,.,.,.&.@.o.o.+. .[ [ [ [ } |  . .} } [ [ ' ' ) _ ) ) ) [ o.O.@.o.@.%.%.%.%.$.O.O.O.O.@.%.%.%.%.#.O.o.O.o.@.o.o.o.@.o.",
"[ ] [ ]  .O.O.O.o.#.%.$.%.%.%.$.$.*.*.;.,.,.>.>.&.o.o.o.o. .} [ [ [ } | }  . .} [ [ ' ' { ) ) ) ) [ o.o.O.o.o.%.%.%.%.#.O.o.O.O.O.%.%.%.%.%.+.o.o.@.o.o.o.@.o.o.",
"] [ ] [ [ ] [ [ ] X.o.O.o.O.#.%.%.%.%.%.%.%.%.%.o.[ [ [ [  .o.O.O.O.#.%.%.%.%.@. . .|  .[ ) ) ) ) ' [ [ [ [ [ +.O.O.o.@.$.%.%.%.%.%.%.*.%.%.O.o.@.o.@.o.@.o.@.o.",
"[ ] [ ] [ ] [ ] ] X.o.O.o.O.#.%.%.%.%.%.%.%.%.%.o.} [ ` [ | o.O.O.O.@.%.%.%.%.#. .| | | [ ' ) ) ) _ ' [ ] [ | X.o.o.O.O.%.%.%.%.%.%.%.%.%.%.O.O.o.O.o.o.o.+.o.O.",
"] [ ] [ ] [ ] [ ] X.o.o.O.O.#.%.%.%.%.%.%.%.%.%...[ [ [ '  .o.+.o.O.#.%.%.%.%.@. .| | | [ ) ) ) ) _ { ' [ ] } o.O.@.o.@.%.%.%.$.%.%.%.%.%.$.O.O.O.o.O.o.O.o.O.o.",
"[ ] [ ] [ [ [ ] ] X.o.O.O.O.#.$.%.%.%.%.%.%.%.%...| [ [ [ | o.O.O.O.@.$.%.%.%.@. . .| | } ) ) ) ) _ ' ' ] [ [ o.O.o.@.@.#.%.%.*.%.%.%.%.$.$.O.O.o.@.o.@.O.O.o.@."
};
