/* XPM */
static char *texture_chara_face[] = {
/* columns rows colors chars-per-pixel */
"80 80 235 2 ",
"   c #000000",
".  c #060909",
"X  c #090909",
"o  c #180B0B",
"O  c #0D101A",
"+  c #2C0F11",
"@  c #2C1213",
"#  c #281716",
"$  c #341819",
"%  c #321718",
"&  c #290E0F",
"*  c #172400",
"=  c #182600",
"-  c #1C2C00",
";  c #1F3100",
":  c #213300",
">  c #263A00",
",  c #33251F",
"<  c #382D14",
"1  c #3A3416",
"2  c #2D2E17",
"3  c #0F1D23",
"4  c #111E25",
"5  c #2C1D24",
"6  c #122126",
"7  c #142429",
"8  c #0F2025",
"9  c #392D24",
"0  c #352821",
"q  c #343434",
"w  c #3C3C3C",
"e  c #373237",
"r  c #2A312A",
"t  c #4E1B1D",
"y  c #56292B",
"u  c #5C3231",
"i  c #4F312D",
"p  c #662727",
"a  c #682828",
"s  c #692625",
"d  c #7C2E2F",
"f  c #762C2F",
"g  c #753D3D",
"h  c #7A3A3B",
"j  c #7C312E",
"k  c #453D15",
"l  c #365500",
"z  c #2D4510",
"x  c #46481D",
"c  c #6B491F",
"v  c #4D7601",
"b  c #547904",
"n  c #476808",
"m  c #765931",
"M  c #6F4834",
"N  c #7B6131",
"B  c #757026",
"V  c #5C5C2D",
"C  c #263253",
"Z  c #333475",
"A  c #37377A",
"S  c #393665",
"D  c #783F40",
"F  c #603A43",
"G  c #315A65",
"H  c #376A7E",
"J  c #3B676E",
"K  c #2D4346",
"L  c #404040",
"P  c #555152",
"I  c #794040",
"U  c #784A47",
"Y  c #7D5054",
"T  c #5A4E7B",
"R  c #4D4667",
"E  c #686868",
"W  c #536472",
"Q  c #963439",
"!  c #983539",
"~  c #863734",
"^  c #A2393E",
"/  c #88643C",
"(  c #AD3D41",
")  c #B53F44",
"_  c #8B4947",
"`  c #9A494C",
"'  c #8B554E",
"]  c #8F5650",
"[  c #935A52",
"{  c #905651",
"}  c #934B52",
"|  c #B14E52",
" . c #9B655B",
".. c #8E684B",
"X. c #A26E5E",
"o. c #9A6E6D",
"O. c #AC7E6A",
"+. c #A77566",
"@. c #AF6C6D",
"#. c #BE5D68",
"$. c #C24248",
"%. c #C44349",
"&. c #C6565C",
"*. c #CB5D63",
"=. c #C15E69",
"-. c #CE6066",
";. c #C9696B",
":. c #D06769",
">. c #D3786E",
",. c #528500",
"<. c #588B01",
"1. c #5E9500",
"2. c #579100",
"3. c #4F8200",
"4. c #649A00",
"5. c #689706",
"6. c #6F8F10",
"7. c #66A400",
"8. c #69A600",
"9. c #67A900",
"0. c #69AB00",
"q. c #6DAF09",
"w. c #7AA908",
"e. c #6DB300",
"r. c #6FB503",
"t. c #73B500",
"y. c #75BA00",
"u. c #79BE00",
"i. c #7CB306",
"p. c #7EA810",
"a. c #6BAA28",
"s. c #7EC600",
"d. c #7FC800",
"f. c #77C400",
"g. c #77C123",
"h. c #4A8361",
"j. c #83AF10",
"k. c #81CC00",
"l. c #81C301",
"z. c #85D200",
"x. c #88D600",
"c. c #8ADB00",
"v. c #91D305",
"b. c #8EE100",
"n. c #93E400",
"m. c #95ED00",
"M. c #9BEA00",
"N. c #98E700",
"B. c #9DF500",
"V. c #A2F600",
"C. c #A3F800",
"Z. c #AE816C",
"A. c #B4836C",
"S. c #B18C77",
"D. c #AE9A5A",
"F. c #C1A946",
"G. c #C98369",
"H. c #C68D79",
"J. c #C98E7A",
"K. c #C28A75",
"L. c #C29D7E",
"P. c #CB927B",
"I. c #D69474",
"U. c #D1AF70",
"Y. c #ECBF5C",
"T. c #FBDC5B",
"R. c #EFC45F",
"E. c #FFE05E",
"W. c #EFC261",
"Q. c #D8CE70",
"!. c #396D81",
"~. c #3D7287",
"^. c #655A82",
"/. c #43768B",
"(. c #467A8E",
"). c #477E93",
"_. c #666697",
"`. c #676899",
"'. c #796F93",
"]. c #53538D",
"[. c #86748D",
"{. c #A87F93",
"}. c #518F8D",
"|. c #69908F",
" X c #498CA6",
".X c #498CA6",
"XX c #4C90AB",
"oX c #5A9EB9",
"OX c #579AB5",
"+X c #5190A8",
"@X c #5DA2BC",
"#X c #79A9AF",
"$X c #689BAF",
"%X c #8F8F94",
"&X c #B58A87",
"*X c #9290AF",
"=X c #AF98B1",
"-X c #B6B6B6",
";X c #BABABA",
":X c #B2AEB3",
">X c #80ACA3",
",X c #D78589",
"<X c #DB9A84",
"1X c #C99486",
"2X c #DFA48A",
"3X c #DBA889",
"4X c #CFA997",
"5X c #E2A68C",
"6X c #E5AA8E",
"7X c #ECA987",
"8X c #E7AD90",
"9X c #EFB591",
"0X c #CCB7B0",
"qX c #F8C39A",
"wX c #F1CE83",
"eX c #FEE683",
"rX c #FCCCA4",
"tX c #F8C4A1",
"yX c #FFD1A8",
"uX c #D9D2A4",
"iX c #B4B5D3",
"pX c #C4C4C5",
"aX c #CCCACA",
"sX c #D4D4D4",
"dX c #F3DBDC",
"fX c #E6D7D7",
"gX c #FEF7DB",
"hX c #F3E2DC",
"jX c #D2D2E1",
"kX c #D2DDE2",
"lX c #EDEDED",
"zX c #FFFFFF",
"xX c #F3F3F3",
"cX c #F4E1E2",
"vX c #D7E7ED",
/* pixels */
"8.8.8.8.0.t.t.t.t.0.8.8.8.8.8.0.0.0.9.y.s.s.s.l.t.0.0.0.8.f.x.c.c.c.c.c.c.c.c.z.l.d.d.s.s.d.s.d.d.t.4.5.4.5.8.l.l.k.d.s.s.s.d.s.z.c.c.c.c.x.s.d.s.s.d.t.t.t.t.t.",
"8.8.8.8.t.t.t.t.t.e.8.8.8.8.8.0.0.0.9.y.s.s.s.l.t.0.0.0.8.f.c.c.c.c.c.c.c.c.c.z.s.s.s.d.s.s.s.d.d.t.4.5.4.4.8.l.k.s.s.s.d.s.d.s.d.c.c.c.c.x.d.d.d.s.s.t.t.t.t.t.",
"8.8.8.8.t.t.t.t.t.0.8.8.8.8.0.0.8.0.9.t.f.s.s.w.c a a a a a a a a a a a a a a a a a s s a a a a a a s a s a s c w.s.s.d.s.s.s.d.d.c.c.c.c.x.d.d.s.s.s.t.t.t.t.t.",
"8.8.8.8.0.t.t.t.t.0.8.8.8.8.9.0.9.9.9.t.s.d.d.w.c a a a a a a a a a a a a a a a a a a s a a a a a a a a s s s c w.l.l.d.d.d.s.s.d.c.c.c.c.c.d.d.d.d.d.t.y.t.y.t.",
"e.e.t.e.t.u.u.u.f.t.t.t.y.y.t.e.e.t.e.t.e.y.i.6.c p a a a p a a p p p s a a a p s s p p s s s s p p p p p p s c 6.e.w.t.s.l.s.s.d.z.z.z.d.d.e.y.t.t.e.0.e.0.e.0.",
"t.t.t.t.u.k.k.d.l.s.k.s.s.s.t.t.t.t.t.8.<.,.,.b c j d d d d d d d d f ~ d d d d ~ ~ d d d f ~ ~ d d d d j ~ ~ M b v v <.t.k.s.d.s.s.s.s.d.s.9.9.0.0.9.8.8.8.8.8.",
"t.t.t.t.u.d.s.d.k.s.s.d.s.s.u.t.t.t.y.2.z = = < ~ ) ( ( ( ( ( ( ^ ^ | ^ ( ( ( ( $.^ ^ ^ ^ ^ ^ ^ ( ( ( | | | #._ < * * > 7.d.s.d.d.s.s.s.d.s.0.0.9.9.0.8.8.8.8.8.",
"t.t.t.t.u.s.s.s.s.s.d.s.s.k.u.t.t.t.t.,.=     + ! %.%.%.$.$.$.$.%.%.$.$.$.$.$.$.%.%.%.%.%.%.$.$.%.%.$.%.&.*.*.` %     * 4.d.s.s.s.s.d.s.s.s.0.9.0.0.0.9.8.8.0.8.",
"t.t.t.t.u.d.s.d.l.d.s.s.s.s.y.t.t.t.t.,.-     @ Q %.$.$.%.%.%.^ %.%.$.$.$.$.$.$.$.$.$.$.$.$.$.$.$.$.%.%.&.-.*.` %     = 4.s.s.s.s.l.d.s.d.s.9.9.9.8.9.8.8.8.8.8.",
"k.z.k.x.d.d.s.s.s.z.x.x.x.x.d.f.s.f.f.<.=     + Q $.$.$.$.%.%.$.%.%.$.$.$.) $.$.$.$.$.$.$.$.$.$.$.$.$.%.&.&.&.( @     = 4.s.s.s.f.t.t.t.e.e.u.y.y.f.y.k.d.k.k.k.",
"c.c.c.c.z.s.d.s.s.x.c.c.c.c.k.s.s.s.s.1.-     + Q $.$.$.$.$.$.$.$.$.$.$.$.$.$.$.$.$.$.) $.$.$.$.$.$.%.$.%.%.%.! +     = 1.d.s.s.f.9.0.0.8.e.s.s.s.s.s.c.c.c.c.c.",
"c.c.c.c.k.s.s.s.s.x.c.c.c.c.k.d.s.s.s.1.-     @ Q %.$.$.$.$.$.$.$.$.$.$.$.$.$.$.$.$.$.$.$.$.$.%.$.$.| $.$.$.$.Q +     - 1.l.s.s.f.0.9.0.8.e.s.s.s.s.d.c.c.c.c.c.",
"c.c.c.c.z.l.d.d.s.x.c.c.c.c.k.d.k.l.k.1.-     + Q %.$.$.$.$.$.$.$.$.$.$.$.$.$.$.$.$.$.$.$.$.%.%.$.$.$.$.$.| %.Q &     - 4.s.s.d.f.8.0.8.0.0.s.d.s.d.s.b.c.c.c.c.",
"c.c.c.c.k.s.s.s.s.c.c.c.b.c.k.f.4.4.4.b < + + t ! %.$.$.$.$.$.$.$.$.$.$.$.$.$.$.$.$.$.$.$.$.%.%.| %.$.$.$.$.%.^ t & + < b 7.4.8.t.9.9.9.9.0.s.d.d.d.d.c.c.c.c.c.",
"m.m.m.m.c.x.z.x.z.k.k.k.k.k.z.e.l ; : < ~ Q ! ^ ^ $.$.$.$.$.%.%.$.$.$.$.$.) $.$.$.$.$.$.$.$.$.^ $.$.$.$.$.$.$.) ^ Q ! j < = = z 1.u.y.u.f.u.t.t.r.t.y.d.k.k.k.k.",
"C.C.C.C.N.c.c.c.c.k.d.d.d.l.z.8.;     & ! %.%.%.%.$.$.$.$.$.%.%.$.) $.$.$.$.$.$.$.$.$.) $.$.$.$.$.$.$.$.$.$.$.$.$.%.%.Q +     = ,.s.f.f.s.f.0.0.0.0.0.d.d.d.d.d.",
"C.C.C.C.N.b.x.x.b.d.s.s.s.s.x.8.;     @ Q %.$.$.$.$.$.$.$.$.%.%.%.%.%.%.%.%.%.%.%.%.%.%.$.$.$.$.$.%.%.%.$.$.$.%.%.$.$.Q +     = ,.l.l.k.s.f.0.0.0.9.9.d.s.s.d.d.",
"C.C.C.C.N.b.x.b.b.d.s.s.d.s.z.9.:     + Q $.$.$.$.$.$.$.$.$.%.^ ( ! ! ! ! ! ! ! ! ! ! ! ! ! ! ^ ^ %.$.$.$.$.$.) $.$.$.Q +     = ,.s.d.s.s.s.0.0.0.0.0.d.d.s.s.s.",
"C.C.C.C.N.b.c.x.c.d.s.s.s.s.x.9.;     @ Q %.$.$.%.$.%.%.$.$.%.^ y % $ $ $ $ $ $ $ $ $ $ $ $ @ y ^ %.%.%.%.$.$.%.$.$.%.Q +     = ,.s.s.s.s.s.9.8.9.9.9.d.s.s.d.s.",
"N.N.m.M.N.N.n.N.n.x.z.z.d.z.z.7.;     @ Q %.%.) %.%.%.^ ^ Q ! d # . . . . . . . . X . X X X . # d ! Q ^ ) $.$.%.$.$.%.Q +     = <.z.k.k.k.k.t.t.t.y.y.f.f.u.u.u.",
"b.c.c.c.N.C.B.C.C.b.c.x.c.x.d.4.-     @ Q %.$.$.$.$.%.^ t % $ @ X X X X .   .   . . . . X o X o + $ % t ( $.$.) $.$.$.Q +     = 2.x.c.c.c.x.s.s.s.s.s.t.y.t.y.y.",
"c.c.c.c.N.B.C.C.C.n.c.c.c.b.z.1.-     + Q %.$.$.$.%.%.! $ . X O q C w i L L w L w i L q O X X . X X . $ Q %.$.$.$.$.%.Q +     = <.c.c.c.c.x.s.s.s.s.s.t.t.t.t.t.",
"c.c.c.c.m.B.C.B.C.b.c.c.c.c.k.4.;     + Q %.$.$.$.| %.! $ X X q %X;X;X-X;X-X-X-X-X-X;X%Xr     . X X X $ ! %.$.$.$.) %.Q +     = <.c.c.c.c.c.s.s.s.s.d.t.t.t.t.t.",
"c.c.c.b.m.B.C.C.C.b.c.b.c.c.k.1.-     & Q %.$.$.$.%.%.! $ X X L ;XxXxXlXlXlXxXxXlXlXxX-Xe       X X X $ ! %.$.$.%.%.%.Q +     = <.c.c.c.c.x.s.s.s.s.s.r.t.t.t.t.",
"f.u.u.u.x.N.N.N.N.x.z.z.k.z.f.5.-     & Q $.$.$.$.) $.Q % . . i -XlXvXhXlXlXvXlXlXlXxX;Xq       X X X $ Q $.$.) %.$.%.Q &     - 1.k.z.z.z.d.z.z.z.z.z.u.f.u.u.f.",
"8.8.8.8.d.c.c.c.b.d.s.u.8.4.1.b x 9 9 i Q ( ( ( #.#.=.` $ X . C -XxXlXlXlXlXlXsXpX-X-X%XP q w r O X X 5 ` =.#.#.) ( ^ Q y 9 9 x <.4.5.8.f.d.c.c.c.x.c.s.s.s.s.s.",
"8.8.8.8.s.x.c.c.b.d.s.8.l = - x Z.1XL.A._ f f } {.=X=X[.r X . L -XlXlXlXlXlXlXpXP q q P %X;X;X%Xe X . 5 [.=XiX{._ f f _ Z.L.1XZ.x ; = l 8.d.c.c.c.c.c.s.s.s.s.s.",
"8.8.8.8.s.c.c.c.c.d.s.1.-     9 L.yXyX3X_ p p D =XiXiX*Xq X . w -XxXlXlXhXlXlX:Xq     q ;XxXxX;Xi X X e *XiXiX*XY p p _ 3XyXyXL.9     - 1.d.c.c.c.c.c.s.s.s.s.s.",
"8.8.8.9.s.c.c.c.b.d.s.1.-     9 L.yXyX3X' s p U *XiXiX*XC     w -XlXlXlXlXlXlX:Xr     q -XlXlX-XC X . r *XiXiX=XU s p _ 3XyXyXL.9     - 1.d.x.c.x.c.c.s.s.s.s.s.",
"8.8.8.8.u.z.z.x.z.z.z.7.;     0 S.tXqXL.M t t F [.*X*X[.R L L E pXxXlXlXlXlXxXpXE q e E pXxXxXpXE L L P [.*X*X[.F t t M L.qXrXS.9     ; 8.x.n.N.N.N.N.z.z.z.z.z.",
"8.0.8.8.t.d.s.l.s.z.c.9.:     0 S.9X8XA.i o o 5 T ].].`.-XaXpXsXlXzXzXxXxXzXzXlXsXpXpXsXlXzXzXlXsXpXaX:X'.].].A 5 o o i S.8X9XZ.0     ; 8.b.V.V.C.C.C.x.x.c.c.x.",
"8.8.8.8.t.k.s.d.s.x.c.9.;     0 Z.3X3XZ.,     O C A Z _.jXzXzXzXzXzXzXzXzXzXzXzXzXzXzXzXzXzXzXzXzXzXzXjX_.Z A C O     , Z.6X6XZ.,     ; 8.b.B.C.C.B.C.x.c.c.c.c.",
"8.8.8.8.t.s.s.s.s.x.c.8.;     0 Z.8X8XZ.0     O C Z Z _.jXzXzXzXzXzXzXzXzXzXzXzXzXzXzXzXzXzXzXzXzXzXzXjX_.Z A C O     0 O.8X8XO.,     : 8.b.V.V.C.C.C.x.c.c.c.c.",
"8.8.8.8.t.s.d.s.s.c.c.t.l - - k  .Z.Z.[ 9 o o 5 R T T '.iXjXjXsXjXjXjXsXjXjXjXjXjXjXjXjXjXjXjXjXjXjXsXiX'.T ].R 5 o o 9  .O.Z. .x ; - l t.b.V.B.V.V.C.x.c.x.c.x.",
"t.t.t.t.f.s.s.s.f.l.d.u.8.4.<.n 1 r 0 9 y u u U o.&X&X&X'._.`._._._._._._._._._._.`._.`._._._._._._._.'.&X&X&X+.I u u i 9 0 , z b 8.8.0.k.c.C.C.V.C.C.b.b.n.n.b.",
"x.x.z.z.s.t.t.t.t.t.t.0.e.t.8.b =     o u I D [ 1X8X7X&XT Z Z Z Z Z Z Z Z Z Z Z Z Z Z Z Z Z Z Z Z Z Z T &X6X8XJ.{ D I u o     - <.k.k.k.d.z.V.C.C.V.C.B.V.V.B.V.",
"c.c.c.c.d.t.t.t.y.0.8.8.8.8.4.v *     o u D D ] J.5X5X&XT Z Z A A Z G A Z Z A Z A Z A Z A A A A Z Z A T &X7X5XH.] M I u o     = ,.s.d.s.s.k.V.C.V.V.V.C.V.V.C.C.",
"c.c.c.c.d.t.t.t.t.8.8.8.8.8.7.v *     # I [ '  .P.5X2X1X'.^.T T S C Z S T ^.^.^.^.].^.T S S C S T ^.T '.1X6X2XP.X.' ] I #     = ,.s.s.d.s.k.V.C.V.C.C.C.V.C.C.C.",
"c.c.c.b.s.t.t.y.y.8.8.8.7.8.5.v *     ,  .P.J.J.<X5X2X2X4X4X4XS.C o O e &X4X4X4X4X4X4XS.e O O e S.4X4X4X3X2X2X2X1XH.P. .5     = ,.s.l.k.s.k.C.C.C.C.C.C.C.C.C.C.",
"z.z.z.x.u.e.e.0.e.t.t.t.t.t.t.<.=     0 O.8X5X5X2X2X2X8XrXyXyX1Xt     9 S.yXrXrXrXrXrX1X9     9 &XyXyXqX6X3X2X2X5X5X6XZ.0     - 2.u.t.t.t.s.n.n.n.n.n.M.N.M.M.M.",
"d.d.k.d.t.0.0.e.9.u.s.s.f.f.k.8.-     0 O.6X5X2X2X2X2X8XtXrXyXS.9     9 L.yXrXrXrXrXrXS.9     9 &XyXrXtX6X2X2X2X5X2X6XZ.,     = 4.8.8.0.0.t.s.k.k.k.k.b.c.c.b.c.",
"s.s.s.d.t.8.9.9.9.f.s.s.d.l.x.t.l ; > x +.P.H.P.<X2X2X8X9XqXrXS.i O o i L.yXrXqXrXtXyX3Xi o o i L.tXqX9X5X2X2X2XJ.H.P.+.x ; = l 4.0.8.8.8.0.s.d.s.s.s.c.c.c.c.c.",
"d.s.s.d.y.9.9.0.8.y.d.s.s.s.z.k.t.8.0.6./ ] ] X.P.5X2X5X8X8X8X1XU u u Y 4XrXtXrXtXrXrX3XY u u _ P.9X6X6X5X2X5XP.X.] { / 6.4.4.8.t.8.8.0.8.w.s.s.s.s.l.c.c.c.c.c.",
"d.d.d.d.t.9.9.9.9.u.s.s.s.s.z.c.c.c.c.j.N g h ] H.5X2X2X2X2X2XH.[ I M  .3XrXrXtXrXrXrX3X[ D D { H.3X2X2X2X2X5XH.} g g N p.s.s.d.f.0.8.8.8.0.s.l.d.d.k.c.b.c.c.c.",
"u.f.u.f.r.r.e.e.0.d.k.k.k.k.c.N.b.n.n.j.N g g ] J.6X5X5X5X5X6XJ.{ g h [ 3XyXtXrXrXrXrX3X .g h { J.6X5X5X5X5X6XJ.' g g N j.z.z.d.s.8.8.8.8.8.u.u.t.u.u.k.d.d.k.k.",
"e.0.8.0.y.f.f.f.f.x.c.c.c.x.N.M.k.s.j.j./ _ _ { +.O.O.A.K.J.J.O. .] ' @.3XqXtXtXtXqXtX4XX.' [  .A.J.H.K.Z.Z.Z.+.} _ _ / 6.0.8.t.l.8.8.8.8.8.8.0.0.8.8.e.e.e.e.0.",
"8.8.9.9.r.s.d.d.s.x.c.c.c.c.m.z.n : > k _ #.#.` i , , i U { ]  .O.J.J.P.5X8X8X6X3X5X8X2X1XH.J.O. .{ { U i , , i ` #.#.` k : ; l 0.8.0.8.0.8.8.8.8.8.8.8.9.9.9.9.",
"0.8.0.0.y.d.s.s.s.x.c.c.c.c.m.u.:     % ` -.-.` @     o u D g } P.6X5X5X2X2X2X2X3X3X3X2X5X5X5XJ.{ g g u o     @ ` -.:.` @     ; 7.8.8.8.8.8.8.0.8.8.8.0.0.9.0.9.",
"0.9.9.9.y.s.s.s.s.x.c.c.c.b.B.s.z     # ` :.-.` @     o y D g ' J.6X6X5X5X5X6X5X6X5X5X6X5X5X7XH.{ g h y o     @ ` -.-.` @     ; 4.8.8.8.8.8.8.8.8.8.8.0.0.9.0.0.",
"0.e.0.0.s.k.k.k.k.z.z.k.j.j.j.j.x 1 , u | -.-.` y @ @ i ' o.o.o.O.O.O.O.O.O.O.Z.O.O.O.O.O.O.O.O.o.o.o.Y i + @ y | -.-.| i 9 9 x 6.6.6.6.5.7.8.4.4.8.8.0.9.0.9.9.",
"t.y.y.t.k.c.c.c.c.d.d.i.B m / / G.K.K.I.;.*.-.#.| ` ` @.0XfXfX:XP $ , , 0 , , , 0 , , , , , , P :XfXfX0X@.` ` ` #.*.*.;.G.K.L.D...m M B 6.4.1.5.4.4.5.8.0.9.0.9.",
"t.t.t.t.k.c.c.c.c.k.s.p./ D M  .U.qXqX7X>.*.*.-.*.-.*.,XdXzXzXpXe                             e pXzXzXcX,X-.:.-.*.*.*.>.9XqXqXI.[ D M M 6.4.5.4.5.5.5.0.9.0.9.0.",
"t.t.t.t.k.c.c.c.c.k.u.p.N g g [ 5XqXqX7X>.*.*.*.*.*.*.,XdXzXzXpXw                             e pXzXzXdX,X&.-.*.*.*.-.>.W.qXqXI.[ g I m 6.4.4.5.4.4.4.0.8.0.0.9.",
"t.t.t.t.k.c.c.c.c.k.l.j.N g M [ I.9X9XU.>.:.:.:.*.*.&.,XdXzXzXsXE q w w 1 < 1 1 1 1 1 < , @ @ P aXzXzXdX,X*.-.-.:.>.:.>.6X9XqXI.[ g I m 6.5.4.4.4.5.4.8.0.0.0.9.",
"t.t.u.t.s.k.z.k.z.s.u.j.m D D [ J.6X6X5X<X<X<XI.:.*.*.,XdXzXzXlXaXpXpX0XU.F.F.F.F.F.F.D. .} } o.fXzXzXdX,X*.*.:.J.<XI.<X5X6X9XP.] g D m 6.4.7.4.8.4.8.8.0.9.0.0.",
"d.d.s.s.r.e.0.e.0.0.e.6.m D D [ 1X5X2X2X5X5X6XI.>.*.*.,XdXzXzXzXzXzXzXgXeXE.T.E.E.E.T.R.G.;.@.,XdXzXzXdX,X&.*.:.<X5X2X2X5X2X6XJ.] g D m 6.7.e.t.t.t.t.8.0.0.0.9.",
"k.s.s.s.y.9.8.8.8.0.0.6.m D D ] J.6X5X5X5X6X5X<X:.-.-.,XdXzXzXzXzXzXzXgXeXT.T.T.T.T.T.W.>.@.#.1XdXzXzXdX,X*.*.>.<X6X6X5X5X5X5XJ.] D D M 6.0.r.t.t.t.r.9.0.0.0.8.",
"s.s.d.d.y.0.0.9.0.0.0.5.B m N ..A.H.H.K.Z.Z.O.+.| ` ` @.fXzXzXzXzXzXzXgXwXY.W.R.T.T.T.W.G.>.G.4XdXzXzXfX@.` ` [ @.@.O.Z.K.J.H.A...m m B 5.e.r.r.t.t.t.9.9.0.0.9.",
"s.s.s.s.t.9.8.9.0.9.0.8.5.6.p.j...] [ U i , , , $ % @ P aXzXzXzXzXzXzXhXI.>.>.I.W.T.T.T.R.R.R.wXgXzXzXaXU + % , , , , i U ] { ..6.6.6.6.q.0.e.y.t.t.y.9.0.0.9.9.",
"u.u.u.f.r.e.t.q.r.t.r.r.r.r.d.j.N D D i o             e pXzXzXzXzXzXzXdX1X#.X.G.Y.T.T.T.E.E.T.E.gXzXzXpXw             o y h g m 6.r.y.t.r.e.y.y.t.u.y.9.9.9.9.9.",
"8.0.0.e.y.s.s.s.f.z.x.x.c.c.k.p.N U D u o             e pXzXzXzXzXzXzXdX1X;.#.G.R.E.T.E.E.E.E.E.gXzXzXpXq             o u h g m j.z.z.x.x.z.s.s.s.s.s.7.9.9.9.9.",
"8.8.8.7.t.s.s.s.s.x.c.b.c.c.z.p.B N N M r 8 6 7 7 7 8 P iXvXvXkXaXpXpX:Xo.} }  .D.F.F.F.F.F.F.U.yXgXgX;XP 8 7 7 6 7 7 2 V / N B i.c.c.c.c.x.s.s.d.d.s.8.0.8.9.8.",
"8.8.8.8.y.s.s.s.s.x.c.c.c.c.z.s.p.p.p.a.J H H H /.(.~..X$X$X@X|.P w w q 5 # # , < 1 1 1 1 1 1 V Q.E.eXwX|./.(./.H H H W a.p.j.j.k.c.c.c.c.x.s.d.s.s.s.8.8.8.8.8.",
"8.8.8.8.t.d.s.s.s.x.c.c.c.c.k.s.s.s.f.g.h.+X XXXOXOXOXOX.X.X.XH 3                         .   2 D.T.T.Q.#XoXoXOXXXXX X}.g.s.s.s.d.c.c.c.c.c.s.s.s.s.s.7.8.8.0.8.",
"8.e.8.8.u.k.k.k.d.z.x.x.x.x.d.d.d.d.d.g.}. X XXXOX@XoXOX X.X XH 8                             1 F.E.T.Q.>X@X@XOXXX.X.X}.g.z.d.d.z.n.c.n.b.c.k.k.k.k.l.7.8.8.0.8.",
"t.t.t.t.k.c.c.x.c.z.s.s.d.s.z.c.b.b.x.g.h.!.H !./.(./.)..X XXX~.C 4 7 4 .             . 4 7 4 L D.Q.Q.uXh.}././.!.!.!.h.g.c.c.c.n.V.B.V.C.B.c.x.c.c.c.8.8.8.8.8.",
"t.t.t.t.k.c.c.c.c.d.s.d.s.s.x.c.c.c.c.q.z 7 4 6 6 7 6 K ).OXOX+X)./.).G 3             3 G )./.}.#X#X#Xh.K 7 4 7 6 4 7 z r.c.c.c.c.V.V.V.C.V.c.c.c.c.c.7.8.8.8.8.",
"t.t.t.t.l.c.c.c.b.d.s.s.s.s.z.c.c.c.c.9.;             6 /.oXOXOXoXoX@X(.7             7 (.oXoXoXOXOXOXH 4             - 8.c.c.c.n.V.V.C.C.V.c.c.c.c.c.7.8.8.8.8.",
"t.t.t.r.k.c.c.c.b.d.s.d.s.s.z.c.c.c.c.8.;             6 /.oXOXOXOXoXoX(.7             7 }.oXoXoXOXOXoX/.7             ; 9.c.c.c.c.V.C.C.C.B.c.c.c.c.c.7.8.8.8.8.",
"t.t.t.r.s.c.c.c.c.d.s.s.s.s.x.c.c.c.c.9.:       3 6 8 C ).OXOX+X}./.(.J r = = = = = - r J ~.~.).+XOXOX(.C 3 6 3 .     - 8.c.c.x.b.V.C.C.V.M.c.c.c.c.c.7.8.8.8.8.",
"0.0.0.0.y.d.d.d.d.x.x.c.x.x.c.c.c.c.c.e.>     3 G H H H .X.X+X/.K 8 7 r v 2.<.,.,.,.,.n r 7 7 K /. X X.X~.H H G 3     ; 4.d.d.d.k.c.b.c.c.c.k.k.k.d.k.f.s.s.f.s.",
"0.0.0.9.y.s.s.d.s.x.c.c.c.c.c.c.c.c.c.e.>     6 H  X.X.X.X.X.XH 8     = 2.y.t.e.0.9.9.,.=     8 H  X.X X X X XH 6     ; 4.d.d.s.k.c.c.c.c.x.s.s.s.s.s.l.s.s.d.d.",
"0.9.0.9.y.f.d.s.s.x.b.c.c.c.c.c.c.c.x.t.:     7 !.XX.X.X.X XXX!.8     * ,.r.t.e.0.9.9.3.*     8 H XXXX X.X.XXX!.4     ; 1.d.s.s.k.x.c.c.c.c.s.s.d.d.s.s.s.s.s.s.",
"9.0.9.9.y.s.d.s.s.x.c.c.c.c.c.c.c.c.c.u.n : > z G !.H !.!.H !.G r - - l 1.y.t.e.0.0.8.2.z * = 2 G H H H !.!.!.G r ; ; l 8.s.s.d.k.c.c.c.c.x.s.s.s.s.s.d.s.k.s.s.",
"0.9.0.9.y.s.s.d.s.x.c.c.x.c.c.c.c.c.c.c.l.u.l.7.z 7 7 4 8 6 4 r n ,.,.1.0.t.t.e.0.0.0.8.,.v v n 2 4 6 6 4 4 4 z <.0.0.r.f.s.s.s.k.c.c.c.c.x.s.d.d.s.s.d.s.s.d.s.",
"9.0.9.0.9.9.9.9.9.y.s.f.s.s.z.c.c.c.c.c.c.c.c.0.;             - 4.d.x.c.b.c.b.k.y.y.t.t.0.4.5.v =             - 5.s.d.k.c.c.b.c.c.c.c.c.c.c.d.s.s.s.d.s.d.s.s.d.",
"0.9.9.0.9.0.0.9.9.f.s.s.d.s.z.c.c.c.c.c.c.c.c.8.=             - 1.d.z.x.c.c.c.k.y.t.t.y.0.5.5.v *             = 1.s.s.d.c.c.c.c.c.c.c.c.c.c.d.d.s.d.s.d.s.s.s.s.",
"9.0.0.9.9.9.9.0.9.y.d.s.s.s.z.c.c.c.c.c.c.c.c.t.l = = = = - = l 8.s.z.c.c.c.c.k.y.t.t.t.e.4.5.,.> * = = = = * l 9.d.d.z.c.c.c.c.c.c.c.c.c.x.d.l.s.s.s.d.s.d.d.s.",
"9.0.9.0.0.9.0.9.9.y.f.s.s.s.x.c.c.c.c.c.c.c.c.z.4.,.3.3.,.2.1.8.u.s.z.c.c.c.c.k.t.t.t.y.e.5.4.1.b v ,.3.3.3.,.7.u.s.s.d.x.c.c.c.c.c.c.c.c.c.s.s.d.d.s.s.d.d.s.s.",
"0.9.0.9.9.0.9.0.7.f.s.s.s.s.z.c.c.c.c.c.c.c.c.c.f.0.0.8.8.t.s.s.d.s.z.c.c.c.c.d.u.t.t.t.8.4.4.5.4.7.0.0.0.0.e.s.s.s.d.d.c.c.c.c.c.c.c.c.c.x.s.s.s.s.d.s.s.s.s.d."
};
