/* XPM */
static char *exit[] = {
/* columns rows colors chars-per-pixel */
"80 80 240 2 ",
"   c #140F00",
".  c #171100",
"X  c #1B1401",
"o  c #1E1804",
"O  c #1F190A",
"+  c #201606",
"@  c #221A05",
"#  c #241C0A",
"$  c #291D0C",
"%  c #291E14",
"&  c #261E12",
"*  c #321F08",
"=  c #2A210E",
"-  c #2E2A0C",
";  c #32250F",
":  c #33290D",
">  c #2C3706",
",  c #2D2413",
"<  c #2E2419",
"1  c #272314",
"2  c #322513",
"3  c #352915",
"4  c #3B2B15",
"5  c #33261B",
"6  c #342B1C",
"7  c #3B2C1B",
"8  c #392718",
"9  c #3B311C",
"0  c #3B3614",
"q  c #313305",
"w  c #342C22",
"e  c #392A25",
"r  c #3C3221",
"t  c #3D2E34",
"y  c #372B33",
"u  c #3D3039",
"i  c #3E3435",
"p  c #412E1C",
"a  c #462F16",
"s  c #44331C",
"d  c #4A351D",
"f  c #4B3A1D",
"g  c #433318",
"h  c #54361B",
"j  c #422E27",
"k  c #443322",
"l  c #4B3523",
"z  c #453A23",
"x  c #4B3A25",
"c  c #4D3C2B",
"v  c #47352C",
"b  c #543B25",
"n  c #533C2B",
"m  c #5A3C27",
"M  c #412F32",
"N  c #433235",
"B  c #4B3C3C",
"V  c #4A3637",
"C  c #543B34",
"Z  c #553B39",
"A  c #593C36",
"S  c #653F2D",
"D  c #3E510A",
"F  c #4B4A1A",
"G  c #53531B",
"H  c #47570D",
"J  c #4B6805",
"K  c #557609",
"L  c #566A11",
"P  c #667C13",
"I  c #4A4328",
"U  c #5A422C",
"Y  c #584429",
"T  c #545926",
"R  c #4C4538",
"E  c #544333",
"W  c #5C4435",
"Q  c #53433D",
"!  c #5C433A",
"~  c #5C4B3A",
"^  c #584A37",
"/  c #51522C",
"(  c #624435",
")  c #62453A",
"_  c #654A3C",
"`  c #6B4C3C",
"'  c #684B35",
"]  c #734D3D",
"[  c #734F34",
"{  c #69523C",
"}  c #74523D",
"|  c #77563E",
" . c #6A492C",
".. c #596A29",
"X. c #6D732F",
"o. c #69591D",
"O. c #4E4442",
"+. c #5C4B44",
"@. c #58544B",
"#. c #634B42",
"$. c #694C41",
"%. c #6C5B4C",
"&. c #685548",
"*. c #745543",
"=. c #795442",
"-. c #755945",
";. c #7A5A45",
":. c #755B4A",
">. c #7C5C49",
",. c #73574B",
"<. c #695A52",
"1. c #725D53",
"2. c #7D634C",
"3. c #77614A",
"4. c #6C7C45",
"5. c #67625B",
"6. c #7D6454",
"7. c #766559",
"8. c #7B7F4A",
"9. c #786962",
"0. c #7A756A",
"q. c #7A7978",
"w. c #6A6867",
"e. c #5F6C41",
"r. c #835732",
"t. c #847230",
"y. c #835F48",
"u. c #83644B",
"i. c #83694C",
"p. c #8D6B4A",
"a. c #896546",
"s. c #926E4A",
"d. c #936D46",
"f. c #95724C",
"g. c #98774C",
"h. c #816652",
"j. c #846A54",
"k. c #8B6C55",
"l. c #836D5B",
"z. c #8A6B56",
"x. c #8A7258",
"c. c #92745C",
"v. c #947A5D",
"b. c #9A7B5D",
"n. c #987955",
"m. c #857648",
"M. c #A17C59",
"N. c #8D7562",
"B. c #877767",
"V. c #977D65",
"C. c #827E7E",
"Z. c #867C73",
"A. c #5C8706",
"S. c #5C8A0A",
"D. c #649A00",
"F. c #689E00",
"G. c #679A0B",
"H. c #698818",
"J. c #6F9316",
"K. c #66A301",
"L. c #69A700",
"P. c #67A800",
"I. c #69AB00",
"U. c #6DA40A",
"Y. c #72AD01",
"T. c #74AB0B",
"R. c #6EB100",
"E. c #73B600",
"W. c #75B900",
"Q. c #79BE01",
"!. c #7AB60B",
"~. c #76A718",
"^. c #7DBC12",
"/. c #6EA314",
"(. c #778A22",
"). c #789125",
"_. c #6B8D22",
"`. c #7EAA2D",
"'. c #76C200",
"]. c #7CC500",
"[. c #7FC800",
"{. c #76844A",
"}. c #7E806E",
"|. c #889117",
" X c #83BA15",
".X c #87902C",
"XX c #8DA534",
"oX c #89AC32",
"OX c #81C400",
"+X c #81CC00",
"@X c #82C60E",
"#X c #85D300",
"$X c #89D601",
"%X c #8ADB00",
"&X c #90DC00",
"*X c #82C212",
"=X c #8EE100",
"-X c #93E500",
";X c #99E502",
":X c #95EB00",
">X c #9AEA00",
",X c #9CF500",
"<X c #A1F600",
"1X c #8B8547",
"2X c #9B835B",
"3X c #859359",
"4X c #8D8F57",
"5X c #A58C5B",
"6X c #A78858",
"7X c #A48A53",
"8X c #9C846B",
"9X c #9A8467",
"0X c #948676",
"qX c #968A7B",
"wX c #9C8B77",
"eX c #9E917F",
"rX c #8D8E6C",
"tX c #A28364",
"yX c #A38C6A",
"uX c #A58967",
"iX c #AC946C",
"pX c #AB9568",
"aX c #A48C74",
"sX c #A28A77",
"dX c #A99679",
"fX c #B19873",
"gX c #B09567",
"hX c #ABA275",
"jX c #7F7F82",
"kX c #827F81",
"lX c #858182",
"zX c #8A8584",
"xX c #8D8989",
"cX c #938C88",
"vX c #9B9286",
"bX c #A89885",
"nX c #B59D81",
"mX c #AEA28C",
"MX c #B7AA97",
"NX c #AFA38D",
/* pixels */
"L.D.W.W.].E.].Q.D.K.F.D.D.D.D.D.K.D.D.K.D.D.D.D.D.D.D.D.D.D.D.D.D.D.D.D.D.K.D.D.D.D.D.D.D.D.K.D.D.D.D.K.D.D.D.D.D.D.D.D.D.D.D.D.D.D.D.D.D.D.D.D.K.D.K.D.D.D.D.D.",
"L.L.I.I.E.E.E.E.W.L.L.L.K.I.P.P.P.I.P.R.'.'.[.[.W.I.P.I.I.'.%X%X%X%X%X=X[.=X[.[.[.].[.[.].[.[.].'.W.D.D.D.D.F. XOX[.[.[.].].[.'.+X%X%X%X=X[.[.[.'.].].E.E.E.E.E.",
"L.L.P.L.R.E.E.E.E.I.L.L.P.I.P.P.I.P.I.W.].].[.].W.I.I.P.P.].#X%X%X=X[.%X[.:X:X[.[.].[.[.].[.[.[.].E.D.D.D.D.L.Q.[.[.].[.[.[.[.[.[.%X%X%X=X%X'.[.].[.].E.E.E.E.E.",
"L.P.L.L.Y.W.E.E.E.L.L.L.P.I.P.P.P.I.P.W.].].[.].W.I.P.I.I.].%X%X%X%X=X=X:X[.:X[.[.[.[.[.[.'.[.].].E.D.D.D.D.F.OX[.].[.].[.].[.].+X%X%X%X%X$X[.].].[.'.E.E.E.W.E.",
"L.P.L.L.E.E.E.E.W.L.L.L.P.L.I.I.I.P.I.E.[.[.[.[.R.I.I.P.P.'.%X%X[.=X%X=X[.=X[.[.].].].[.[.[.].[.OXE.D.D.D.D.L. X].+X].OX].[.].[.[.%X%X%X%X%X[.[.[.[.].E.E.E.E.W.",
"I.R.I.E.E.Q.Q.'.'.W.W.W.E.E.E.I.R.E.R.R.E.E.E.E.I.P.K.K.D.R.E.'.'.'.[.[.[.:X[.=X#X#X#X+X[.W.E.E.E.Y.F.L.F.F.F.Y.Y.Y.Y.W.[.].[.[.].#X#X#X#X[.E.E.E.W.E.I.R.R.I.I.",
"W.E.E.E.Q.].+X].OX].].].].].Q.E.E.E.W.R.I.I.K.I.P.D.D.D.D.F.L.I.I.I.'.'.[.'.[.[.%X%X%X%X[.R.P.P.L.P.L.L.L.L.L.D.D.D.D.L.Q.[.].[.].[.[.[.].'.I.I.I.I.I.I.P.L.L.L.",
"E.E.E.E.Q.[.].[.[.[.].+X].[.Q.E.E.E.W.I.I.P.I.I.K.D.D.D.D.K.I.I.I.I.'.[.[.[.[.=X%X%X=X%X[.R.P.I.I.E.K.P.L.L.L.D.D.D.F.L.].].[.[.[.].[.[.[.'.I.I.I.I.P.P.P.P.L.L.",
"E.E.E.E.'.].[.].].+X+X].].[.Q.E.E.E.E.R.I.I.I.I.K.D.F.D.G.K.I.P.I.I.W.'.].[.].#X$X$X%X=XOXE.L.P.P.P.P.P.L.L.K.D.D.D.D.Y.Q.].].+X].[.].[.[.'.I.I.P.I.L.P.L.P.P.I.",
"E.E.E.E.].].[.].].].].].].].W.W.W.E.E.R.I.I.P.I.D.D.D.D.D.K.P.I.I.I.W.[.[.[.].#X$X=X$X%X+XE.I.P.I.I.P.P.L.L.K.G.D.D.D.L. X+X].OX[.[.[.[.].Q.I.I.P.P.I.P.L.I.P.I.",
"+X#X+X#X+XOX].+X].#X#X$X$X$X+X'.].'.Q.Q.R.E.E.R.P.kXw.@.O.O./ I.P.R.R.R.R.W.I.'.[.[.[.[.'.E.R.E.R.G.R B B / S.P.F.D.L.Y.Q.+X+X].].E.R.R.E.E.Q.W.'.'.W.+X[.+X].[.",
"%X%X%X%X+X].[.].+X#X%X%X%X%X+X].OX[.].Q.E.E.E.E.L.zXlXxXxXlX}.X.G.P.P.P.I.I.I.W.[.[.'.[.'.W.E.T./.{.0XlXzX0.e.T L.L.L.E.Q.+X].].'.I.I.I.R.R.'.+X].'.].%X%X%X%X%X",
"%X%X%X%X#X[.].[.].%X%X%X%X%X+X+X].[.+X'.W.E.E.E.L.zXcXNXNXbXC.O.S.I.P.P.P.I.P.R.'.[.[.[.'.E.W.E._.w.vXmXbXZ.+.i L.L.L.Y.Q.].OX[.W.I.I.I.L.I.'.[.+X].OX%X%X%X%X%X",
"%X%X%X%X#X].[.[.].%X%X%X%X%X+X+X].+X].Q.W.E.E.E.L.xXvXmXfXaX7.V S.K.K.K.I.P.P.R.'.[.].].'.W.W.T._.5.hXhXyX1.B y L.L.L.Y.'.+X].[.'.I.I.I.I.R.OX[.].+X+X%X%X%X%X%X",
"%X%X%X%X+X[.].].].%X%X%X%X%X[.+X].].[.Q.W.E.E.E.L.xXvXfXgXn.] t H.G.K.G.K.U.K.T.'.'.^.Q.!.Y.U.G.H.<.hXpXf.*.V y L.L.L.Y.].].[.].'.I.P.I.I.I.].[.[.].OX%X%X%X%X%X",
":X:X:X,X%X%X#X#X%X[.#X[.+X+X#X#X#X#X#X+X].Q.'.Q.E.cXvXiXgXs.` M T L _._.(.(.).).).).(.).(.H.H.P ..5.yX2Xd.] N y R.E.E.I.E.R.E.E.E.'.'.W.W.W.E.R.W.R.W.[.#X[.+X+X",
"<X<X<X,X>X%X%X%X%X[.[.[.[.].#X#X%X%X%X#X[.].].].W.cXvXfXpXp.#.! ! #.$.,.h.l.l.l.B.l.6.6.3.%.&.#.@.5.0.n.d.] V y Y.Y.E.R.L.L.I.I.E.].'.'.].].I.R.I.R.I.[.[.+X].+X",
"<X<X<X<X:X&X%X%X%X#X[.[.[.[.#X%X%X%X%X#X[.[.[.[.W.xXvXiXyXx.&.x.c.N.8XsXbXmXmXNXmXmXbXnXdXdX8XyXwX0X5.j.a.] V y W.E.E.E.I.L.L.L.Y.'.OX+X].Q.I.I.I.I.I.[.].].+X].",
"<X<X<X<X>X&X%X%X%X[.[.].[.[.#X%X%X%X%X#X[.[.Q.!.U.cXbXgX5X9XB.9Xn.b.V.V.V.uXV.uXuX9XV.b.9Xb.b.V.V.B.7.i.y.] V y T.U.T./.U.G.U.L.R.'.[.].OX].L.I.I.I.I.[.].+X].OX",
"<X<X<X<X;X%X%X=X%X+X].[.].[.%X%X%X%X%X#X[.'.X.Q Q xXeXgXpXn.6.j.>.;.>.,.y.y.y.;.;.=.;.=.*.-.-.;.,.,.%.i.y.] V y ,.,.:.%.@.5.{.L.R.].[.[.[.'.I.I.P.I.I.[.+X].+X].",
">X>X,X>X>X;X-X-X:X%X#X[.#X+X#X#X+X#X+X+X'.'.J a a xXvXfX5Xk.$.A ! A ) ( ( ) ( ) ( A A A A A A A A C #.u.a.] C t m m m d a n ..I.R.[.#X+X+X+XE.W.E.W.W.W.'.'.Q.Q.",
"=X%X%X%X:X<X<X,X,X-X%X%X#X#X#XOX+XOX+XW.R.I.H $ 8 xXvXfXgXs.` M e k C A A E n n n l p ; 3 r W ( C C | d.r.] Z t h a a d d Y X.I.R.#X%X%X%X$XOX'.'.[.].E.W.W.W.W.",
"%X%X%X%X:X,X<X<X<X-X%X%X%X%X+X+X~.(.(.K L J q + = zXwXuX6Xd.=.M 1 7 Y W W Y n n l l 2 X o r { _ A E p.g.s.} C t l ; - 9 { 9.{.I.E.%X%X%X%X%X+X].].+X].E.E.E.E.E.",
"%X%X=X%X:X,X<X<X<X=X%X%X%X%X+X+X(.u.=.p 8 * +   $ kX0XtX6Xf.] M % r E ^ W C n m l l 2 X o 9 _ ` ) _ g.g.d.} A M x @ X 0 3.wXrXI.E.%X%X%X%X$X+X].+X].].E.E.E.E.E.",
"%X%X%X%X:X,X<X<X<X=X%X=X#X^.I.L.X.' ' s 8 ; +   # kXwXiX6Xg.=.M % w E W E Y E x b l 2 . X r { { _ &.7X7Xp.] Z u c # . 9 &.B.3XG.U.#X%X$X%X#X].OX].+X].E.E.E.E.E.",
"Q.'.Q.Q.$X;X:X:X>X=X#X[.!.R < , @   + 6 p 2 +   $ zXsXiX5Xg.] M w v A ( W W W U m m p ; 2 x { $.{ &.6X7Xd.=.Z u E # . 6 ~ 3.` ( m !.#X#X#X#X#X#X#X+X#X'.Q.].'.Q.",
"I.I.I.I.[.%X%X%X%X[.].+XT.+.; # @ . + 7 7 2 @ . $ zXeXiX6Xp.$.V C ( ` *.=.| | | =.| ' [ ' } | -.&.&.x.g.d.] Z u E $ . 3 ^ *.` '  .W.[.[.OX+X#X%X%X%X%X].+XQ.+X'.",
"L.L.L.L.].%X%X%X%X[.oX3X4XE = # o . # 7 j 3 + . = cXwXiXM.u.+.,.,.,.y.h.k.c.c.n.c.c.k.k.p.p.a.u.2.7.1.u.a.y.Z u E # . < ^ } } [ [ {.}.oXOX+X%X%X%X%X%X[.[.].].[.",
"L.L.L.L.].%X%X%X%X[._.+.~ 6 = @ @ X @ s r 3 # . $ xXwXuX2Xl.9.0XV.sXsXdXNXMXMXMXMXMXMXnXfXiXiXiXaX0X9.l.a.=.Z u R = X < ^ { | } [ ~ ~ ../.[.%X%X$X%X%X].].].+X[.",
"L.L.L.L.].%X%X%X%X#XK 6 8 $ @ @ @ o $ 9 j 3 @ . = zXeXiXyXN.7.v.M.n.M.b.M.uXuXuXtXtXtXM.M.M.M.b.n.N.7.N.z.=.Z N E = . < W | &.} } d 4 c X.[.%X$X%X%X%X].+XOX].[.",
"L.L.L.L.W.+X+X XT.T.L 7 3 # @ @ @ o = 9 p 3 # . = zX0XyX9Xl.#.,.,.=.*.=.;.;.>.=.-.;.;.;.=.,.*.*.*.&.<.l.k.=.B u E = . , ^ -.| } } b g c ..!. X;X:X;X;X#X+X#X+X#X",
"L.L.I.L.W.+X^.Z.R z z s 8 # @ o o @ = 9 r 8 O   = lX0XyX5Xi.A Z C A A ! W ( ) A W W A A A A A A Z Z &.x.k.=.C i E = . , ~ -.*.-.} b a p s d F ;X<X<X<X%X%X$X%X$X",
"L.L.L.L.W.[.^.0XI z d s 4 O o o o o $ 7 r 8 @ . $ kXqXiX6Xp.S N e j n C C C v l 7 2 5 2 5 v E A Z B 2.f.s.=.Z u C $ . 3 ~ :.-.*.} m d 7 s k I >X<X,X<X%X$X%X%X%X",
"L.L.L.L.`.rXrX%.v k d s 4 o X o o o $ 7 p 2 @ . % kXqXdXuXs.=.M % 2 c n m m m p # X X X o 9 ~ ' ! +.g.n.s.=.Z M A # . < ^ :.-.-.=.U s 9 s k c X.t.1X.X1X.X&X%X%X",
"L.L.L.L.XXwXV.$.z z d s 4 X X o o o # e j = @ X = C.vXfXgXg.] M % 5 c n l 8 8 * O X X o o r E ! ^ &.5X6Xf.=.Z u n $ . < ~ -.-.-.*.U f 9 s k x ' ` =.y.r.r.%X&X&X",
"E.Q.E.Y.XXbXsX%.x z l s 7 X X X X X # 7 p 8 @ o = C.cXfXgXg.$.M 5 e v n j < % % 1 $ $ % , r R E R %.gX5Xs.=.Z t Y % . < _ :.:.;.*.Y s 9 s k x  .( ] r.r.r.&X;X>X",
"#X#X#X+XoXhX3X(.I z f d 4 + o X X o # 7 7 3 # . = kXeXfXuXd.$.t B O.O.O.B B B B B O.Z O.Q O.O.B O.<.4X7Xs.=.Z u I $ . , ~ -.:.:.=.U s 9 s l b X.X.|..X.X|.>X<X<X",
"%X%X%X%X].W.].W.F f d d 4 + . o X . # k s 8 # X $ kXqXyX6Xu.) ! $.,.,.y.u.h.h.j.l.l.6.2.>.>.:.;.3.%.7.k.p.=.Z u c = X 1 E { *.;.;.n s 7 s l F ;X<X<X<X<X<X<X<X<X",
"%X%X%X%X[.W.E.E.G s s d 4 X . o X X # r k 6 # X = lX0XuXV.l.7.l.N.N.M.V.V.uXyXsXsXsXsX8XtXtXtXtX9XZ.7.6.y.=.Z u c $ . o # = z ;.;.n s 6 k k F &X<X<X<X<X<X<X<X<X",
"%X-X%X%X].W.E.E.F s d s 4 O o X . . # k k 3 = o = lX0X9XM.Z.C.wXsXsXsXsXdXvXdXbXbXbXsXdXaXdXaXaXwXqX0.l.y.] Z u x $ . o O , c >.-.Y 9 7 s k f ;X<X<X<X<X<X<X<X<X",
"#X#X+X#XoX3X3XX.I g g a 4 O o . . X # k x 8 # o = kX0XyX9XB.<.h.h.h.k.k.z.z.z.z.z.z.z.z.k.z.z.k.l.6.%.2.y.=.Z u l $ . X X # 2 x k 7 7 9 9 d f #X;X&X&X;X>X>X>X>X",
"].[.+X].).7.%./ s g p s 4 o X . X X # k j 8 @ X = lXqXdXyX6.Z Z ) _ _ ` _ _ #._ #._ #.#.) #.) A ! Z #.u.y.*.Z u k # o . . . O # O , 3 3 9 d g P P P |.|.|.%X-X%X",
"+X].].+XH.Y f g 0 4 s s 4 + X X X X @ 7 7 2 @ o = C.vXnXyXi.Z t V B B B V V B V B B B B B B Z B N V { i.a.] Z N k & . . . . . . . = 3 4 7 s s s a h h r.r.%X%X%X",
"OX].[.].H.T G Y 8 2 a s p X X X X X o , = = @ o , kXvXmXiXf.` t y 5 w 5 5 < 5 5 < < < 5 < w e e j C a.f.a.=.Z N k # o . o X . . . , 2 8 0 7 a G G G o.t.t.%X%X%X",
"].[.].].E.I./.cX< # 8 s p o X X X X X X @ X o X * C.cXfXgXf.] t % . X + X X + X . X X X X X X @ v +.n.7Xd.=.Z M k # X X X X . . . $ 3 3 3 3 : E.OXOX+X%X%X%X%X%X",
"W.'.W.'.W.R.~.}., @ 7 x p @ X X X X X + X o X @ # C.0XuX6Xd.] M % O X + X X X + X X X + X + @ $ v &.7X7Xd.} Z t 2 @ X X X . X . . $ 2 4 4 4 : L.Q.W.Q.OX[.+X+X[.",
"R.R.R.R.R.'.^.q.1 O $ 2 % @ X o X X X X + X X X + C.0X5X7Xd.$.N w = = = ; 2 2 2 3 2 2 = ; ; = e R &.7X2Xs.} C t # + + X X X . X X $ ; 2 : : - F.I.R.L.W.R.I.R.R.",
"I.I.P.P.W.'.^.q.1 . . o O X X X X X X X X X X + X C.wX5XM.a.A V V A A ` ` ` $.$.$._ ` ` ) ) A A +.<.8.g.a.] C t o o X X X X . X X $ = ; : : - D.P.L.L.L.P.I.I.I.",
"I.P.I.P.E.[.^.jXi w 1 . . o . o X X X X X + X + X C.Z.5X2Xi.&.1.6.6.j.x.N.V.V.V.0XV.N.v.x.x.k.l.7.9.7.2.u.' C t + o X X X X . X . # = - 9 R I F.I.L.L.I.I.P.I.P.",
"I.P.I.P.Q.[.].rX4.{.D o O . X . X X X + X X + X X C.0X9Xn.j.7.l.z.v.N.V.V.8X0XwXwX8X9XV.2Xv.v.v.N.0.<.3.| ' v e + X X X X .   X . o @ 3 / 4.4.G.P.L.P.I.P.I.P.I.",
"R.R.I.R.Q.+X+X+X'.[.A.o o X X X X X X X + + X X X 0.B.2Xf.i.1.1.6.2.j.j.j.j.j.z.j.j.j.i.u.j.2.2.:.%.~ | [ ( v e + o X X X . X     X O r ..K.D.L.L.L.K.L.I.P.I.P.",
"R.E.E.R.+X%X%X%X=X[.J 1 = O X X X X X X X X X + o 9.0.x.f.;.) ) W _ W ' _ _ _ ` ` _ _ _ ' ( W W W I E { [ A j e o X X . . . . X . 1 6 I ..D.D.D.D.D.D.L.P.I.P.I.",
"E.E.E.E.~.1X1X1X4X1Xm.;.} s o X o . . X . o o X . 5.5.i.| [ l j 7 7 8 8 8 8 p 7 7 p p 8 8 8 8 8 7 e x Y  .b e w X X .   . X . X . J A.S.S.D.D.D.D.D.D.L.L.I.I.I.",
"E.E.E.E.XXN.N.N.N.v.x.x.u.s o X X . X X X o . X X @.e.| | o.l e # O o . X X X X . X X X o . X o % 7 f Y b k 8 < . . . . . X . X o A.K.D.F.D.D.D.D.D.F.L.I.I.K.I.",
"E.E.E.E.^.XXXXXXXX.X.X.X.XK K J > . . X X X X X X R ^ ' T Y d 5 # o X X X X X X X X X X X X X o % 7 f f f p 2 % . . . .   O - H H A.D.D.D.D.D.D.D.D.D.L.I.I.I.I.",
"W.W.'.W.].+X+X#X+XOXQ.'.'.'.#X%XJ . . X X X . X . i I I Y f p % # X X X X X X X X X X X o . . o 2 6 x f 0 8 % $   . . . . & H I.L.K.D.K.D.D.P.K.D.L.F.L.I.I.I.P.",
"[.].[.].W.R.I.R.E.E.I.R.R.R.[.%XL & 1 & 1 O . . . r r f d a 3 & 5 5 6 6 w w 6 6 6 6 w w w w 6 6 6 5 z 0 3 2 & #   & 1 1 , r T K.F.I.P.P.P.P.R.R.E.E.I.I.I.I.I.I.",
"[.].[.[.W.I.P.I.P.P.I.I.P.L.].%X_.@.w.q.jXw.w . . 6 9 9 0 4 2 $ < 5 6 6 9 6 6 w w 6 6 9 6 6 6 5 3 3 6 4 ; ; $ # % <.q.jXq.zX3XD.D.I.P.I.P.I.R.E.E.E.W.I.K.I.I.P.",
"].[.'.[.E.I.I.I.I.P.P.I.I.I.].%X@X[.@X].^.^.D . . 6 6 4 3 ; = = - 2 2 2 3 3 6 4 9 3 3 3 3 < 2 2 , , < : ; ; # # > G././.J.G.J.G.K.I.P.P.I.I.R.W.E.E.E.I.I.I.P.P.",
"[.].[.].W.I.I.I.I.P.I.P.I.I.[.%X%X%X=X$X'.[.D     6 0 4 4 3 5 6 6 7 6 9 9 9 9 r 9 9 9 9 9 0 0 6 9 6 3 2 ; ; = # > I.K.P.D.F.D.D.K.I.I.P.I.I.R.W.E.E.E.P.K.I.P.I.",
"].W.W.W.'.R.R.E.W.W.'.'.W.W.[.[.%X[.=X[.'.'.S.J J / / H T / z 7 9 7 9 9 9 9 9 9 9 9 9 9 9 9 9 9 I T / F F F 0 0 K Y.E.E.L.L.L.Y.L.R.W.E.W.E.Q.W.W.W.W.I.P.P.P.P.",
"I.R.I.R.E.].].'.'.[.[.[.[.=X[.[.[.[.[.'.E.I.I.R.'.$X%X[.$XOXH 2 , 2 - 2 2 2 3 - ; 2 2 2 ; , ; 2 F R.R.R.L.I.W.+X#X#X#X+XOXOXQ.OXOX#X%X$X#X#X[.].].].].I.P.L.P.P.",
"L.L.L.L.E.].[.[.[.[.=X%X=X=X%X[.[.[.[.W.I.I.I.P.'.%X=X%X%X#XJ 2 - , 2 , , , , , , , 2 , = 2 2 < H L.I.P.P.L.R.%X%X%X%X#X+X].].].[.%X%X%X%X#X[.[.OX].[.P.P.L.L.L.",
"L.L.L.L.W.].[.'.[.=X=X=X[.=X[.[.[.[.'.W.I.I.I.I.].%X%X%X%X+X+X].].].W.L.L.L.P.I.I.I.L.P.I.I.P.P.P.L.L.P.P.I.E.#X%X%X%X#X+X].OXOX+X%X%X%X%X%X[.].OX].'.I.I.L.L.L.",
"I.I.L.L.W.].].].].%X%X%X%X%X+X[.[.[.[.W.I.I.I.R.'.%X%X%X%X#XOX[.OX[.E.I.L.L.L.I.L.I.L.I.P.I.P.I.P.I.L.L.L.I.E.#X%X%X%X#X[.[.].[.[.=X%X%X%X%X[.[.].].].I.L.L.L.P.",
"I.L.Y.I.Q.+X+X+X[.#X#X#X#X%X+X[.[.[.[.'.E.E.E.E.[.=X-X-X%X%X+X+X[.].W.I.I.L.L.L.L.I.I.I.I.P.I.P.I.I.I.I.I.I.W.+X%X%X#X#X#X+X[.+X#X=X=X-X%X=X+X+X+X].[.L.I.L.L.L.",
"W.E.E.I.].%X%X%X%X#X[.[.[.[.#X%X%X%X%X%X#X%X%X%X:X,X,X<X<X-X%X%X%X$XQ.E.L.L.I.L.I.I.I.I.P.I.I.I.I.I.R.E.E.W.W.].[.[.].#X#X%X%X%X=X,X<X<X<X,X%X%X%X%X%XI.I.L.L.L.",
"W.E.E.E.+X%X%X%X%X[.].[.].[.#X%X=X%X%X%X%X%X%X%X:X,X<X<X<X>X%X%X%X$X'.L.L.L.P.L.P.I.I.I.I.P.I.I.I.I.W.E.Y.E.W.].].[.].[.#X%X%X%X=X,X<X<X,X<X%X%X%X%X%XL.P.L.L.P.",
"E.E.E.E.].$X%X%X%X[.[.[.[.[.#X%X%X%X%X%X%X%X%X%X>X<X<X<X<X:X&X%X%X%X'.R.P.P.I.I.K.I.I.P.I.P.I.I.L.I.W.E.E.E.Q.].[.].[.[.%X%X%X%X-X,X<X<X<X<X%X%X%X%X$XL.L.L.L.P.",
"E.E.E.W.+X%X%X%X%X#X].[.[.[.#X%X%X%X=X%X%X%X%X%X>X,X<X<X<X>X&X%X%X%XQ.I.P.I.P.P.I.I.P.I.P.I.I.L.I.I.E.E.E.W.W.].[.].[.#X%X%X%X%X%X<X<X<X<X>X&X%X%X%X%XL.L.P.L.P.",
"R.E.E.E.].%X%X%X%X[.[.].[.[.#X%X%X%X%X=X=X%X=X=X;X,X<X<X<X;X%X$X%X#X].I.L.L.P.P.P.I.I.P.I.I.L.I.I.I.E.W.E.W.Q.].].[.[.[.#X%X%X%X&X,X<X,X,X<X%X%X%X%X$XL.L.L.L.E.",
"I.I.I.I.'.[.[.[.[.#X%X%X%X#X%X%X%X%X%X=X:X,X,X,X-X#X+X+X#X'.W.I.R.R.Y.R.Y.E.R.R.I.P.P.I.I.D.D.D.F.E.].].].].+X#X%X%X%X#X[.].[.#X#X=X=X=X=X%X+X].+X].+X'.Q.'.'.Q.",
"I.I.P.P.E.'.[.].[.$X%X%X%X%X%X%X%X=X%X=X,X<X<X<X%X+X].+X].W.I.L.P.I.R.E.E.W.E.R.I.I.I.I.L.D.D.D.D.I.OXOX].].+X%X%X%X%X#X[.[.[.].+X%X%X%X%X$XOX+X].].+X].OX].[.].",
"I.I.I.P.'.'.[.].[.%X%X%X%X%X%X%X%X%X%X=X<X<X<X<X&XOX+X].].W.I.I.I.I.R.R.E.E.E.R.I.I.L.L.L.D.D.D.D.L.].+X].+X[.%X%X%X%X#X[.[.[.[.+X$X%X%X%X%X[.[.].+X].OX].+X].+X",
"P.I.P.I.W.[.'.[.].%X%X%X%X%X#X%X%X%X%X:X,X<X<X<X&X+X].[.OXW.I.I.I.I.R.E.E.E.E.R.I.I.L.L.D.D.D.D.D.L.].].+X].+X%X%X%X%X#X[.[.[.[.+X%X%X%X%X#X+X'.[.].[.[.[.].OX].",
"I.P.I.P.W.[.[.[.[.[.%X$X%X%X%X%X%X%X=X:X<X<X,X,X&X].].].].W.R.I.I.I.R.W.E.W.W.R.I.I.L.L.Y.D.D.D.D.I.[.].[.].].%X%X%X%X%X[.].[.[.[.%X%X%X%X%X].[.[.[.].[.].+X].+X",
"P.I.P.I.I.P.P.I.P.'.].[.].[.#X%X%X%X%X%X%X%X%X%X].I.I.I.L.E.].+X[.[.#X%X%X%X%X+XW.W.E.W.I.F.D.D.D.L.L.I.L.I.I.OX].[.].[.%X%X%X%X%X%X%X%X=X%X[.].[.].[.].[.].].].",
"I.P.I.I.I.P.I.P.P.'.].[.].[.#X%X%X%X%X%X%X%X%X%X'.R.I.I.I.E.[.[.[.[.#X#X%X%X%X+XE.E.E.E.I.F.F.D.D.F.I.I.I.I.E.'.].].[.[.%X%X%X%X%X%X%X%X%X%X[.[.].[.].+X].+X].+X",
"P.I.P.I.I.I.P.I.P.'.].].[.].#X%X%X%X%X%X%X%X%X%XQ.E.I.I.L.W.].].].[.#X%X%X%X%X+X'.W.E.E.I.D.D.D.D.F.L.L.I.I.I.'.[.+X].+X%X%X%X%X%X%X%X%X%X#X[.[.[.[.[.].[.].].].",
"I.I.I.P.I.P.I.I.P.'.].[.[.[.#X%X%X%X%X%X%X%X%X%XQ.Y.I.L.L.E.'.+X].+X+X%X%X%X%X+XW.E.E.E.R.D.F.D.D.L.L.L.I.I.Y.[.[.].+X+X#X%X%X%X%X%X%X%X%X#X[.[.].[.].[.].+X].+X"
};
