/* XPM */
static char *texture_floor[] = {
/* columns rows colors chars-per-pixel */
"80 80 90 1 ",
"  c #629B00",
". c #659900",
"X c #669B00",
"o c #639C00",
"O c #659F00",
"+ c #689E00",
"@ c #63A300",
"# c #66A100",
"$ c #65A600",
"% c #6BA300",
"& c #68A400",
"* c #69A700",
"= c #6DA600",
"- c #66A800",
"; c #67A800",
": c #68AA00",
"> c #68AB00",
", c #6FA900",
"< c #6CAB00",
"1 c #69AC00",
"2 c #6AAE00",
"3 c #6FAF00",
"4 c #72AD00",
"5 c #72AE00",
"6 c #6FB000",
"7 c #6CB200",
"8 c #6DB300",
"9 c #6EB500",
"0 c #70B100",
"q c #76B300",
"w c #73B600",
"e c #77B500",
"r c #74B700",
"t c #71BA00",
"y c #74B800",
"u c #75B800",
"i c #72BC00",
"p c #77BC00",
"a c #78BE00",
"s c #7CBD00",
"d c #75C000",
"f c #76C300",
"g c #77C300",
"h c #79C000",
"j c #7BC300",
"k c #7EC000",
"l c #7CC300",
"z c #7DC600",
"x c #7AC800",
"c c #7FC800",
"v c #7CCB00",
"b c #7ECE00",
"n c #80C300",
"m c #81C400",
"M c #80CA00",
"N c #82CD00",
"B c #83CF00",
"V c #84D000",
"C c #85D200",
"Z c #82D500",
"A c #87D600",
"S c #88D700",
"D c #88D800",
"F c #8ADA00",
"G c #8ADB00",
"H c #8BDC00",
"J c #8DDE00",
"K c #90DB00",
"L c #90DC00",
"P c #8EE000",
"I c #8EE100",
"U c #8FE200",
"Y c #90E300",
"T c #95E300",
"R c #91E600",
"E c #92E700",
"W c #97E600",
"Q c #98E700",
"! c #93E800",
"~ c #95EB00",
"^ c #96ED00",
"/ c #98E800",
"( c #9BEC00",
") c #9CEE00",
"_ c #99F200",
"` c #9FF200",
"' c #9CF700",
"] c #A0F300",
"[ c #A1F500",
"{ c #A2F700",
/* pixels */
"****6wwww<****;:;1;yjccxu1;11jFFHFHHGGGVcxccjcczcrXX..%smMczczczNFFFHAczczjywwww",
"****6wwww<****;:1;1yjcccw11;;jAHFHDHGGHbcccccczczy....%szczczczccFFHFDcczczwwwww",
"****3wwrw<****;:;1;yjjcju1;11jDHHHHFHFPZccccxzczze..X.%mczczczczNFHFHDczzczwwwwr",
"****3wwrw<****;:1;1yccccw11;;hDHDHFHFHFCccjczczcmq..XX%szczczczcbDFHDDcccczwwwwr",
"6666uaahhuuruww66w669yyy1$+%X0ydffcNVCVVCCCVciyur5+*++%<444rzzczcVVVVbyywy95613:",
"wwwwazczzzzzzzpwwww711;># ..X#:1;>uzchcVDFHFb6;;;;***=*XXXX=sczczcczcd>>>;:*****",
"wwwwaczcczzczcprwwy11;;1#XX.X#$1;>ujcxcVDHHHc6;113$***%XX.X=lzczczccch1>>>;:****",
"wwwwhzczzcczczprwww711>>#XXXX#:$>>ujcMhVDFHHc61;;;****%X..X=lczczczcch1>;>1;****",
"wwwwhzczczzzzzpryww7>;;;XX..X#*;>;uzcccVDHDHN6;;:<****%X..X=sMzmcczczh11;;;;*:*:",
"NCNCMczczCAASAMhjhhp6ww6$X..X+*=;3666y6pbNbNhy0w01;;;*$*#X$5aMczjw909upiffpcMNzb",
"FFFFNzczcCFFHFNzmczhywww*XX.X+**:>;;>>>9zzxzhuwww0::::;::*:0hczch11166jcjjzFFFDD",
"JFFFCMzczSFHFHNczcchywww=XXXX+***>;;;>;9hczchywwu0::::;=**=4hzczh1;:;1jcccmHFFHH",
"FHFHCzczzAHFHFNczczhuwww=XXXXX****$:::;tfMzchuwww01;::;:**:3jczch1::;6zccccHHFHD",
"HFHFNzzczAFFFHbczzcpuwww<X..X*****::::;ydcczhuwww6;1:1;:**=3jcczd;::;1zzcjcHFHFH",
"^^^^JAACANCbNNCACACNjhhh6@X;@;6600azzjvccczccNNVNbcxxxdr0000000wwpfiipw6y6ubVbNN",
"[[['WFFFFNccczCFFFFCczzzy3;;;6wwrrMSFFHVccczNDFDDDFHFFCrwwr0<=::6zfjzh16161ccccc",
"[{{{^KFHHNzczcCFFFHCcczcy1;>>6wwwuzFHFHCcczcNDFHHHDHGGVayww6:***5hcczh1>>;1czzMz",
"{{{{WLHFFbczczAFFHFCccczy1>;;6wwwrMFSHFCczccNDHFHHGHHHbdwwy03$**0hczcj1>;11czMzm",
"{[{[/LFHFNzczcAFHHHZcxzcy1>;16wwwuzFJFFCcccxVDFHHDGGHDApwww0:***6zzcch1>;;1cMzcz",
"((((/WEE!ACNVNVVVVVcittyyyyyuhjzccFIEEQYJHHHFVCSVAGGHDAczzzp:=*<6bVNNNuuuuuddhph",
"JHJH^][`'!FFDDCcccci7111yjcjhbASFFW`[['[`']]TNcMcVFHFHDDADAc0:::9AFFFAzhjcjyyyyy",
"HHHH~'{[{IFFHHNcxcct1>>>ujcczCFFAH~'{{[{[{[[!MchxVHHHFGGHHDN0:::wDFFFFMczczwwwww",
"HFHF^'{{{IHHHDNccxcy1;>;pcmzMCSFHJQ[{{{{{{[{ENmzcbHDFHHGFHFN0::1yDFHFAczczzwwwww",
"FHFF^'{{{IHHHHNczcxy71;1ujczzCFJFJQ[{{{{{{{{ENzzjVHHHDGGHDFC0:::wDHFFAcczczwwwww",
"paaaAW^~QHBBCNzppphy:*$:aBCCCL/((Q]'[{{'~~W~YCCCCBNCNCNzhhdfuppuhNCVVVCCCNChhhhh",
"1<<<cHFHHMmMccpyuuy6<$$$lSFHFQ[[[[{{[{[^PHHHKFFFFCMcMch66619hzzzzccccNAFFFFzMhMh",
"****jFFHFNzMczpwwww6::**lSFFHQ[{{{{{{[[(PHHHFFFFFSzczca3;>>6jzczczczccFFFFFzMxzc",
"****hFHFFbMzzcpywww3****zFFFH~[{{{{{{[[`HGGDFJFHFCczcza3;;>yjczczczxzbFFFJFzczcc",
"****lFJFFNccxcpywwr0****aFFHFQ[[{[{[{{{(HHHHHHFHFAhMcch3::10jzczczcczMFFFFFzccxc",
"****aNNCBCVVVVi7171<*##XlSHFJLIUEL!W///!HFHFDVVVBMuruuw<;;:0jczccNCVCSE/~/WCVVVV",
"****ucccmADDFDi>;>>%XXXXsSFHFCNmcMAFLLLIHHHHAbccza1111:$$;:0hzczcFFFFJ[[[[]FDDDD",
"****uzzccDFFHFp>;1;:XXXXsSFFJNzMmMCFHFHFDHFHVccmMa::::::**;6jczcNFFFFY'{{[[FHHHF",
"****yzzczAFHFFh;1;;%X. oaAFFHVczccCFFFHFHFHHZcczcp;;1>;1:*<5azMzNFFHDI[[[{[JFHFH",
"***:yjcczAHHFFp;;1;%XXXXsFFFFCcczcCFFFFHFHDHAczczp1;;;;;**:6hMcmcFHFHU[{{{[FHFHF",
"ruyuphhjhccccN5**$*$Xoo#aCSAAVNbNNCCAAACccmzzuppppppupu90000yppddAADDH'[{{[!EIE!",
"CCCCzpuuyw6663*XX+##$$;;pmbcbVADFANbzNbpy66533336pCCCANhahha96019cNcbV'[{[[]```]",
"FHFHzywww3$***+XX..X;;>>pzmzxVHFFFVczzzu<*******;uFHFHZcccch>>;>6jcxzN[[{{{{{{{{",
"HFHFcuwww;****+XX.X@;>;>rzzMcVFHFHZcMzMu<*******;uHFHFDcxcjh11;>6jcczC][{{{[{{{{",
"FJFHzuwww3**:*XXX X $;1;azMzcVDFHDVcccmu<*****::1uFHFHAcczjh1;1;7dcMmC][{[[[{{{{",
"CZNCh676300ru00uqqqw9y99rauupjdccxhpyuuyw0wr0q0u6zHFHFFVNCVcu9i9yuuuuzYTQTE(((((",
"zMccy1111pjjjjNCCCAbddhjy>666;9667;;:<<qhzllxhzhdNDHHFFFFADCcdjfa<<<<5cNNbNHJJJJ",
"Mzzcy>;>;dccccCFFFHCMcccy1;>;>;1;;;;***0lzzzcczzcbHFDHFHHFFAccccp<=**3lczccHFHFH",
"mzczy>>>:ihczcCFFFHCcxcjy1;>>>>;>;;;**:wzczMcjxccNFHHHFFFHFAcjcja<***3hzczcDHFHF",
"zczcy>1;1iMcczAFFHFCccccy>>;>;;1;;;;***6hmzzccjccNHFHFFFHFFAbcccp<***3lzzccHFHFF",
"ppppy9979zNNNNF~YEEFVNNNhy9935*$;$$$:$;wzzcccNNNNVACACAFGGGDVNNNz<***;uupypcccNc",
"6666yfffdCFAFS~[]]]^IFAFNfdfd5+XX@$;::;whzjcNDFDHVccccNFGGGGFFFDM<***:5<;3:w3566",
";>>;yjcxMSFHFJ^{[[[(JHFHVcmzM0XXX #;:::wjcccNHHDFAccczvDGGHHFHFDN<*********:::::",
"1;>;iccjhAHFFF([{{[~JFHFVczMz5o.X #$:::9fcjcNDFHFFhczcbDGGHDHFFFN<*********:::::",
";;1;yxcccAFFHF^'''{(JHHFVcxczqX.X $;;>;yhMzMCFJFFAzzccbAFHHDHFHFM<*:**=****:::::",
"7117pNVNNVADVAQ/(((QHFFHVccjzr%XX ;;>>;ubNNNSII~IINNNbCDHFHAbxxza*%X%%X%$%%:::::",
"wwwwcHHFHNjjzzCFGGGHHHFFVcccm6X.  #;>;:iZFFFI'{{[(JFHFDHFHDN61;>* ..X....XX*::::",
"wwwwbDDHHbcczzSFGGGHHFFHVccjz5XX. $;>>:aZFFFE[{{{(HFFHHFHFFNw;1;* ..X....XX;::::",
"wwwwcHHFFNzczmCFDHHDDHFHVcjccr#X. X;:::iZHFHE]][{(FHFHFHHFFN6>;1* X....X..X:::::",
"wwwwcFFHHNczMzAFHFHHHFHFVcccz5XX. #;:::rZFHFE[[[{(HHFFHFFFFN6>1;* X ...X..X:::::",
"uupuzNNNNhahhaCDFHFHDADAchhdh5XXo+#1::*9xNNNJ(('[WAAADZNNNMl3::*:#o#XX$#X*#:::::",
"zzzzy977693366cFHFFVbcccp6665;::*$#XXXX$6777aJLIIScccchw363:XXXXX;;;;;760w5:::::",
"czczy>;>;;>>;1xFFHFZczccw1;1::$***#XX XX;>;;iZHFFCmzzza<***%XXX.X<;::19wwwy;;11;",
"zczcw11;>;;>>;xFFFHVcccju11;:$*:**#XXXX#;>>>iZFFFAczcza<***#XX..#:::119wwww>1;;:",
"zzzzu111>;>;1>bFFFFAcczcy1>1::;1**#XXXXX;;1;iDDFFCzzzza3:<**XXXX#1>;1>9ywwu;;1;:",
"hpppi66wwwityycAAAANhhphyy9yww6653*XoX@#;1;19NNNNcaaaapww0w0====>9tyuyppppp;;;;;",
"151<uhzhhNVZZANccbcpw117jCACAcjjla0*$%$*;1>;160060<3<3wNCCCNmmammCAACCzzjjj;$*;;",
"****wzzccAHHHFVczccy>1;;xFFFHVcczzr<;:*=;;;1;:::::****0AFHFAMzzzcFFFFDzccjc;****",
"****yzczcAHHDHbcczxy1>>>jFHFFVMzzzr<****;11;:;:::<****wCHFFAMzmmNFHFHDczmzj:****",
"****uczzzADHHHNczcci1>11fDFHHVmMmzr<***<;1;1;1:::****:0AFHFAMczcbFFFFFcczzz:****",
"<<<<aMMNcAAAAANNccNdywywbIYEJSNNbzr::**=*::::::::<:<<<rNAAACNNbNCIYYJJNNNmc::***",
"r0w0zFFFFNccccCFHFFFSFDD!`[[[EFFFSh5***::::::::::1ww0ruzcccNAFFFJ[[[[_FFFFD;****",
"rwwwcFFFHbzcjcCFHHHFFFSH~[{{[/JFHSh:***=*::::::::1uw0ruzzczbAFFHY][{]]JFHFF*****",
"rwwwcSJFFNczczAFHHDHFHHH/[{{{/LFFHh3****$::::::::1rrrrazczcNFFHFY][{[]JFFFS:****",
"wwwybFFFFNzcccAFFHGGGGHH('[[{/LFHFa1**:;::::::::11wrrrrzzzcNDHHFL[[[[`JFFFD:***$",
"6w9yxFFFFNccccVFHFHUPHJJ/_[][QFSACh3<=:;:1::::=1:1rurrazcccNDAFFI'[''`FFFHA;<<<3",
"1111pMzbbCDDDADHDGGU_``'YCNNChr699000066::::*XXX+5zllzMCFAFCbccNCJIJIHNzNcchaadh",
";1;;uzzzzAFHDHFHHHGU'[[{KMzMzu1;;16wrrw711::*XXXX<mzzzMFFFFAMzczNFHFHDmMzcczmzcz",
"1;1;yxczcAFFHFHHFHFE[{{{LMMzzu11>199www7::::*X...<zzzcbSFFHAbczcMSFFFDcccczczczc",
";1;1yzxczAFHFFDHHFFE'{{[LMzzmr1:>17wwww71:::XX...:zzccMFFHFAccczNFFHHAcjcxczczcz",
"1;1;uzzzzCFDFFHFFHJE[[''Lzzzzu0:;17ywuu611:::X...<zzzzcFFFFAbjccbDHFFDcczczczczc",
";1;11;;1;fjczcCFHFFFFFFHl5:::rlMccVFFFHNurru1X...%::;;6zzczMDHFHHFFHHDcjczczczcz",
"1;1;1;1;;pzczcCFFFHFHFHFh61;:rzMccVDFHFNuwww3+X..+::::6dzzzbFFHFHFHFHDcczczczczc",
";1;1;1;1;fzzczCFHFHFHDFHh6;1:rjmxcVFHFHMprww:XX.X+::::0lzccNFFHDFHFHHAccczczczcz",
"1;1;1;1;;fjczcCFDHFHFHFHh6>;>ujcccVDFFHNuwww3XXo.%::::5zczcNAHFHHDHFDDcczczczczc",
";1;1;1;1>izcczAFHFHFHFHHh3>;>ujcccVDFHFNpwww<X o.+::::3azczNDFHFFHHFHDcjczczczcz"
};
