/* XPM */
static char *texture_chara_left[] = {
/* columns rows colors chars-per-pixel */
"80 80 225 2 ",
"   c #000000",
".  c #060807",
"X  c #150909",
"o  c #1A0D0C",
"O  c #130707",
"+  c #1C1B1D",
"@  c #1C120B",
"#  c #241C0C",
"$  c #2F1516",
"%  c #391919",
"&  c #182600",
"*  c #1C2C01",
"=  c #162300",
"-  c #1F3000",
";  c #29240C",
":  c #203201",
">  c #293703",
",  c #34271C",
"<  c #2E3715",
"1  c #111E24",
"2  c #0E1C23",
"3  c #132328",
"4  c #0F2127",
"5  c #29292B",
"6  c #262628",
"7  c #372926",
"8  c #27322B",
"9  c #2B1F21",
"0  c #4D1D1E",
"q  c #511F1F",
"w  c #432927",
"e  c #582727",
"r  c #4B3329",
"t  c #5D3131",
"y  c #562E31",
"u  c #662627",
"i  c #692929",
"p  c #682728",
"a  c #7C2D2F",
"s  c #7D2F31",
"d  c #7E3435",
"f  c #753C3C",
"g  c #793B39",
"h  c #6C352D",
"j  c #473917",
"k  c #364609",
"l  c #355400",
"z  c #2C4700",
"x  c #384229",
"c  c #514816",
"v  c #69451F",
"b  c #6D4C1F",
"n  c #67441E",
"m  c #70511F",
"M  c #6B581A",
"N  c #4D7700",
"B  c #4C7207",
"V  c #6C7112",
"C  c #784528",
"Z  c #784439",
"A  c #765931",
"S  c #6F5025",
"D  c #79632C",
"F  c #32376E",
"G  c #773E40",
"H  c #693D4C",
"J  c #423567",
"K  c #335C68",
"L  c #386A7E",
"P  c #3B676E",
"I  c #47464B",
"U  c #794141",
"Y  c #78484B",
"T  c #7A4F50",
"R  c #5D517E",
"E  c #705665",
"W  c #893537",
"Q  c #9D3B3A",
"!  c #AD3A3E",
"~  c #83463D",
"^  c #87543E",
"/  c #8D772A",
"(  c #91772C",
")  c #8E6933",
"_  c #A67A3A",
"`  c #AD3B41",
"'  c #B13D42",
"]  c #9F3B40",
"[  c #C13E44",
"{  c #864A45",
"}  c #9D494D",
"|  c #9B464C",
" . c #8C544C",
".. c #885455",
"X. c #905751",
"o. c #935C54",
"O. c #92555C",
"+. c #955750",
"@. c #B45255",
"#. c #BD555D",
"$. c #B0484C",
"%. c #966445",
"&. c #966A52",
"*. c #A86E54",
"=. c #BE5B66",
"-. c #BB5A66",
";. c #AB7D69",
":. c #B0726C",
">. c #865A61",
",. c #C14147",
"<. c #C14248",
"1. c #C3484F",
"2. c #C8585D",
"3. c #C7565B",
"4. c #C54D53",
"5. c #CA5E63",
"6. c #C05E69",
"7. c #CE6066",
"8. c #C9666E",
"9. c #D26F72",
"0. c #538201",
"q. c #588A01",
"w. c #5C9500",
"e. c #4F8200",
"r. c #6A8A0A",
"t. c #649A00",
"y. c #699605",
"u. c #75990A",
"i. c #728811",
"p. c #66A500",
"a. c #69A600",
"s. c #67A900",
"d. c #69AB00",
"f. c #7BA30A",
"g. c #79A906",
"h. c #6EB300",
"j. c #6FB800",
"k. c #73B500",
"l. c #74BA00",
"z. c #79BE00",
"x. c #7CB304",
"c. c #7F8026",
"v. c #7EC600",
"b. c #7FC900",
"n. c #76C400",
"m. c #85B40B",
"M. c #86B50F",
"N. c #AA8539",
"B. c #BC9C39",
"V. c #B79837",
"C. c #B28A3C",
"Z. c #8F9B27",
"A. c #C09E3A",
"S. c #C7A73F",
"D. c #81CC00",
"F. c #87C109",
"G. c #85D300",
"H. c #88D600",
"J. c #8ADB00",
"K. c #91DC00",
"L. c #95CB0C",
"P. c #8EE100",
"I. c #93E500",
"U. c #95ED00",
"Y. c #9BEB00",
"T. c #98E601",
"R. c #9DF400",
"E. c #A2F600",
"W. c #A3F800",
"Q. c #B98755",
"!. c #B78E45",
"~. c #B5846E",
"^. c #BEA644",
"/. c #C7AA45",
"(. c #DCB752",
"). c #C98E7A",
"_. c #C58A77",
"`. c #C8977D",
"'. c #D19A77",
"]. c #D8B251",
"[. c #EACA51",
"{. c #FADA59",
"}. c #E9C952",
"|. c #FFE15B",
" X c #386C81",
".X c #44788D",
"XX c #577783",
"oX c #575489",
"OX c #9D798B",
"+X c #D07C84",
"@X c #6B8F9F",
"#X c #66838D",
"$X c #488CA6",
"%X c #5498B2",
"&X c #729AA9",
"*X c #5DA2BC",
"=X c #BD9D90",
"-X c #B28D8F",
";X c #9692AB",
":X c #9291B2",
">X c #B498B2",
",X c #A991AA",
"<X c #A394AB",
"1X c #DFA48A",
"2X c #DBA88A",
"3X c #C1A293",
"4X c #E2A68B",
"5X c #E5AA8E",
"6X c #E7AD90",
"7X c #EDB494",
"8X c #EFB993",
"9X c #C8A19A",
"0X c #F4C29E",
"qX c #FCCCA4",
"wX c #F8C6A1",
"eX c #FFD0A8",
"rX c #AFB3D4",
"tX c #B1B2D3",
"yX c #BDBFDC",
"uX c #B1AACA",
"iX c #CBBBC8",
"pX c #E1C6D4",
"aX c #EAECFC",
"sX c #DED1E2",
"dX c #BDC0DC",
/* pixels */
"a.a.a.a.d.l.k.k.k.d.a.a.a.a.d.d.d.s.s.k.v.b.b.b.k.d.s.s.s.v.J.H.J.J.J.J.J.H.J.G.D.v.v.v.v.v.b.b.D.x.t.t.t.t.a.m.b.b.v.v.v.v.v.v.D.J.J.J.J.H.v.v.v.D.v.h.k.l.k.k.",
"a.a.a.a.k.k.k.k.l.d.a.a.a.a.s.d.s.d.s.k.v.v.b.F.u.r.y.r.r.u.m.m.m.m.m.m.m.m.m.g.f.g.f.f.f.f.f.f.f.u.r.V V V i.m.n.v.v.v.D.v.v.v.D.J.J.J.J.J.v.v.v.v.D.k.k.k.k.k.",
"a.a.a.a.k.k.k.k.x.d.a.a.a.a.s.a.d.s.d.k.v.v.v.g.M n v v b b m M b m m m m m m S m b b M b b b b b v n n n n n V g.D.v.v.v.v.v.D.D.J.J.J.J.H.D.v.v.v.z.k.k.k.k.k.",
"a.a.a.a.d.k.k.k.k.d.a.a.a.s.s.s.s.d.s.k.v.b.b.f.b i i i p p p i p p p p p p p p p p p i p p p p p u u u p p u v f.D.D.v.v.v.v.v.D.J.J.J.J.J.D.D.D.D.D.k.k.l.k.k.",
"h.h.d.k.k.z.z.z.z.l.k.l.l.l.k.h.k.k.h.k.h.k.l.u.v u u u u u u u u u u u p u u u u u u u u u u u u u u u u u u n u.d.k.k.v.b.v.b.D.D.G.D.G.D.h.l.k.k.j.d.h.d.d.k.",
"l.k.l.k.z.D.D.b.D.v.v.v.v.v.l.k.k.k.k.d.y.r.y.V C d a a d s d d d d d d W d d d d W d d g d d g W d d g d a W ~ V r.V r.m.b.v.v.v.v.v.v.v.v.s.s.a.a.s.a.a.d.a.a.",
"k.k.k.k.z.b.v.b.v.v.v.b.b.b.l.k.k.k.k.y.M n n C Q $.! $.$.@.@.@.@.@.@.@.@.@.@.@.@.@.@.@.@.@.@.@.@.@.@.$.$.! ` ~ a n v M g.b.b.v.v.b.v.v.v.v.s.s.a.s.d.a.a.a.a.a.",
"k.k.k.k.z.v.v.v.v.v.v.b.v.b.z.x.k.k.k.y.n i u a ! <.,.1.2.7.7.7.7.7.5.7.5.7.7.7.7.5.5.7.5.7.5.5.7.7.7.3.<.,.<.' a u i v u.b.b.v.v.b.v.v.v.n.d.s.s.a.s.a.a.d.a.a.",
"k.k.k.k.l.v.D.v.v.v.v.v.v.v.l.k.k.k.l.r.v p u a ' [ [ [ 3.5.5.5.7.5.5.5.5.5.5.5.5.5.5.5.5.5.5.5.7.7.7.2.1.,.$.! a u u b u.b.v.v.v.D.v.D.v.v.s.s.s.s.a.a.p.p.p.a.",
"D.G.G.G.D.v.v.v.v.G.H.H.H.H.D.l.f.u.f.i.C s W W ' 4.4.4.2.5.5.5.5.5.5.5.5.5.5.5.5.5.5.5.5.5.5.2.5.2.7.2.4.1.1.$.a u u v f.b.v.b.n.k.k.h.h.h.z.z.l.n.l.D.D.D.D.G.",
"H.K.J.J.D.D.v.v.v.H.J.J.J.J.D.g.V v b C Q ' ! $.3.6.3.2.5.5.5.5.7.7.5.5.5.5.5.5.5.5.5.5.5.5.5.5.5.5.2.5.3.2.3.$.s u i b f.v.v.b.n.s.s.s.a.h.v.v.b.b.v.J.J.J.J.J.",
"J.J.J.J.D.v.v.v.v.H.J.J.J.J.D.f.b p u a ' <.<.1.3.7.5.5.5.5.5.5.=.2.5.5.5.5.5.5.5.5.5.5.5.5.5.5.5.5.7.7.2.7.7.@.d u u b u.b.v.b.v.d.s.d.a.d.v.v.v.v.v.J.J.J.J.J.",
"J.J.J.J.D.D.D.D.v.H.J.H.J.J.D.m.S p p a ' [ [ [ 3.7.7.7.2.5.5.5.5.5.5.5.5.5.5.5.5.5.5.5.5.5.5.5.5.2.7.=.7.5.7.@.d u u b g.z.D.v.z.d.a.s.d.d.v.b.b.b.v.J.J.J.J.J.",
"J.J.J.J.D.D.v.z.v.H.K.G.F.m.f.i.v p p W -.8.8.7.7.6.5.2.5.5.5.5.5.5.5.5.5.5.5.5.5.5.#.5.5.5.5.5.5.5.5.5.7.2.5.@.W a a C i.m.f.f.z.s.s.s.s.d.v.b.b.b.b.J.J.J.J.J.",
"U.U.U.U.J.H.H.G.G.D.D.m.V b b C i p u { >XpXpXiX+X5.5.5.5.5.5.5.5.5.5.5.5.5.5.5.5.5.5.5.5.5.5.5.5.5.5.5.7.7.7.3.$.! ' Q C b v M u.n.n.l.n.z.k.k.k.k.k.G.D.D.D.D.",
"W.W.W.W.T.J.J.J.J.D.D.u.S p u u i u u O.iXaXaXpX+X2.5.5.5.5.5.5.5.5.5.2.5.5.5.5.5.5.5.5.5.5.5.5.5.5.5.5.7.2.7.2.1.<.<.` a p p v r.v.n.n.v.z.a.d.d.d.s.b.b.v.D.b.",
"E.E.E.W.T.K.J.J.J.G.v.f.b i i i i i u ..iXaXaXpX+X3.2.7.7.6.5.5.5.5.5.5.5.5.5.5.5.5.5.5.5.5.5.5.5.5.5.5.5.5.5.2.1.$.<.' W u u n u.v.v.v.v.v.s.s.d.s.s.b.b.v.v.v.",
"E.W.E.W.Y.J.J.J.d.t.w.r.M S S h i i u ..iXaXaXpX+X1.3.2.2.2.5.5.5.5.5.5.5.5.5.5.5.5.5.5.5.5.5.5.5.5.5.5.2.2.2.3.<.,.<.! a u p n r.v.v.v.v.z.d.a.s.d.s.D.v.v.b.v.",
"W.E.W.W.T.J.J.J.- - * k 6 7 7 w u p u ..iXaXaXiX+X[ 1.4.2.7.7.7.5.5.5.5.5.5.5.5.5.5.5.5.5.5.5.5.5.5.5.3.4.1.1.1.<.<.<.' a u p v r.v.v.b.v.v.a.s.s.s.s.b.v.b.v.b.",
"Y.Y.Y.Y.Y.T.I.I.    . * 1 6 5 7 e u u ..iXaXaXpX+X[ [ 1.2.7.6.2.5.5.5.5.5.5.5.5.5.5.5.5.5.5.5.5.5.5.5.3.1.,.,.<.<.<.<.' a u p v u.D.G.D.D.D.l.l.l.k.l.v.z.n.z.z.",
"J.P.J.J.U.E.E.E.      ; 6 5 5 5 e u u ..iXaXaXpX6.[ [ 1.3.7.6.7.5.5.5.5.5.5.5.5.5.5.5.5.5.5.5.5.5.5.5.2.1.,.<.,.,.<.<.` a u i v r.J.J.J.J.H.v.v.v.v.v.k.l.k.l.l.",
"J.J.J.J.U.R.E.E.      : 1 5 5 7 i a i O.iXsXsXiX+X[ [ 1.4.3.3.6.3.3.3.5.3.5.5.3.3.5.3.3.3.5.5.3.3.2.3.3.1.,.<.<.<.<.1.` a u i v u.J.J.J.J.H.v.v.v.v.b.k.k.k.k.k.",
"J.J.J.J.U.R.E.E.      ; + 5 5 w W ` ` -.>XyXdXiX6.[ 1.[ 1.1.1.1.1.4.1.1.4.4.1.4.1.4.$.1.4.4.1.4.@.1.1.1.<.<.<.<.<.<.<.` a p p v y.J.J.J.J.J.v.v.v.v.v.h.k.k.k.k.",
"J.P.J.P.U.R.E.W.      ; + 5 5 y ` [ [ 6.>XtXtX,X6.[ [ 1.[ [ [ <.[ [ [ ' [ [ [ [ [ [ [ [ [ [ [ [ ,.,.,.,.,.<.,.<.<.<.<.! a p u v u.J.J.J.J.H.v.v.v.v.v.k.k.k.k.k.",
"z.z.z.l.H.Y.T.T.      * + 5 5 y ] [ [ =.>XyXrXuX6.[ [ [ <.<.[ <.[ [ [ 1.' [ 1.[ [ [ 1.1.[ 1.[ 1.<.<.<.<.<.<.<.<.<.<.[ ! W u u b u.b.G.G.G.G.G.G.G.G.G.z.z.z.n.z.",
"d.d.d.a.v.J.J.J.      * + 5 5 y O.=.=.=.OX,X>XOX3.[ [ 1.<.<.<.<.[ 1.[ 1.1.[ 1.[ 1.[ [ [ [ [ [ 1.<.<.[ <.<.<.<.' $.! ! Q u 0 q c f.b.b.b.v.b.J.J.H.J.J.n.v.v.v.v.",
"a.a.a.a.v.J.J.J.      ; 1 5 5 I OX>X>X,X+X#.=.#.4.[ [ 1.<.<.<.<.1.1.[ [ [ [ [ [ [ 1.[ $.1.1.' [ <.<.<.<.<.<.<.' W a a u $ X X > t.b.b.v.v.b.J.J.J.J.J.v.v.b.v.v.",
"a.a.a.a.v.J.J.J.    . * 9 5 5 I :XtXtX>X6.[ [ [ [ [ 1.[ <.<.<.<.[ [ [ 1.1.1.[ 1.[ 1.[ <.[ [ 1.[ <.<.<.<.<.<.<.` a u u 0 X     ; t.v.v.v.v.b.J.J.J.J.J.v.b.v.v.v.",
"a.a.a.s.v.J.J.J.      * 1 5 5 I :XtXtX>X6.[ [ [ [ [ [ [ [ [ <.<.1.[ [ [ [ [ 1.' <.<.[ <.<.<.[ 1.<.<.<.<.<.<.<.` W p p 0 X     : w.b.b.v.v.b.J.J.J.J.J.n.v.v.v.v.",
"a.a.a.a.z.G.G.D.- - - k + + 1 I ;XtXrX>X+X=.-.-.-.+X=.+X1.<.[ <.' [ 1.1.[ 1.1.[ <.<.1.[ <.<.<.' ' ` ` ' ` ` ' Q a i i e o     : t.G.G.G.G.H.I.T.Y.T.Y.D.G.D.G.G.",
"a.a.a.a.l.v.D.v.t.p.a.q.. .   5 ;XrXrXuX>X,X>X>XOX>X>XOX=.[ [ <.4.[ 1.[ [ [ [ 1.1.[ <.<.<.<.[ ' W a s s a a a d f f g t o     : w.J.J.J.J.J.E.E.E.E.E.H.J.J.H.J.",
"a.a.a.a.l.v.v.v.v.H.J.d.:     5 XXiXtXtXrXrXrXrXrXrXrX>X6.[ <.<.[ [ [ [ 1.1.[ [ [ <.<.[ 1.[ [ ` s u u u u u u i f f U t o     * t.J.J.J.J.P.E.W.E.E.E.J.J.J.J.J.",
"a.a.a.a.k.v.D.v.v.H.J.p.-     5 :XyXrXrXtXyXtXtXtXtXtX>X6.[ <.[ 4.[ [ [ [ [ [ [ <.<.<.<.<.<.<.` s p p p p p p h G G G t o     : t.P.J.J.J.P.W.W.W.W.W.J.J.J.J.J.",
"a.s.a.p.k.v.v.v.v.J.J.k.l * * x OX:X>X>X:X:X:X:X<X<X<XOX@.` ' ` ' ' ` ` ' ' ' ' ` ` ` ` ` ` ` Q s i h i i i i h f G G t o     : t.J.J.J.J.P.R.W.W.R.W.J.J.J.H.J.",
"k.k.x.l.l.v.n.v.n.F.b.n.d.t.q.V T E >.E oXoXoXoXE G Y H d a a a G a a a a a G s a a a a s a a d f f G f f f f f G U U t o     * w.G.H.H.G.P.R.W.W.E.R.P.P.I.P.I.",
"G.G.G.G.v.k.l.k.l.h.k.d.h.h.p.i.A U W H J F J J y i u u u u u u u p u p p u p p u p p p p p p i f G G G U U U U G G { t o     & q.b.b.b.b.b.R.W.E.E.W.E.E.R.E.E.",
"J.J.J.J.v.k.k.k.k.d.a.a.p.a.y.i.A G U H J F F J y u u u i i i p u u u u u i p u p p p p u u u t f f G f G U G U U U U t o     = q.v.v.v.D.D.E.E.W.E.E.W.E.W.W.W.",
"J.J.J.P.v.k.l.k.l.d.a.a.p.p.a.i.S U G Y E R oXR ..W ~ G e q q u d { g { W G { G C s a C ~ { ^ {  .X.o. .U G U Z h t t r < & = z q.v.b.v.v.D.E.W.W.E.W.W.E.E.W.W.",
"J.J.J.J.v.l.k.k.k.a.a.a.p.s.t.i.A U G ..:.-X-X_.-X~.+Xo.7 O O , &._._._.).~.9.~.*.) ) *.'.2X2X2X).).).:.X.G U t 7 o @ ; B 0.e.q.s.v.D.D.v.D.E.W.W.W.W.W.W.W.W.W.",
"H.G.G.H.z.k.h.d.h.k.k.k.k.k.h.u.A U f ..).5X4X4X5X4X5X~.,     7 ;.6X4X4X4X5X5X'.Q._ _ Q.8XqXqX0X6X4X5X).X.f U t o     * q.j.h.h.h.x.k.l.l.z.T.K.I.I.P.Y.Y.Y.Y.Y.",
"b.b.v.D.k.d.d.h.s.n.v.n.v.n.G.M.A U U ..`.2X4X4X2X2X5X~.9     7 ;.5X1X1X1X1X1X'.*._ _ Q.6XqXqX0X6X1X6X).X.f { t o     : t.z.n.n.z.d.d.d.a.k.D.D.D.D.D.J.P.J.J.J.",
"v.v.v.v.k.a.s.s.s.l.v.v.v.F.J.M.c.D D %.~._.).`.2X6X7X~.r o o r ~.7X6X6X4X1X1X1XQ.Q.!._.8XqXqX0X6X1X4X~.U t t r < - : l a.v.v.D.z.d.a.a.a.g.z.v.v.v.D.J.J.J.J.J.",
"v.v.b.D.l.s.s.s.s.n.v.v.b.v.G.G.F.M.M.Z.%. . .:.2XwXwX2XT y y  .3XwX0X7X5X1X1X1X'.'.'.1X8XqXqX8X5X1X4X~.r @ # ; q.d.d.h.l.v.v.D.n.d.a.d.a.d.D.v.v.v.v.J.J.J.J.J.",
"b.b.b.b.l.s.s.a.s.l.v.v.v.v.G.J.J.J.J.M.D Z f o.2XqXeX2X&.f f &.4XqXqXwX6X1X1X1X4X4X4X5X0XqXqXwX5X1X4X;.7     : d.J.J.H.D.v.v.v.m.d.a.a.a.d.D.v.v.D.D.P.J.J.J.J.",
"z.z.z.n.j.h.h.h.h.v.b.G.G.D.J.T.I.I.U.M.A U U o.2XeXeX2Xo.f f O.2XqXqXwX5X1X1X1X4X1X1X5X0XeXqXwX6X4X4X:.,     : h.J.J.H.D.D.D.D.D.t.a.a.a.d.l.l.k.l.z.D.b.D.D.D.",
"d.h.d.d.l.n.n.n.n.H.H.J.J.H.U.E.R.R.E.L.c.D D &.`.2X6X`.*.X.X.&.2XwXwX8X4X1X1X1X1X1X4X4X2X2X2X2X=X_.`.*.r # ; k r.d.a.k.D.J.J.J.G.a.a.a.a.a.d.d.d.a.a.h.h.h.d.k.",
"a.a.s.s.l.v.v.b.v.H.J.J.J.H.U.W.W.W.W.T.F.M.F.Z.&.o.O.*.;.=X_.1X4X6X6X4X4X1X1X1X1X4X1X`.:.o.o.o.X.X.X.%.( ( / D k - : l k.J.J.J.G.a.a.a.a.a.a.a.a.a.a.d.d.s.s.s.",
"d.a.s.s.j.v.b.v.v.H.J.J.J.J.U.W.R.W.R.U.P.J.P.F.D G f } ).4X4X4X4X1X1X1X1X1X1X1X1X1X4X_. .f Z G f f G ^ N.B.B.( ;     : a.J.J.J.G.a.d.a.a.d.a.d.a.a.a.d.s.d.d.d.",
"d.s.s.s.l.v.v.v.v.H.J.J.J.J.U.R.W.W.W.U.J.J.J.M.D U G o.`.5X4X4X4X4X4X4X4X1X4X4X4X5X5X).X.f U Z G Z f ^ N.V.V./ #     : h.J.J.J.G.a.a.a.a.a.d.a.a.a.a.a.s.d.s.s.",
"h.d.h.d.v.D.D.D.D.G.G.H.H.G.T.U.Y.U.Y.T.J.J.K.M.D f f { :.).)._.)._.)._.~.~.;.;.;.;.;.*.{ f f Z ~  .{ ) V.S.S.N.n < < c r.w.w.a.k.a.a.a.t.a.t.a.a.a.a.d.d.s.s.d.",
"k.l.k.k.D.J.J.J.J.D.v.v.v.v.G.J.J.J.J.J.J.J.J.m.S i i g { X.X.X.X.X.o.Y r 6 7 7 7 7 , w t i i d _ N.N.!.(.[.}.}./.^.^.Z.c & = z q.t.t.t.t.y.t.t.t.t.y.d.s.d.s.d.",
"k.k.k.k.D.J.J.J.J.D.v.v.v.v.G.J.J.J.J.J.J.J.J.m.m p i i f G Z U Z f f y o             O q i p C _ B.B.S.[.{.{.{.|.|.|./.<     = N t.t.t.t.t.t.y.y.t.y.d.d.s.d.s.",
"k.k.k.k.D.H.J.J.J.D.D.D.v.v.G.J.J.J.J.J.J.J.H.m.m i u i f U U U Z G U t o             X q i i C N.V.V.S.[.{.{.{.{.{.|.^.<     * 0.t.t.t.t.t.t.t.t.t.t.d.d.s.s.d.",
"k.k.k.k.D.J.J.J.J.D.z.D.v.D.G.J.J.J.J.J.J.J.J.m.b i u i t t t t t t t y % % $ $ $ $ $ % 0 q q h ( V.V.S.}.{.{.[.(.].(.!.;     * 0.w.t.t.t.y.t.t.t.t.t.d.s.d.d.s.",
"l.l.l.k.v.G.D.G.G.D.z.z.v.z.G.H.J.J.J.J.H.H.H.m.b i u e $ o o o o o o % G } } } } } } g % O O , ( B.V.S.}.{.{.(.!. .%.Z #     & 0.p.t.p.t.t.a.t.t.t.a.a.d.s.d.s.",
"v.v.v.D.k.d.h.d.d.a.d.h.d.d.D.J.J.J.J.H.b.b.b.f.b i i 0 o             % $.7.7.7.7.7.7.} $     ; ( A.V.S.}.{.{.].%.f G t o     & N a.s.a.a.d.h.k.k.k.x.a.s.d.s.d.",
"D.v.v.v.l.s.s.a.a.a.s.s.s.s.b.J.J.J.J.G.b.b.v.f.b i i q o             $ } 7.7.7.5.5.7.} $     ; / V.B.S.[.|.{.].%.G G y o     & N d.d.d.d.d.h.l.k.k.k.s.d.s.d.s.",
"v.v.b.v.l.s.a.a.d.d.d.s.d.s.n.J.J.J.J.G.b.b.v.f.c q q % X       O o X % } 7.5.7.5.5.7.} %     # ) N.N.C.].(.(./.%.Z  .n @     & N d.d.d.s.h.h.k.k.k.k.s.s.d.s.s.",
"v.v.v.v.l.s.a.s.s.s.d.s.d.s.D.J.J.J.J.H.b.v.v.t.; o o O .     O % 0 0 i @.7.5.5.5.7.7.} $     o j W h ~  .%.%.%.N.N.C.) #     & N d.d.a.s.d.j.k.k.k.l.s.d.s.s.d.",
"z.z.n.z.h.k.h.k.k.k.j.j.j.h.b.J.H.H.H.D.n.z.n.w.:             o e u p W @.5.5.5.5.5.7.} $     o 0 u u i f f f ^ N.B.B./ ;     & 0.j.j.l.j.h.z.l.l.z.z.s.s.s.s.s.",
"a.d.d.h.k.v.v.v.n.G.H.J.J.J.b.b.b.b.b.z.h.d.d.e.*             o q p u W @.7.7.7.7.7.7.} $     X q u u i f Z G { N.B.A.( ;     * t.G.H.H.H.G.v.v.v.v.v.p.s.s.s.s.",
"a.a.a.a.l.v.v.v.v.H.J.J.J.J.D.b.b.b.b.j.d.s.s.q.l :           O 0 q 0 h -.9.9.9.9.9.9.*.%     O 0 0 q u Z ^ { ) ) ( ( D k : & l a.J.J.J.J.H.v.v.v.v.v.s.a.a.a.a.",
"a.a.a.a.k.v.v.v.v.H.J.J.J.J.G.b.b.n.b.j.d.d.s.t.a.a.d.q.l * - & X X X r _.8X8X8X7X7X8X~.7     . O X O ; ) N.N.) j ; ; k 0.t.y.s.n.H.J.J.J.J.v.v.v.v.v.s.a.d.d.a.",
"a.a.a.a.l.b.b.v.v.G.J.P.J.J.b.v.v.b.b.n.d.s.a.s.v.J.J.d.-             , =XeXqXqXqXeXeX`.7           . ; / B.B./ ;     : t.v.v.v.D.J.J.J.J.J.v.v.v.v.v.p.a.a.a.a.",
"d.d.d.d.l.D.D.D.D.G.H.H.H.H.D.b.D.D.D.n.h.k.k.k.b.P.K.d.:             , `.eX0XqXqXqXeX`., .           ; ( A.A.( ;     * t.D.D.b.G.I.J.I.P.J.b.D.D.D.D.p.a.a.a.a.",
"k.k.k.k.D.K.J.H.J.D.v.v.b.v.G.J.J.J.J.J.J.J.J.J.Y.R.W.z.>     . + 1 4 I 3X0X0X0X0X0X0X`.I 3 3 + .     # M ( ( D k - & l k.J.J.J.K.E.E.E.E.R.J.J.H.J.J.p.a.a.a.a.",
"k.k.k.k.D.J.J.J.J.D.v.v.v.v.H.J.J.J.J.J.J.J.J.J.Y.E.E.z.>     1 K .X.X#X3X6X5X5X5X6X6X3X#X.X.XK 1     . # ; ; k 0.t.t.a.D.J.J.J.P.E.E.E.E.E.J.J.J.J.J.p.a.a.a.a.",
"k.k.k.k.D.H.J.J.J.D.v.D.v.v.G.J.J.J.J.J.J.J.J.J.Y.E.E.z.>     3 $X*X*X&X3X4X1X1X2X1X2X3X&X*X*X.X3             - t.v.v.D.J.J.J.J.P.E.E.E.E.R.P.J.J.J.J.p.a.a.a.a.",
"k.k.l.k.D.H.J.J.J.D.v.v.v.v.G.J.J.J.J.J.J.J.J.J.U.E.W.z.>     3 .X*X%X&X3X4X4X4X4X4X4X3X&X*X%X.X3             * t.v.v.D.J.J.J.J.P.E.E.E.E.E.J.J.J.J.J.p.a.a.a.a.",
"k.k.k.k.v.J.J.J.J.D.b.v.v.v.G.J.J.J.J.J.J.P.J.J.Y.R.E.n.>     3 .X%X%X&X-X=X=X=X=X=X=X=X#X.X$XP 8 * * & & * & l s.b.v.b.H.J.J.J.J.E.E.E.E.R.J.H.J.H.J.a.d.a.a.a.",
"s.s.s.d.l.D.D.b.b.G.J.H.H.J.J.J.J.J.J.P.R.R.E.E.K.D.b.t.-     3 L %X$X$X@X@X@X@X@X@X@XL 8 4 3 8 B 0.t.w.t.w.t.d.D.J.H.G.b.b.D.b.D.I.P.P.J.J.D.D.v.D.v.z.v.z.n.v.",
"d.s.a.s.j.v.v.v.v.H.J.J.J.J.J.J.J.J.J.I.E.W.E.W.K.D.b.t.-     4 L $X$X$X$X$X$X$X$X$X$XL 4 .   & N s.b.v.v.b.D.J.J.J.J.J.b.v.v.v.b.J.J.J.J.H.v.v.D.v.v.v.D.D.v.b.",
"s.d.s.s.j.b.v.v.v.H.J.J.J.J.J.J.J.J.J.I.E.E.W.W.K.D.v.t.&     1 L $X$X$X$X$X$X$X$X$X$XL 1     = N d.D.D.v.v.D.J.J.J.J.H.b.b.v.v.D.J.J.J.J.J.v.v.D.v.v.v.v.D.v.v.",
"d.s.d.s.l.b.b.v.v.H.J.J.J.J.J.J.J.J.J.U.E.W.W.W.K.D.D.a.l & & 8 K L L L L L L L L L L K < & = z N d.D.v.b.v.D.J.J.J.J.G.b.b.v.b.D.J.J.J.J.H.v.v.v.v.b.v.v.b.v.v.",
"d.s.s.s.l.v.b.b.v.H.J.J.J.J.J.J.J.J.H.P.E.E.W.W.K.D.D.l.s.w.q.B 8 2 4 4 3 4 4 4 3 4 4 8 B B N N y.a.D.v.v.b.D.H.J.J.J.H.b.v.v.v.D.J.J.J.J.H.v.b.v.v.v.b.v.v.v.D.",
"s.d.s.d.s.s.s.s.p.l.v.b.v.n.G.J.J.J.J.J.J.J.J.J.l.d.p.s.p.l.n.w.:       .             & q.t.y.t.t.t.s.p.s.a.d.n.v.v.v.D.J.J.J.J.J.J.J.J.J.J.b.v.v.D.v.v.v.v.v.v.",
"d.s.s.d.s.d.d.s.s.l.v.v.b.v.G.J.J.J.J.J.J.J.J.K.n.d.s.d.s.l.n.t.&                     & 0.t.t.t.t.t.d.a.d.a.h.v.v.v.v.D.J.J.J.J.J.J.J.J.J.H.b.v.v.v.v.v.v.v.b.v.",
"d.s.d.s.s.s.s.s.s.n.b.v.v.v.G.J.J.J.J.J.J.J.J.J.v.h.s.s.s.l.v.p.l & - : : : - - * * * z w.t.t.t.y.t.d.d.d.d.d.v.v.v.v.D.H.J.J.J.J.J.J.J.J.J.v.v.b.v.D.v.v.v.v.v.",
"s.d.s.d.h.s.s.d.s.j.b.b.v.v.G.J.J.J.J.J.J.J.J.J.z.d.s.d.s.x.n.l.a.t.p.a.d.d.d.t.q.q.q.t.a.t.t.t.t.t.d.d.d.s.h.n.v.v.v.D.J.J.J.J.J.J.J.J.J.J.v.v.v.v.v.v.b.D.v.v.",
"d.s.d.s.s.s.d.s.p.n.b.v.b.v.G.J.J.J.J.J.J.J.J.J.z.h.s.a.s.k.v.D.v.v.G.J.J.J.J.b.z.k.k.l.d.t.t.t.t.a.d.d.s.a.h.v.v.b.D.D.J.J.J.J.J.J.J.J.J.H.v.v.v.D.v.v.v.v.v.v."
};
