/* XPM */
static char *texture_chara_right[] = {
/* columns rows colors chars-per-pixel */
"80 80 228 2 ",
"   c #000000",
".  c #060807",
"X  c #1A0D0C",
"o  c #140708",
"O  c #1C1B1D",
"+  c #1F140F",
"@  c #2F1516",
"#  c #221711",
"$  c #391919",
"%  c #241D0B",
"&  c #182600",
"*  c #1C2C01",
"=  c #162300",
"-  c #1F3100",
";  c #29250C",
":  c #203301",
">  c #283803",
",  c #34271C",
"<  c #2D3616",
"1  c #111E25",
"2  c #0E1E23",
"3  c #132328",
"4  c #0F2127",
"5  c #29292B",
"6  c #262628",
"7  c #372925",
"8  c #29312E",
"9  c #2B1F21",
"0  c #4D1D1E",
"q  c #511F1F",
"w  c #462B26",
"e  c #582828",
"r  c #5D3131",
"t  c #51302F",
"y  c #662627",
"u  c #692929",
"i  c #682827",
"p  c #7C2E2F",
"a  c #7D2F31",
"s  c #7E3435",
"d  c #753C3C",
"f  c #793B39",
"g  c #6C362F",
"h  c #4C321A",
"j  c #385800",
"k  c #344508",
"l  c #334526",
"z  c #504B16",
"x  c #69451F",
"c  c #6D4C1F",
"v  c #67441E",
"b  c #70511F",
"n  c #6B581A",
"m  c #4D7502",
"M  c #527D01",
"N  c #406307",
"B  c #6C7212",
"V  c #7B4429",
"C  c #784439",
"Z  c #765B31",
"A  c #6F4E26",
"S  c #7A682B",
"D  c #32376E",
"F  c #773E40",
"G  c #683D4C",
"H  c #423567",
"J  c #335C68",
"K  c #386A7E",
"L  c #3C696E",
"P  c #47464B",
"I  c #794141",
"U  c #78484B",
"Y  c #7A4F50",
"T  c #5D517E",
"R  c #715765",
"E  c #893437",
"W  c #9C3B3B",
"Q  c #AD3A3E",
"!  c #83463D",
"~  c #87553E",
"^  c #9E4039",
"/  c #8E762B",
"(  c #91772C",
")  c #8F6933",
"_  c #A57A3A",
"`  c #AD3C41",
"'  c #B13D42",
"]  c #9F3B40",
"[  c #C13E44",
"{  c #864A45",
"}  c #9D494D",
"|  c #8C534D",
" . c #885455",
".. c #905751",
"X. c #935C54",
"o. c #92555B",
"O. c #955750",
"+. c #B45255",
"@. c #BB555B",
"#. c #B0484C",
"$. c #966445",
"%. c #966B51",
"&. c #A86F54",
"*. c #BE5B66",
"=. c #BB5A65",
"-. c #AB7D69",
";. c #B0726C",
":. c #865A61",
">. c #C14147",
",. c #C14248",
"<. c #C3484F",
"1. c #C8585D",
"2. c #C7565B",
"3. c #C44C52",
"4. c #CA5E63",
"5. c #C05E6A",
"6. c #CE6066",
"7. c #C9666F",
"8. c #D26F72",
"9. c #528400",
"0. c #598C01",
"q. c #558B00",
"w. c #5C9400",
"e. c #4F8300",
"r. c #698A0A",
"t. c #649A00",
"y. c #699704",
"u. c #769B0A",
"i. c #718F12",
"p. c #66A400",
"a. c #69A600",
"s. c #67A900",
"d. c #69AB00",
"f. c #7BA40A",
"g. c #7AAB08",
"h. c #6EB300",
"j. c #6FB800",
"k. c #73B500",
"l. c #75BA00",
"z. c #79BE00",
"x. c #7AB504",
"c. c #7EA410",
"v. c #7EC600",
"b. c #7FC800",
"n. c #77C400",
"m. c #84B20A",
"M. c #85BA0B",
"N. c #84B10E",
"B. c #AA8539",
"V. c #BC9C39",
"C. c #B79738",
"Z. c #B28A3B",
"A. c #8E9827",
"S. c #C09E3A",
"D. c #C7A73F",
"F. c #81CC00",
"G. c #83C203",
"H. c #85D300",
"J. c #88D600",
"K. c #8ADB00",
"L. c #91DC00",
"P. c #8EE200",
"I. c #93E400",
"U. c #95ED00",
"Y. c #9AEA00",
"T. c #98E700",
"R. c #9EF400",
"E. c #A2F600",
"W. c #A3F800",
"Q. c #B88554",
"!. c #B19040",
"~. c #B5846E",
"^. c #BEA644",
"/. c #C7AA45",
"(. c #DCB752",
"). c #C98E7A",
"_. c #C58B77",
"`. c #C8977D",
"'. c #D19A77",
"]. c #D8B352",
"[. c #EACA51",
"{. c #FADA59",
"}. c #F1D157",
"|. c #E0C24E",
" X c #FFE15B",
".X c #386C81",
"XX c #44788D",
"oX c #577783",
"OX c #575489",
"+X c #9E7A8B",
"@X c #D17D84",
"#X c #6B8F9F",
"$X c #66838D",
"%X c #488CA6",
"&X c #5498B2",
"*X c #739AA9",
"=X c #5DA2BC",
"-X c #BD9D90",
";X c #B28D8F",
":X c #9692AB",
">X c #9291B2",
",X c #B497B1",
"<X c #B49AB4",
"1X c #A991AA",
"2X c #A394AC",
"3X c #C79E83",
"4X c #DFA48A",
"5X c #DBA88A",
"6X c #C1A293",
"7X c #E2A68B",
"8X c #E5AB8E",
"9X c #E7AD90",
"0X c #ECB394",
"qX c #EEB893",
"wX c #CFA4B0",
"eX c #F4C29E",
"rX c #FCCCA4",
"tX c #F8C6A1",
"yX c #FFD0A8",
"uX c #AFB3D4",
"iX c #B1B2D3",
"pX c #BDBFDC",
"aX c #B1AAC9",
"sX c #CCBBC8",
"dX c #E1C7D4",
"fX c #EAECFC",
"gX c #DED1E2",
"hX c #BDC0DC",
/* pixels */
"a.a.a.a.d.l.k.k.l.d.d.a.a.d.a.d.d.s.s.l.n.v.v.b.k.d.d.d.s.n.K.K.K.K.K.K.K.K.K.H.b.b.b.v.v.b.v.v.b.k.y.t.t.t.a.M.v.v.v.v.v.F.v.v.F.K.K.K.K.K.F.v.v.v.v.k.k.k.k.l.",
"a.a.a.a.k.k.k.k.k.d.a.a.a.a.a.a.s.d.s.l.v.v.b.G.u.r.r.r.r.f.m.m.m.m.m.m.m.m.m.g.f.f.f.f.f.f.f.f.f.u.r.B B B r.N.n.v.v.v.v.v.v.v.F.K.K.K.K.H.v.v.v.v.v.k.k.k.k.k.",
"a.a.a.a.k.k.k.k.k.d.a.a.a.a.a.d.s.d.s.x.v.v.v.g.n v c x x c b b c b b b b b b A c c c n c c c c c c v v v v v B g.F.v.v.v.v.v.v.F.K.K.K.K.K.G.v.v.v.v.k.k.k.k.k.",
"a.a.a.a.d.k.k.k.k.d.a.a.s.s.s.d.s.s.s.k.v.b.b.f.c u i u i i i i u i u i i i i i i i i y u u i i y y y y i i y c f.F.v.F.v.F.v.v.F.K.K.K.K.K.F.v.v.F.v.k.k.z.k.k.",
"h.h.h.k.k.z.z.z.z.l.l.k.k.l.k.k.h.k.h.k.h.l.k.u.v i y y y y i i y y y y i y y y y y y y y y y y y y u y y y y v y.h.g.k.v.v.b.v.F.F.F.F.H.b.j.k.k.k.h.d.d.h.d.h.",
"k.k.k.k.z.b.F.v.F.v.v.v.v.v.l.k.k.l.k.a.y.r.y.B A p p E p p s s s s s s E s s s f E E s f s s f s E s s s p p V B B r.r.M.n.v.b.v.v.F.v.b.n.s.s.d.a.s.s.a.a.a.a.",
"k.l.k.k.z.F.v.v.v.v.v.v.v.F.l.k.k.k.l.y.n v v V W #.Q #.#.+.+.+.+.+.+.+.+.+.+.+.+.+.+.+.+.+.+.+.+.+.+.#.#.Q Q W p v x n f.b.v.b.v.v.F.v.b.n.d.d.d.d.d.s.a.a.a.a.",
"k.k.k.k.n.v.v.v.F.v.v.v.v.v.z.l.k.l.l.r.v u u p ` ,.>.<.1.6.6.6.6.6.6.4.6.6.6.6.6.4.4.4.4.4.4.4.6.4.6.1.,.,.,.#.p i y x f.b.v.v.v.v.v.v.F.n.d.s.d.d.d.s.d.a.a.d.",
"k.k.k.k.z.v.v.v.v.v.v.v.v.v.l.k.k.k.k.r.x u y p ' [ ' ,.2.4.4.4.4.4.4.4.4.4.4.4.4.4.4.4.4.4.4.4.4.4.4.2.<.[ [ ' p y i x f.F.G.v.n.b.b.v.b.n.s.s.s.s.a.a.p.s.s.a.",
"H.H.F.J.F.v.F.v.F.F.J.J.J.J.F.n.z.n.v.u.x u y p ' 3.3.<.2.4.4.4.4.4.4.4.4.4.4.4.4.4.4.4.4.4.4.4.4.4.4.2.3.<.3.' E p p V i.f.f.g.z.h.k.k.k.h.z.z.l.n.l.F.F.F.F.F.",
"K.K.K.K.F.v.v.v.v.H.K.K.K.K.F.F.F.v.G.u.c u y s +.4.2.4.4.4.4.4.4.4.4.4.4.4.*.4.4.1.4.4.4.4.4.4.4.4.4.4.4.4.2.3.#.Q ' ^ ! x c B f.s.s.d.d.h.v.b.n.b.v.K.J.K.K.K.",
"K.K.K.K.F.v.v.v.v.H.K.K.K.K.F.v.v.v.F.u.c y y s +.4.4.4.4.4.4.4.4.4.4.4.4.4.4.4.4.4.4.4.4.4.4.4.4.4.4.4.4.4.4.2.,.,.,.' p y y A f.d.d.d.a.d.v.v.v.v.F.K.K.K.K.K.",
"K.K.K.K.H.F.v.v.v.J.K.K.K.K.F.F.F.G.v.u.x y y E +.4.4.4.4.4.4.4.4.4.4.4.4.4.4.4.4.4.4.4.4.4.4.4.4.4.4.4.4.4.4.4.,.>.#.` p y y c u.d.s.a.d.d.v.v.b.v.v.K.K.K.K.K.",
"K.J.K.K.F.v.v.v.v.J.K.K.K.K.F.z.g.f.f.i.V p p E @.4.4.4.4.4.4.4.4.4.4.4.4.4.4.4.4.4.4.4.4.4.4.1.4.4.4.4.6.1.4.4.7.7.8.+.E y y x i.r.r.y.a.a.v.F.F.v.F.K.K.K.K.K.",
"U.U.U.U.K.J.H.J.H.F.F.F.F.F.J.m.B b b V ^ #.' #.2.4.4.4.4.4.4.4.4.4.4.4.4.4.4.4.4.4.4.4.4.4.4.4.4.4.4.4.6.6.6.8.wXdXdXwX{ y y i v c c n f.z.k.k.k.k.k.F.F.F.F.F.",
"W.W.W.W.T.K.K.K.K.F.F.v.F.v.H.m.c i i p Q ,.[ <.2.4.4.4.4.4.4.4.4.4.1.4.4.4.4.4.4.4.4.4.4.4.4.4.4.4.4.4.1.6.1.3XgXfXfXsX .y i i u u u c u.n.d.d.d.d.s.F.b.b.b.b.",
"W.E.W.W.T.K.K.K.P.b.b.v.b.v.H.m.b u y p ` ,.,.<.4.4.4.4.4.4.4.4.4.4.4.4.4.4.4.4.4.4.4.4.4.4.6.1.4.4.4.4.4.4.4.@XdXfXfXsX .y y y u y u q u.M.d.s.d.s.s.v.v.b.v.v.",
"W.E.E.W.T.L.K.K.K.F.v.b.v.v.H.m.b u u p ` ,.,.<.3.4.2.4.4.4.4.4.4.4.4.4.4.4.4.4.4.4.4.4.4.6.1.5.4.4.4.4.2.4.2.@XdXfXfXsX .y y y e e e 0 r.w.e.e.p.s.s.b.v.v.v.b.",
"W.W.W.W.T.K.K.K.K.b.v.v.v.v.H.m.b y y p ' ,.,.,.<.<.<.3.2.4.4.4.4.4.4.4.4.4.4.4.4.4.4.4.4.4.6.6.4.4.4.2.3.3.#.8.dXfXfXsX .y y y w 5 7 9 k * & k q.d.s.b.b.b.b.b.",
"Y.Y.Y.Y.Y.Y.I.I.I.J.H.F.F.H.H.g.b u y p ` ,.,.,.<.[ [ <.2.4.4.4.4.4.4.4.4.4.4.6.4.4.4.4.4.4.1.6.4.4.4.2.3.[ [ 7.dXfXfXsX .y y q 7 6 6 9 *     * 0.l.k.n.z.z.n.n.",
"K.K.K.K.U.E.E.R.E.I.J.K.K.K.F.f.c i i p ` ,.,.,.<.[ [ <.2.4.4.4.4.4.4.4.4.4.6.5.4.4.4.5.6.6.5.6.4.4.4.2.<.[ [ 7.sXfXfXsX .q y e 7 5 5 O :     * w.v.v.k.l.k.l.k.",
"K.K.K.K.U.R.E.E.W.P.K.K.K.K.F.u.c i i p ` ,.,.,.[ <.<.<.3.4.2.4.2.2.1.1.2.4.2.1.2.2.2.2.2.5.2.2.4.2.2.2.3.[ [ 7.sXfXgXsXo.p p u 7 5 5 1 :     - w.b.v.k.k.k.k.l.",
"K.K.K.K.U.R.W.E.W.I.L.K.K.K.F.N.c i y p #.,.,.,.' [ [ [ <.<.3.<.3.3.[ 3.3.3.3.2.[ 2.[ 3.<.<.<.3.,.3.3.<.<.<.[ 5.<XpXpX<X=.` ` E t 5 5 O ;     * t.b.b.k.k.k.k.k.",
"K.P.P.K.U.R.W.W.W.I.K.K.K.K.F.f.b i y p Q ,.,.,.<.[ <.<.[ [ <.[ [ [ [ [ [ [ [ [ [ [ [ [ ,.,.[ [ [ [ ' <.[ [ [ 5.<XiXuX,X=.[ [ ` t 5 5 1 :     - w.b.b.k.k.k.k.k.",
"z.z.z.z.H.Y.U.T.T.K.F.H.F.H.v.u.c u i E ` ,.,.[ ,.[ <.[ [ <.[ [ [ [ [ [ 3.[ 3.[ [ <.[ [ <.[ [ ,.[ [ <.[ [ [ [ 5.<XiXuX<X5.' [ ] t 5 5 1 ;     - p.H.H.z.n.z.z.n.",
"d.d.a.a.v.K.K.K.K.F.v.F.F.b.l.y.z q 0 y W ' ` ' ' <.[ <.[ <.[ <.[ 3.3.[ [ [ 3.[ <.[ [ <.<.[ <.[ <.<.' <.[ [ [ 5.+X<X<X+X@X@.5.} r 5 5 1 ;     : a.K.K.n.v.v.v.v.",
"a.a.a.a.v.K.K.K.K.F.v.v.v.b.l.w.> o o @ y p p E ' [ [ <.<.' [ <.[ [ [ [ 3.[ [ [ <.[ ' <.' [ <.[ [ [ [ [ <.[ [ 3.6.5.5.@X+XaX,X+XP 5 5 O *     : a.K.K.v.G.v.v.v.",
"a.a.a.a.v.K.K.K.K.F.v.v.v.v.z.0.*     o 0 y y p ' <.[ [ [ [ <.[ [ 3.3.' [ ' 3.[ [ [ <.[ <.[ [ <.[ <.<.[ <.[ [ [ [ [ [ 5.aXuXuX+XP 5 5 O ; .   - a.K.K.v.v.b.v.v.",
"a.a.a.s.v.K.K.K.K.F.v.v.v.v.z.0.*     X q y y p ' <.[ <.[ <.[ [ [ [ [ <.[ [ [ 3.[ [ <.<.<.[ [ <.<.<.[ [ [ [ [ [ [ [ [ 5.,XuXiX+XP 6 6 O *     * a.K.H.v.n.v.v.v.",
"a.a.a.a.n.F.F.H.H.H.F.H.H.H.j.q.&     X e u u p ] ` ` ` ` ` ` ' ' 3.[ [ 3.[ [ [ <.[ [ [ [ <.[ [ [ [ [ 3.5.5.5.5.*.*.2.+X<XuXuX>XP 1 1 + k * : N G.Y.Y.H.H.F.H.H.",
"a.a.a.s.k.F.v.G.v.H.K.K.K.K.k.e.*     X r f d f p a p p p a p E ' 3.3.[ 3.[ 3.[ [ <.<.[ [ <.[ <.<.[ <.*.+X<X,X,X,X,X,X<XuXuXuX>X8 . . . 0.h.z.F.Y.E.E.H.K.K.J.K.",
"a.a.d.a.z.v.v.v.v.J.K.K.K.K.z.e.&     X r I I d u y y y y y y p ' [ [ [ [ ' 3.[ [ <.[ [ <.' [ <.[ [ ' *.,XuXuXuXuXuXuXuXuXuXuX+X5     : d.I.E.E.E.E.E.K.K.K.K.K.",
"a.a.a.a.l.v.v.v.v.J.K.K.K.K.l.9.&     X r I C d u u u y y y y p ' 3.[ [ [ [ [ [ ,.,.,.,.<.[ [ <.[ [ [ 5.<XpXuXiXiXiXuXuXuXuXiX+X8     - d.P.E.E.E.E.E.K.K.K.K.K.",
"a.a.a.a.k.v.b.v.v.K.K.K.P.K.l.9.*     X r I I d d u u u u g u p ] ' ` ` ` ` ' ' ` ` ' ` ' ` ` ` ' ` ` +.+X1X2X>X>X>X>XaX>X,X>X+Xl - * j x.P.E.E.E.E.E.K.K.K.K.K.",
"k.k.k.k.z.n.v.z.n.F.F.F.b.F.k.M &     + r I I I d d d d F d d s F E p p p p F p p p p p p p p p p p a s E G G R OXOXOXOXR :.R :.i.s.a.h.b.K.R.E.E.E.E.P.I.P.P.I.",
"H.H.H.H.v.z.l.k.k.h.d.k.d.h.t.M &     + r I I I d F I I I F F d u y y y y y y y y y y y y y y y y y y y y y y r H H D H U C C Y i.F.b.b.b.H.E.E.E.E.E.E.E.R.E.E.",
"K.K.K.K.F.k.k.k.k.d.a.a.a.a.t.m =     + r I I I I I I d d d F f u y i i y y y y i y y y y y y i u u u y y y y r H D D H G I I Z u.b.b.b.v.F.E.E.E.E.E.E.E.E.E.E.",
"K.K.K.P.v.k.k.k.k.d.a.a.a.a.a.M > = = ; t r r r d I I I | X.....{ { ~ ~ F p p s ! ! ! ! E ! { F e 0 0 y s { ! U T OXOXR U G d Z i.b.b.n.v.F.E.E.E.E.E.E.W.E.W.W.",
"K.K.K.K.v.k.k.k.k.a.a.a.a.a.y.t.M m m N ; + X @ r I I | ;.`._.3X4X5X'.'.&._ ) &.8.~.~._._._._.%.7 o o 7 %._._._.3X@X;X-. .F F Z i.b.F.F.v.F.E.W.W.E.E.E.W.E.W.W.",
"H.H.H.H.z.k.h.h.h.k.k.k.k.k.d.k.g.k.k.0.*     + r I F ..).7X7X9XeXrXrXqXQ.&._ &.3X8X8X7X7X4X8X~.7     7 -.9X7X7X4X4X7X)...d F Z u.k.k.k.l.v.T.L.T.T.P.R.R.Y.Y.Y.",
"F.b.F.b.k.d.h.d.s.n.n.v.z.v.F.J.H.H.K.t.*     X r { C ..).4X4X5XeXrXrXqXQ._ _ Q.'.7X4X4X5X5X7X-.,     , -.8X5X5X4X4X7X)...I I Z u.d.a.d.a.g.F.F.v.F.F.K.K.I.K.K.",
"v.b.v.v.k.a.d.s.s.l.F.v.v.G.H.K.K.K.K.d.j * * < w r r U _.7X4X9XeXeXeXqX'.&.Q.Q.'.7X4X7X8X9X9X~.w X X t ~.0X9X5X3X_.).~.) Z S S N.d.a.a.d.d.v.v.v.F.v.K.K.K.K.K.",
"v.v.v.v.k.s.s.d.s.n.v.v.v.v.H.K.K.K.K.b.s.t.t.M ; + X t ~.8X4X9XeXeXrXeX4X'.'.'.4X4X4X8XqXeXtX5XY r r Y 5XtXeX5X&.| o.$.A.c.c.x.x.d.a.a.a.d.G.v.v.v.v.K.K.K.K.K.",
"b.F.v.F.k.s.s.s.s.l.v.v.v.v.H.K.K.K.K.H.v.v.v.t.*     , -.7X4X8XeXrXrXeX9X7X7X4X4X4X4X8XtXtXrX5XX.C I X.5XtXyX5Xo.F d Z g.b.b.b.n.d.a.a.a.h.F.v.v.F.F.P.K.K.K.K.",
"z.z.z.n.j.j.h.h.h.v.F.F.F.F.K.I.P.I.I.K.F.F.F.a.:     , -.8X7X0XeXyXrXeX9X5X4X7X4X4X4X8XeXrXrX5XX.d d X.5XyXyX9XX.F I Y c.H.F.F.v.d.a.a.a.d.z.z.l.z.z.F.F.F.F.F.",
"h.d.d.d.l.n.n.n.n.H.K.K.K.K.U.E.W.R.E.L.k.a.a.0.> ; ; t -.)._.`.5X5X5X5X4X5X4X4X4X4X4X8XqXeXtX5X;. . .&.3X5X5X`.%.S Z A.G.P.K.K.F.a.a.a.a.a.a.d.d.a.d.d.h.h.d.h.",
"a.a.s.s.j.v.v.b.v.J.K.K.K.K.U.W.W.E.E.M.j : : k S / / / | ......%.X.X.;.`.7X7X4X4X4X4X7X8X9X9X4X3X).).~.&.X.%.%.N.M.N.G.J.K.K.K.H.a.d.a.a.a.a.d.a.a.a.a.s.s.s.s.",
"d.d.s.d.l.b.v.v.b.H.K.K.K.K.U.E.W.E.E.x.:   . ; ( S.V.B.~ d f d d d C | _.7X4X4X4X7X4X4X4X4X4X4X7X7X8X). .d I ~ M.K.K.K.K.K.K.K.H.d.a.a.a.a.a.a.a.a.a.d.s.s.s.s.",
"d.s.d.s.k.b.v.b.v.J.K.K.K.K.U.W.W.W.W.x.:   . ; / V.C.B.{ C F d I F F  .3X9X7X7X8X7X7X8X7X7X7X7X7X7X7X).X.F I S M.K.K.K.K.K.K.K.H.a.a.a.a.a.a.a.a.a.a.d.d.s.s.d.",
"h.d.s.d.n.F.F.F.F.H.H.H.H.H.I.I.G.k.z.y.z < < z B.D.D.C.) ~ | ~ f d d { &.-.-.-.-.-.-.~._.).).)._._.`.;.{ d d Z N.K.K.J.F.b.b.F.z.s.a.a.a.t.a.a.t.a.a.a.s.d.d.s.",
"k.k.k.k.F.K.K.K.K.F.v.v.v.v.H.k.j * > z B.D.^./.|.[.[.(.C._ B./ C u u u 7 7 7 7 7 , , w U ..........X.{ f u u b M.K.K.H.d.s.s.s.a.t.t.t.y.y.t.y.t.t.t.a.d.s.d.s.",
"k.k.k.j.F.K.K.K.K.F.v.b.v.v.H.a.:     < ^. X X{.{.{.{.[.D.C.C.B.V y y q o             X r C d I d d F f u u u b N.K.K.F.k.s.s.s.a.t.t.t.t.t.t.y.t.t.t.d.s.d.s.d.",
"k.l.k.k.F.K.K.K.K.F.G.v.v.v.H.a.:     < D. X{.{.{.{.}.[.D.C.C.B.V y u q o             X r I I I I I d d u u u b m.K.K.F.d.s.d.d.a.t.t.t.t.t.t.t.t.y.t.d.d.a.d.s.",
"k.k.k.k.F.K.K.K.K.F.v.F.F.v.J.a.:     , B.(.].|.}.{.{.[.D.C.V._ g 0 q 0 $ $ @ @ @ @ @ $ t r r r r r r r u u y b m.K.K.H.k.a.s.d.a.t.t.t.t.y.t.y.y.t.t.d.d.d.s.s.",
"z.l.l.k.v.F.F.H.H.v.z.v.z.v.H.a.-     + Z $.$.&.(.{.{.[.D.C.V./ , o o $ ! } } } } } } ! $ X X X + + X @ e u y b N.F.H.G.d.a.s.a.s.t.p.t.t.t.a.a.t.a.t.d.d.d.s.d.",
"b.v.v.v.h.k.h.d.d.d.d.h.d.d.F.a.:     X r F G $.(.{.{.[.D.C.V./ ;     @ } 6.6.6.6.6.6.} @             X 0 y u x r.d.d.a.a.t.t.t.t.s.s.s.s.a.h.h.k.k.k.a.d.d.d.s.",
"v.v.v.F.k.s.a.a.a.d.d.s.s.s.n.s.:     X r I C $.(.{.{.[.D.C.S./ ;     @ } 6.4.4.4.6.6.} #             X q u i A r.d.a.a.y.t.t.t.p.a.a.d.d.s.j.k.k.k.k.s.s.d.d.d.",
"v.v.v.v.l.d.d.a.d.d.s.s.d.s.b.a.:     + x | { $./.(.(.].Z._ B.S %     @ } 6.4.4.4.6.6.} 0 o o o .     o 0 q q h r.a.a.a.y.t.t.y.t.d.d.d.s.h.j.k.k.k.k.s.d.d.s.a.",
"v.v.v.v.k.d.a.a.d.d.d.d.d.s.b.d.:     ; ) B.B._ $.$.$.~ ! V V y +     @ } 6.4.4.6.4.6.+.u 0 0 $ o       o o o > 9.a.a.t.t.y.t.y.p.a.d.d.d.d.h.k.k.k.k.s.s.d.s.s.",
"z.z.n.n.j.h.h.h.h.k.j.j.j.j.F.a.:     ; / V.V.B.~ d C g i y y q o     $ } 6.6.4.6.6.6.+.s u u e X             * 0.k.k.h.g.a.a.a.a.j.j.k.j.j.l.l.l.n.l.s.s.s.s.s.",
"d.d.h.a.k.v.v.v.n.H.J.K.H.H.H.w.&     ; ( V.V.B.{ C I d u u u q X     @ } 7.6.4.6.6.6.+.E y i q X             * s.H.H.H.G.v.M.v.G.J.J.J.J.H.v.v.n.v.v.p.d.s.s.s.",
"a.a.a.a.k.v.F.v.F.J.K.K.K.P.H.a.j * * < S / / / ~ ~ ~ C e q q 0 o     $ +.8.8.8.8.8.8.*.g q q $ o           & j k.K.K.J.F.b.v.v.F.J.K.K.K.H.v.v.F.v.v.p.a.a.s.s.",
"a.a.a.a.k.v.v.v.v.H.K.K.K.K.b.n.a.t.t.m > ; ; h ) B.Z.) , o o o       7 ~.qXqXqX0X0XqX~.w o X o             0.d.F.K.K.J.F.v.v.b.F.K.K.K.K.J.F.v.v.v.v.a.a.a.a.a.",
"a.a.a.a.k.F.v.F.v.H.K.K.K.K.F.v.v.v.F.0.*     ; / V.V./ ;           . 7 3XyXrXrXyXyXyX`.7             & 9.a.k.K.K.K.K.H.b.v.v.v.F.K.K.K.K.K.v.v.v.v.v.s.d.a.a.d.",
"d.h.d.a.z.F.F.F.F.H.J.H.K.J.F.F.F.F.F.w.&     ; ( S.V.( ;             < 3XyXrXrXrXrXrX`.7             * 9.a.k.H.J.K.H.H.F.F.F.F.H.L.P.P.P.K.F.F.F.F.F.p.a.a.a.a.",
"k.k.k.k.F.K.J.J.K.F.v.v.v.v.H.K.K.K.K.k.j : : k S ( ( n %     . 2 3 3 P 3XeXeXeXqXtXtX3XP 3 3 3 .     * q.k.l.v.v.b.b.F.J.K.K.K.I.E.E.E.E.U.K.K.K.K.J.a.a.a.a.a.",
"k.k.k.k.F.K.K.K.K.F.v.v.v.v.H.K.K.K.K.F.k.d.d.0.z ; ; % .     1 J .XXX#X6X9X8X8X8X8X9X-X$XXXXXJ 1     * 0.k.l.v.v.v.b.F.K.K.K.K.K.E.E.E.E.E.K.K.K.K.K.s.a.a.a.a.",
"k.k.k.k.F.K.K.K.K.F.v.F.v.v.H.K.K.K.K.K.K.K.K.a.-             3 $X=X=X*X6X4X4X4X4X5X4X6X*X=X=XXX3     * 0.k.k.v.b.v.v.F.H.K.K.K.I.E.E.E.E.E.P.K.K.K.K.t.a.a.a.a.",
"k.k.k.h.F.K.K.K.K.F.v.v.v.v.H.K.K.K.K.K.K.K.K.a.:             3 %X&X=X*X6X7X7X7X7X7X5X-X*X&X=XXX3     * 0.k.l.v.v.v.v.F.K.K.K.K.P.E.W.E.E.E.K.K.K.K.K.p.a.a.a.a.",
"k.k.k.k.n.K.K.K.K.F.b.v.v.v.H.K.K.K.K.K.K.P.K.k.N - > > > : - l L XX.X$X;X-X-X-X-X-X3X:X*X&X&XXX3     * 0.k.z.v.b.v.b.F.H.K.K.K.K.E.E.E.E.Y.K.K.K.K.K.a.d.d.a.d.",
"d.d.d.d.k.F.F.F.b.H.K.J.K.J.K.K.K.K.K.P.R.R.R.Y.l.t.w.p.t.w.0.m 8 4 3 8 oX#X#X#X#X#X#X#X%X%X&X.X4     * w.v.b.H.K.J.K.J.F.b.b.b.F.K.P.P.K.K.F.F.F.v.F.n.G.z.n.z.",
"d.d.s.s.k.v.v.v.v.J.K.K.K.K.K.K.K.K.K.I.E.W.E.W.L.b.b.b.b.j.s.e.& . . 2 K %X%X%X%X%X%X%X%X%X%XL 1     * t.v.F.K.K.K.K.H.b.b.b.v.F.K.K.K.K.J.v.v.v.v.v.v.v.F.v.F.",
"s.s.d.s.n.v.v.v.v.J.K.K.K.K.K.K.K.K.K.I.E.W.W.W.L.b.v.v.F.k.d.9.=     4 .X%X%X%X%X%X%X%X%X%X%X.X4     * w.v.F.J.K.K.K.J.F.v.v.v.F.K.K.K.K.J.v.v.v.v.b.v.b.v.v.v.",
"d.d.s.s.j.v.v.v.v.J.K.K.K.K.K.K.K.K.K.I.E.W.W.W.I.b.v.v.v.k.d.0.k & & < J .XK .X.XK .X.X.X.X.XJ < & & j a.v.F.K.K.K.K.J.b.b.b.v.F.K.K.K.K.K.v.b.b.v.F.v.v.v.b.v.",
"d.s.d.s.l.v.v.v.n.H.K.K.J.K.K.K.K.K.K.I.E.W.W.W.L.F.v.v.F.k.d.p.q.e.9.m < 4 4 4 1 3 1 1 4 4 1 < N 9.t.p.z.v.F.J.K.K.K.J.b.b.v.b.F.K.K.K.K.J.v.b.b.v.v.v.v.v.v.v.",
"s.d.d.s.s.s.s.s.s.n.n.v.v.v.H.K.K.K.K.K.J.J.K.K.z.d.s.s.s.l.v.b.F.b.J.d.- .                   & m t.s.s.s.s.d.v.v.v.v.F.K.K.K.K.K.K.K.K.K.K.v.v.v.v.v.v.v.v.F.b.",
"d.d.d.s.d.s.s.d.s.z.v.v.b.v.H.K.K.K.K.K.K.K.K.K.n.h.d.s.s.l.v.v.v.b.H.p.-                     = m a.d.d.d.d.h.n.v.v.v.F.K.K.K.K.K.K.K.K.K.J.b.v.v.b.v.v.b.v.v.v.",
"s.s.s.d.d.s.d.s.s.n.b.v.v.v.H.K.K.K.K.K.K.K.K.K.z.d.s.d.s.k.v.v.v.b.H.k.j - : - * * * * & = = > M t.d.d.d.s.h.v.v.v.v.F.K.K.K.K.K.K.K.K.K.K.v.v.b.v.v.v.b.v.b.v.",
"d.s.d.s.s.d.s.d.s.n.n.v.v.v.H.K.K.K.K.K.K.K.K.K.n.d.d.d.a.l.v.v.v.v.H.F.k.a.a.t.0.0.0.0.9.M m 9.y.a.a.d.s.s.h.n.v.b.v.F.K.K.K.K.K.K.K.K.K.K.v.v.v.v.v.v.v.v.v.v.",
"s.d.s.d.d.s.d.s.s.k.v.b.b.v.H.K.K.K.K.K.K.K.K.K.z.h.d.a.s.k.v.v.v.v.H.K.K.K.K.F.l.k.k.k.d.t.t.t.y.t.d.a.d.s.s.v.v.v.v.F.H.K.K.K.K.K.K.K.K.J.v.v.v.b.F.v.v.F.v.v."
};
