/* XPM */
static char *texture_chara_back[] = {
/* columns rows colors chars-per-pixel */
"80 80 221 2 ",
"   c #000000",
".  c #070905",
"X  c #1B0E0E",
"o  c #150909",
"O  c #161516",
"+  c #290E0F",
"@  c #261C0D",
"#  c #2B0F11",
"$  c #2A1716",
"%  c #381919",
"&  c #182600",
"*  c #1C2C00",
"=  c #172400",
"-  c #1F3100",
";  c #29220B",
":  c #213300",
">  c #263A00",
",  c #332219",
"<  c #323514",
"1  c #111F26",
"2  c #0F1E24",
"3  c #112126",
"4  c #132329",
"5  c #0F2025",
"6  c #373837",
"7  c #343026",
"8  c #4F1D1E",
"9  c #501F1F",
"0  c #5A2A2A",
"q  c #5D3131",
"w  c #583631",
"e  c #482E2C",
"r  c #662727",
"t  c #692A2A",
"y  c #682727",
"u  c #7C2E2F",
"i  c #722A2C",
"p  c #763A2D",
"a  c #7E2F30",
"s  c #6A3934",
"d  c #7E3435",
"f  c #753C3C",
"g  c #783A3B",
"h  c #6E312D",
"j  c #4B3E15",
"k  c #365500",
"l  c #29441E",
"z  c #2F4900",
"x  c #69451F",
"c  c #6D4C1F",
"v  c #67441E",
"b  c #70511F",
"n  c #6B581A",
"m  c #4D7601",
"M  c #527D01",
"N  c #436605",
"B  c #6C7312",
"V  c #544731",
"C  c #684729",
"Z  c #77453B",
"A  c #775932",
"S  c #774727",
"D  c #786A2A",
"F  c #514B1B",
"G  c #253E45",
"H  c #773E40",
"J  c #793F41",
"K  c #305A62",
"L  c #376A7E",
"P  c #794141",
"I  c #745353",
"U  c #5C7E7D",
"Y  c #457764",
"T  c #625F56",
"R  c #8C3336",
"E  c #993639",
"W  c #852F32",
"Q  c #A73A3F",
"!  c #86533E",
"~  c #865C38",
"^  c #8F513B",
"/  c #8D7429",
"(  c #906938",
")  c #A8793F",
"_  c #AD3C41",
"`  c #B23D42",
"'  c #834D41",
"]  c #8B4547",
"[  c #9D494E",
"{  c #8A5548",
"}  c #90544C",
"|  c #985D53",
" . c #B45255",
".. c #B8555A",
"X. c #B3464B",
"o. c #9E6C41",
"O. c #986446",
"+. c #89734A",
"@. c #AB7B41",
"#. c #A17243",
"$. c #A76E56",
"%. c #AA7158",
"&. c #AB754C",
"*. c #976B6B",
"=. c #AD696C",
"-. c #C14147",
";. c #C24248",
":. c #C3484F",
">. c #C8585D",
",. c #C7565B",
"<. c #C54D53",
"1. c #CA5E63",
"2. c #CB6566",
"3. c #C37E66",
"4. c #D36E6F",
"5. c #4F8300",
"6. c #518400",
"7. c #5A8C00",
"8. c #578A03",
"9. c #5D9300",
"0. c #6A8B0A",
"q. c #649A00",
"w. c #6B9509",
"e. c #75990A",
"r. c #6D9210",
"t. c #708811",
"y. c #67A400",
"u. c #69A600",
"i. c #67A900",
"p. c #69AB00",
"a. c #6DAF09",
"s. c #7BA30A",
"d. c #7AAB07",
"f. c #6EB300",
"g. c #6FB503",
"h. c #73B500",
"j. c #75BA00",
"k. c #79BE00",
"l. c #7DB209",
"z. c #7EA810",
"x. c #6BAA28",
"c. c #7EC600",
"v. c #7FC800",
"b. c #77C400",
"n. c #77C123",
"m. c #4A8361",
"M. c #84B30A",
"N. c #81AB0F",
"B. c #AA843A",
"V. c #AC8739",
"C. c #B79636",
"Z. c #BA9836",
"A. c #B99A38",
"S. c #B5963A",
"D. c #899F1D",
"F. c #C6A63E",
"G. c #C8A83F",
"H. c #81CC00",
"J. c #81C301",
"K. c #85D200",
"L. c #88D600",
"P. c #8ADB00",
"I. c #91D305",
"U. c #8EE100",
"Y. c #93E400",
"T. c #95ED00",
"R. c #9BEA00",
"E. c #98E700",
"W. c #9DF500",
"Q. c #A2F600",
"!. c #A3F800",
"~. c #A39854",
"^. c #AF924D",
"/. c #B68D6A",
"(. c #968F54",
"). c #D9B64C",
"_. c #DB9473",
"`. c #C98C6B",
"'. c #E19A77",
"]. c #CBB267",
"[. c #CFAF69",
"{. c #E4A07F",
"}. c #E9C951",
"|. c #EBCC58",
" X c #F8D858",
".X c #F8D755",
"XX c #F1D676",
"oX c #FAE17E",
"OX c #396D81",
"+X c #3D7287",
"@X c #43768B",
"#X c #457585",
"$X c #457C91",
"%X c #C87E81",
"&X c #51938A",
"*X c #6A9798",
"=X c #719C9B",
"-X c #498CA7",
";X c #4C8EA9",
":X c #4C90AB",
">X c #589CB8",
",X c #8A9A8A",
"<X c #B2A8A3",
"1X c #AF8E8E",
"2X c #D88389",
"3X c #F2B189",
"4X c #DDAF9D",
"5X c #FDC593",
"6X c #FAE387",
"7X c #E6D9AB",
"8X c #DDD2D2",
"9X c #C6C6C6",
"0X c #E6D9D9",
"qX c #F4DCDD",
"wX c #EEE7D2",
"eX c #F3ECD7",
"rX c #FDF6D9",
"tX c #E5E0CF",
"yX c white",
"uX c #F9F7F5",
"iX c #FEF8E2",
/* pixels */
"u.u.u.u.p.h.h.h.h.f.u.p.u.u.p.p.p.p.i.j.c.c.v.v.h.u.p.i.u.b.L.P.P.P.L.P.P.P.P.K.v.v.v.c.v.c.v.c.v.h.q.q.q.q.u.M.v.v.c.c.c.c.c.c.H.P.P.P.P.L.c.c.v.v.c.h.h.h.h.h.",
"u.u.u.u.h.h.h.h.h.p.u.u.u.u.u.p.p.p.i.j.b.c.J.k.e.w.w.0.0.s.M.M.M.M.M.M.M.M.M.N.s.s.s.s.s.s.s.s.s.e.0.B B B 0.N.c.v.c.c.H.c.c.c.H.P.P.P.P.P.v.c.c.c.c.h.h.h.h.h.",
"u.u.u.u.h.h.h.h.h.p.u.u.u.u.u.u.u.p.u.h.c.c.c.l.n x C v C c b b b b b b b b b b b c c c C b c b c x v v v v v B d.c.c.c.c.c.c.v.v.P.P.P.P.L.v.v.c.v.c.h.h.h.h.h.",
"u.u.u.u.p.h.h.h.h.p.u.u.u.u.i.p.i.i.i.h.c.v.v.s.c y y r r t t t y y y y y y y y r t t t y y r y y y r r y y y c s.H.H.c.H.v.c.c.v.P.P.P.P.P.v.v.v.v.v.h.h.k.h.h.",
"f.f.h.f.h.k.k.k.b.h.h.h.j.j.h.f.f.f.h.h.f.h.j.e.x r y r y r r r r r r r r r r r r r r r r r r r y r r r r r y v 0.d.d.h.c.v.c.v.v.K.K.K.v.v.g.g.h.h.g.p.p.f.f.p.",
"h.h.h.h.b.J.H.c.J.c.H.c.c.c.h.h.j.h.h.u.w.0.w.B S u u W d d d W W d d W W d W g d W W d g d d h d W W d a u u S B M 0.0.l.v.c.c.c.c.c.c.v.c.p.p.i.p.p.u.u.u.u.u.",
"h.h.h.h.k.H.c.c.H.c.c.v.c.c.k.h.h.h.j.w.n v v S ^ ` _ ` X. . . ... ... . . . . ... . ... . . . . . . . .X.` ` E W x v n s.v.v.c.c.v.c.c.v.c.p.p.p.p.i.u.u.u.u.u.",
"h.h.h.h.k.v.c.c.c.c.v.c.c.H.k.h.h.h.j.w.v r r u ` -.-.;.1.2.1.1.2.2.1.1.1.1.2.2.1.1.1.1.2.1.1.1.2.2.1.>.:.X.-.` u r y x s.v.c.v.c.c.c.c.c.c.p.i.p.i.p.i.u.u.u.u.",
"h.h.h.h.k.v.v.c.c.J.v.v.c.v.h.j.h.h.h.0.x t r u ` -.X.:.,.1.1.1.1.1.1.1.1.1.1.1.1.1.1.1.1.1.1.1.1.1.2.,.:.-.-._ u r r x s.c.c.v.c.c.v.c.c.c.i.i.u.i.i.u.y.u.u.u.",
"H.K.H.K.v.c.c.c.v.K.K.L.K.P.H.b.c.b.b.e.c y r d ` :.:.<.>.1.1.1.1.1.1.1.1.1.1.1.1.1.1.1.1.1.1.1.1.1.1.>.<.:.:.X.u r r v s.c.c.c.b.h.h.h.f.f.k.k.j.b.j.H.v.H.H.H.",
"P.P.P.P.K.c.c.v.c.L.P.P.P.P.H.c.H.c.H.e.x y y d X.>.,.>.1.1.1.1.1.1.1.1.1.1.1.1.1.1.1.1.1.1.1.1.1.1.1.>.>.,.>.X.p y y c s.c.v.v.b.i.p.p.p.f.c.c.c.c.c.P.P.P.P.P.",
"P.P.P.P.K.c.c.v.c.K.P.P.P.P.H.c.J.J.H.e.c y r W ..2.1.1.1.1.1.1.1.1.1.1.1.1.1.>.1.1.1.1.1.1.1.1.1.1.1.1.1.2.1. .W y y c e.c.c.v.b.p.p.p.u.p.c.c.c.c.v.P.P.P.P.P.",
"P.P.P.P.K.c.J.c.c.L.P.P.P.P.H.H.c.c.c.e.c r r W  .1.1.1.1.1.1.1.1.1.1.1.1.1.1.1.1.1.1.1.1.1.1.1.1.1.1.1.1.1.1. .p r r c s.c.J.v.k.u.p.u.i.f.c.c.c.v.c.U.P.P.P.P.",
"P.P.P.P.H.c.v.c.c.P.P.P.P.U.H.k.M.e.s.t.S d u R ..1.1.1.1.1.1.1.1.1.1.1.1.1.1.1.1.>.1.1.1.1.1.1.1.1.1.1.1.1.1...R u u S t.N.s.l.k.i.i.i.u.p.c.v.v.v.c.U.P.P.P.P.",
"T.T.T.T.P.L.K.L.K.H.H.H.H.H.K.M.B S c S ^ _ _ X.,.1.1.1.1.1.1.1.1.1.1.1.1.1.1.1.1.1.1.1.1.1.1.1.1.1.1.1.1.1.2.,.X._ ` Q S x x n e.b.b.j.j.k.h.h.h.g.g.K.H.H.H.H.",
"!.!.!.!.E.P.P.P.P.H.c.v.v.c.L.M.b y y W ` -.;.:.>.1.1.1.1.1.1.1.1.1.1.1.1.1.1.1.1.1.1.1.1.1.1.1.1.1.1.1.1.1.1.>.:.-.;._ a r y x 0.c.b.b.c.b.u.p.p.p.i.v.v.v.v.v.",
"!.!.!.!.E.U.P.P.P.v.v.c.c.c.K.M.b y r u _ ;.;.:.,.1.1.1.1.1.1.1.1.1.1.1.1.1.1.1.1.1.1.1.1.1.1.1.1.1.1.1.1.1.1.>.:.-.-.` u r y x 0.J.J.J.v.c.p.p.p.i.i.v.v.c.v.v.",
"!.!.!.!.E.P.P.P.P.K.v.v.c.c.K.M.b y r a _ ;.-.:.,.,.,.>.1.1.1.1.1.1.1.1.1.1.1.1.1.1.1.1.1.1.1.1.1.1.1.>.,.,.>.,.:.;.-._ u y y x r.c.H.c.c.b.p.p.p.p.p.v.c.c.c.c.",
"!.!.!.!.E.P.P.P.P.v.c.c.c.v.K.M.b y r a ` ;.;.;.:.:.:.<.>.1.1.1.1.1.1.1.1.1.1.1.1.1.1.1.1.1.1.1.1.1.1.>.<.:.:.:.;.-.;.` a r y x r.J.c.c.c.c.u.p.i.i.i.v.c.c.v.v.",
"E.E.T.R.E.E.Y.Y.Y.K.K.K.K.v.K.l.b y r a ` ;.X.;.-.-.-.:.,.1.1.1.1.1.1.1.1.1.1.1.1.1.1.1.1.1.1.1.1.1.1.>.:.-.-.;.;.X.;.` u r y x w.K.H.H.H.H.h.h.j.j.j.b.b.k.k.k.",
"P.P.P.P.E.!.!.W.!.U.P.P.L.P.v.s.C y r u _ ;.;.;.;.;.-.:.>.1.1.1.1.2.1.1.1.1.1.1.1.1.1.1.1.1.1.1.1.1.1.>.<.-.;.-.-.;.-.` a y y C r.P.P.P.P.L.c.c.c.b.c.h.j.h.j.h.",
"P.P.P.P.T.!.!.!.!.Y.P.P.P.P.K.s.v 8 8 r Q ;.;.;.;.-.-.:.,.>.>.>.,.,.>.,.1.,.,.,.>.>.>.>.,.1.,.,.>.>.>.<.:.-.;.;.;.-.;.Q y 8 9 j w.P.P.P.P.K.c.c.c.c.c.h.h.h.h.j.",
"P.P.P.P.T.W.Q.!.!.U.P.P.P.P.H.q.> o o 8 E ;.-.-.;.;.;.;.:.:.:.:.:.:.<.:.:.:.:.:.:.:.:.:.:.:.:.:.:.:.:.:.;.-.;.-.;.;.-.E 8 o o ; 7.P.P.P.P.P.c.c.c.c.c.h.h.h.h.h.",
"P.Y.P.P.T.W.!.!.!.U.U.P.P.P.K.q.:     # E ;.;.-.;.;.;.-.-.-.-.-.-.-.-.-.-.-.-.-.-.;.;.` -.-.-.-.X.-.-.-.;.;.;.;.;.-.-.R +     : 7.P.P.P.P.P.c.c.c.c.c.h.h.h.h.h.",
"k.k.k.k.K.E.E.E.T.L.K.H.K.K.b.9.*     # E ;.;.-.;.;.;.;.X.-.-.-.-.-.;.-.;.-.;.;.;.-.;.;.;.;.;.;.;.;.;.;.;.;.;.-.;.;.-.E #     * 9.K.K.K.K.K.K.K.K.K.K.k.b.k.k.b.",
"p.p.u.y.c.P.P.P.P.K.c.H.v.v.h.7.*     + W _ _ ` ` ;.;.;.;.-.-.;.-.;.-.-.;.;.;.-.;.-.;.-.;.` ;.;.-.;.-.;.;.-.;.X.` ` _ W +     * 9.c.c.c.c.v.P.P.P.L.P.c.c.c.c.c.",
"u.u.u.y.c.P.P.P.P.H.c.c.c.v.k.7.*     X 0 W a W ` ;.;.;.;.;.;.;.;.-.;.-.-.;.;.;.;.;.;.;.;.;.;.;.;.;.;.-.-.;.;.` R u u r X     * q.c.c.c.c.v.P.P.P.P.P.c.c.c.c.v.",
"u.u.u.u.c.P.P.P.P.H.J.c.c.v.j.7.*     o 8 r r u ` ;.-.;.;.;.;.;.;.;.X.-.;.;.;.-.;.-.;.;.;.;.;.;.;.-.;.;.-.;.;._ u r y 8 o     * q.c.c.H.c.v.P.P.P.P.P.c.c.c.c.v.",
"u.p.u.u.c.P.P.P.P.H.c.c.c.c.k.7.*     o 8 y r a _ ;.;.;.;.;.;.;.;.-.-.-.;.-.;.;.-.;.;.;.;.;.;.;.;.;.;.;.;.;.;.` a r y 8 o     : q.J.H.J.c.v.L.L.P.P.P.c.c.c.c.c.",
"u.u.u.u.k.K.K.H.K.K.K.c.u.y.7.m < @ @ ; r i t a E ` _ ` ` ;.;.;.;.;.-.` Q R E E E E E E ` -.;.-.;.` ;.-.` _ _ E d t i 0 % @ @ < M u.y.p.c.K.T.E.E.E.E.H.K.H.K.H.",
"u.u.u.u.h.v.c.H.c.L.P.h.k - * < C ~ ~ ~ Z f f g d a u W ` ;.;.;.-.;.-.Q 8 # # # # # + 8 Q ;.;.;.;.;.;.` W a u d g f g Z ~ ~ ~ b < : : k h.P.Q.Q.!.W.!.L.P.P.L.P.",
"u.u.u.u.h.H.c.c.c.K.P.u.-     @ ~ V.@.o.! H H f t y r u ` ;.;.;.-.;.-.E #             + E ;.;.-.;.;.;._ u r r t g f J ! ( @.B.~ @     * p.U.W.!.!.!.!.P.P.P.P.P.",
"u.u.u.u.h.c.v.v.c.L.P.u.:     @ ~ @.@.o.' P P f h r r a ` ;.;.;.;.;.;.E #             + R ;.-.-.;.-.;.` u r r h f P f ' o.#.@.~ @     : p.U.Q.Q.Q.Q.!.L.P.P.P.P.",
"u.u.u.y.h.c.v.J.c.P.P.u.:     @ ~ ^.&.o.Z q w w h t t a E _ _ _ _ _ _ R % o X o o o o 8 R ` _ _ ` _ ` E a t t h q q w Z o.^.&.~ @     : p.U.W.!.Q.!.!.L.P.P.P.P.",
"h.h.h.h.b.c.c.b.b.H.H.q.*     , $.`.`.&.e o X % q H f g d a a a a a a i 0 9 8 8 8 9 8 0 i a u u a a a a g f f q $ X X e &.`._.o.%     : y.P.!.!.Q.Q.!.U.Y.Y.Y.U.",
"L.L.K.L.c.h.h.h.h.h.p.8.*     , $._._.$.%     X q J P f t r r r r r r r y t t y t y y y y y r r r r r t f J J q X     % $._.'.$.,     * q.H.!.!.!.!.!.W.R.Q.W.Q.",
"P.P.P.P.c.h.h.h.h.p.u.M =     , &.'.'.&.,     X q P P f t t y t y y y t y y y y r y y y r y t t r r r t f P P s X     , $.'.'.%.,     * q.H.Q.Q.Q.!.!.Q.Q.!.!.!.",
"P.P.P.P.c.j.h.h.h.p.u.8.z = = < { %.%.' $     X q J J f s t t h p p p p i t i t h t t h p p S W h t h h H P P q X     $ ' %.%.{ < * * k q.H.Q.!.Q.Q.!.!.Q.Q.!.!.",
"P.P.P.U.c.h.h.h.h.u.u.q.8.M M N < , , $ o     X q P J f f g f Z ( ( ( ^ Z g f f g g h ! ^ ( ( ^ P f g f H P P q X     . $ , , < m q.q.y.k.K.Q.!.!.!.!.!.!.!.!.!.",
"K.K.K.K.k.f.f.f.f.h.h.h.h.h.d.7.*             X q P P P H P Z { o.@.@.o.' J P Z J H H ! #.@.@.o.' J P J H H P q X             : 7.k.h.h.k.b.Y.Y.Y.Y.Y.R.R.R.R.R.",
"v.v.c.H.h.p.p.f.i.b.b.c.c.c.H.u.:             X q J J J J J H P o.@.@.o.' P P P P P P P o.@.@.#.' H P P P P P q $             * q.u.p.p.u.f.c.H.H.H.H.U.Y.P.P.U.",
"c.v.c.c.h.u.i.i.i.j.J.v.c.c.K.h.k * : & .     X e q s q q q q Z ^ #.o.| P P P P P Z P ' O.#.( { s q s q s q q e o     . = * * k q.u.u.u.u.p.c.c.c.c.c.P.P.P.P.P.",
"v.c.c.H.j.p.i.i.i.b.c.c.c.c.H.H.h.u.p.M &       X X X O X X X % s ' ^ ! P P P P P P P P P ' ' C % O X X X X + o .     & m q.9.u.h.p.u.u.u.p.c.c.c.c.c.P.P.P.P.P.",
"v.v.H.c.h.p.u.i.i.j.c.v.c.c.L.P.P.P.P.u.:                     X q J f g P P P P P P Z P J J J q X                     : y.c.c.c.k.p.u.u.u.d.J.H.J.c.H.P.P.P.P.P.",
"k.k.k.b.g.f.f.f.f.c.H.H.H.H.P.E.Y.U.U.i.*                     + q P P P P P P P P H P f P H Z w o                     : y.H.H.H.c.u.u.u.u.p.k.k.k.k.k.v.v.v.v.H.",
"p.f.p.p.j.b.b.b.b.K.P.L.P.P.R.E.H.k.c.0.j $ $ $ + X X $ 6 w G 6 w q q q q s q s Z ! ! ! ! ! { P V G 6 6 $ X X O $ $ % < 8.u.u.h.c.p.u.u.u.u.u.p.u.u.u.f.f.f.f.p.",
"u.p.i.i.j.c.c.c.J.P.P.P.P.P.T.K.N : > j ] _ [ ] s q q I <X9X9X,Xe O X X X X X , / ^.B.B.B.B.B.^.<X9X9X<XI q q f ] [ [ ] j : : k p.u.p.u.u.u.u.u.u.u.u.p.i.i.i.i.",
"p.p.i.i.j.c.c.c.c.L.P.P.P.L.T.k.:     $ [ 4.2...] J H *.8XyXyX9X6 .           ; / A.C.C.A.A.C.].eXyXyX0X*.f P ] >.1.1.[ $     : y.u.u.u.u.u.u.u.u.u.i.p.p.i.p.i.",
"i.p.p.i.j.c.c.c.c.L.P.P.P.P.T.J.z     $ [ 1.1...] f s *.8XyXyX9X6 .           @ / Z.C.C.C.C.C.].wXyXyX0X*.s f ] ..1.2.[ #     : y.a.y.i.u.i.u.u.u.u.u.p.p.i.i.p.",
"p.p.p.p.b.H.H.H.H.K.L.H.M.M.I.D.F 7 7 w  .1.1.1.=.*.*.1X0XyXyX8XT 6 6 7 , ; @ F ~.].].].].].].4XeXyXyX0X1X*.*.=.=.1.1. .w 7 7 F t.r.t.r.w.y.u.q.u.e.u.p.i.p.p.i.",
"h.h.j.g.H.P.P.P.P.H.c.l.D A A +.%./././.2.1.1.%X9X8X8X0XuXyXyXuX8X9X9X<X(./ / ~.7XtXwXwXtXwXtXeXuXyXyXuX0X8X0X4X4.1.1.4.`./././.A A A D 0.q.q.q.q.q.q.i.p.i.p.i.",
"h.j.j.g.H.P.P.P.P.H.c.z.D J H | 3X5X5X3X4.1.1.2XqXyXyXyXyXyXyXyXyXyXyXeX].Z.A.].wXyXyXuXuXuXyXyXyXyXyXyXyXyXyXqX2X1.1.4.3X5X5X{.| H H C t.q.q.q.q.q.q.p.i.p.i.p.",
"h.j.h.h.H.L.P.P.P.H.c.z.A J J | 3X5X3X3X4.1.1.2XqXuXyXyXyXyXyXyXyXyXyXwX].Z.Z.].wXyXyXyXyXyXyXyXyXyXyXyXyXyXyXqX2X>.2.4.3X3X5X4X| H H A t.q.q.q.q.q.q.u.p.p.p.i.",
"h.h.h.h.H.P.P.P.P.H.c.N.D J H | _.3X3X3X2... .2XqXyXyXyXyXyXyXuXiXrXiX7X].G.F.).7XrXrXrXrXrXrXeX0X8X0X0XuXyXyX0X2X....2.3X3X3X`.| f P A t.q.q.q.q.q.q.p.u.p.p.p.",
"h.h.h.h.c.H.K.H.K.c.b.s.A H H } 3.'.'.`.| ] ] *.8XyXyXyXyXyXyXiX6XoX6XoX|.}.}.|.XX6XoXoXoXoXoX3X/.*.*.1X0XyXyX0X*.] ] | `._.'.`.} H f A t.q.y.q.q.q.u.p.u.u.p.p.",
"v.c.H.H.h.f.p.f.p.p.a.e.A J f } 3._._./.{ P f *.8XyXyXyXyXyXyXrXoX.X.X.X X X X.X.X.X.X.X.X.X X).{ f s *.8XyXyX8X*.Z g ' 3._._.`.{ H P A r.u.f.h.h.h.h.u.p.p.p.p.",
"v.c.c.c.j.i.p.u.p.p.p.r.A Z H { 3.'._.3.} J f *.0XyXyXuXyXyXyXrX6X.X X X X X X.X X X X X X X X).O.P J *.8XyXyX0X*.g H } 3._._.3.{ P P A w.i.f.h.h.h.g.i.p.p.p.u.",
"c.v.c.v.j.p.p.u.i.p.p.r.D A A +.%.3.3.$.f q q I <X9X9X9XtXwXwX7XXX.X X X X X.X X X X X X X X X).#.' ' $.<X9X9X<XI q w P $.3.3.%.{ A A D w.f.f.j.h.h.h.i.i.p.p.i.",
"c.c.c.c.h.i.u.u.i.i.p.p.r.r.d.D.+.} } P % X X $ 7 6 6 T ~.[.].].|. X X X X X X X X X X X X X X}.^.V.V.( V G 6 6 $ X X , Z } } { B e.r.r.i.i.g.g.h.h.j.i.p.p.i.i.",
"k.k.k.b.g.f.f.h.h.h.g.g.g.f.H.M.D P P q X             @ / Z.C.F.}. X X X X X X X X X X X X X X}.G.C.A./ @ .           X q g Z A r.g.j.g.g.g.b.j.h.k.j.i.i.i.i.i.",
"p.p.p.f.h.c.c.b.c.K.K.L.P.L.K.z.D P P w X             ; / C.C.F.}. X X X X X X X X X X X X X X}.G.C.Z./ ,             X q P P A N.L.L.L.L.K.c.c.c.c.c.y.p.i.i.i.",
"u.u.u.u.j.c.c.c.c.K.U.P.P.P.H.l.D A A C 7 1 1 1 3 4 4 6 B.Z.C.F.}.}.}.}.}.}.}.}.}.}.}.}.}.}.}.).F.C.C.B.e 4 4 4 3 5 5 7 C D A D l.P.P.P.P.L.c.v.v.v.c.y.u.u.i.u.",
"u.u.u.y.h.c.c.v.c.K.P.P.P.P.H.c.z.z.z.x.L L #XOX$X$X@Xm.(.Z.A.A.F.F.F.F.F.F.).A.G.G.G.G.G.G.G.F.A.Z.C.(.m.$X@X#XOXOXOXY x.z.N.M.H.P.P.P.P.L.c.c.c.c.v.u.u.p.u.p.",
"u.u.u.u.j.v.v.v.v.K.P.U.P.P.H.J.c.c.b.n.m.-X;X:X>X>X>X=X~.C.S.S.C.C.S.C.A.C.C.C.C.C.C.C.A.A.C.C.Z.C.C.~.=X>X>X>X:X-X:X&Xn.v.v.v.v.P.P.P.P.P.v.c.c.c.c.y.u.u.u.u.",
"p.p.p.p.k.H.H.H.v.K.L.L.L.L.v.v.K.v.K.x.m.>X:X:X>X>X>X=X/.A.A.A.A.A.A.S.A.C.A.A.A.A.A.A.A.A.A.S.C.A.A.~.=X>X>X>X:X;X-X&Xn.K.H.H.K.U.U.U.U.P.H.H.H.H.H.y.u.u.u.u.",
"h.h.h.h.J.P.P.P.U.v.v.v.c.c.K.P.P.P.U.n.m.L OXOX@X$X$Xm.(.~.~.~.S.Z.A.S.V.B.B.B.B.B.B.V.C.C.C.S.~.~.~.(.#X$X$X@XOXOXL m.n.P.L.P.Y.Q.Q.Q.Q.R.P.P.P.P.L.y.u.u.u.u.",
"h.h.h.h.J.P.P.P.P.v.c.v.c.c.L.P.P.P.P.a.l 3 3 3 3 4 3 G m.=X=X=X~.Z.A.V.( ' ! ! ! ! ! ( V.A.A.~.m.=X=X&XG 1 4 4 3 3 3 l g.P.P.P.P.Q.Q.Q.!.Q.P.P.P.P.P.y.u.u.u.u.",
"h.h.h.h.H.P.P.P.U.v.v.c.c.c.K.P.P.P.P.p.:             3 $X>X>X=X~.Z.A.B.' H P H H H H ' B.A.A.~.,X>X>X-X1   . .       * u.P.P.P.U.Q.!.Q.!.!.P.P.P.P.P.y.u.u.u.u.",
"h.h.j.g.H.P.P.P.P.v.v.c.c.c.K.L.P.P.P.u.-             1 @X>X>X=X~.A.F.V.' H P P P P J ' V.A.S.~.*X>X>X@X4             - i.P.P.P.P.Q.W.!.!.Q.P.P.P.P.P.y.u.u.u.u.",
"h.h.h.g.v.P.P.P.U.v.v.v.c.c.L.P.P.P.P.i.:       2 1 2 G $X>X>X*X+./ / D C q s q q q q C ( / B.D *X>X>X@XG 1 4 O .     * u.P.P.P.P.Q.!.!.Q.R.P.P.P.P.P.y.u.p.u.p.",
"i.p.p.i.j.v.J.v.c.K.P.L.L.P.P.P.P.P.P.f.>     2 K OXOX#X$X;X;X#X6 ; ; ; X X X X X X X $ ; ; ; 6 Y :X-X-X+XL OXK 2     - q.v.v.v.H.Y.U.U.P.P.H.J.H.v.H.b.J.c.b.k.",
"i.i.p.i.j.c.v.v.c.L.P.P.P.P.P.P.P.P.P.f.>     3 OX-X-X-X-X-X-XL 1                             2 OX;X-X-X-X-X;XOX4     - q.v.c.c.H.P.P.P.P.P.c.v.c.c.c.J.c.c.v.v.",
"p.p.p.i.g.v.v.c.c.L.U.P.P.P.P.P.P.P.P.h.:     4 OX;X-X-X-X-X:XOX4 .                           2 OX:X-X-X-X-X:XOX1     * q.v.c.c.H.P.P.P.P.P.c.c.c.c.v.c.c.c.v.v.",
"p.i.i.i.j.c.v.c.c.L.P.P.P.P.P.P.P.P.L.k.N > > l K OXOXOXOXL OXK 4 * * * * * * * * * = * & = = 7 K OXOXOXOXOXOXK l - - k y.c.c.v.J.P.P.P.P.P.c.c.v.c.v.c.v.c.c.c.",
"p.p.p.i.j.c.c.c.c.L.P.P.P.P.P.P.P.P.L.P.H.k.J.w.< 4 4 1 1 4 1 < N 8.6.8.7.8.7.6.5.5.6.5.M m m N 7 1 2 2 4 1 4 < 8.u.u.h.b.c.c.c.v.P.P.P.P.K.c.c.c.c.c.c.v.c.c.v.",
"i.i.p.i.i.i.i.i.i.j.c.b.c.c.K.P.P.P.P.P.P.P.P.p.*             & q.H.K.P.P.U.U.H.h.h.h.k.p.q.q.M =             * q.c.c.v.P.P.P.P.P.P.P.P.P.P.v.v.v.v.c.v.c.c.v.c.",
"p.i.p.i.p.i.i.p.i.b.c.c.c.c.K.P.P.P.P.P.P.P.P.u.*             * q.c.K.P.P.P.P.H.h.h.h.h.f.q.q.m =             * 9.v.c.H.P.P.P.P.P.P.P.P.P.P.c.c.c.c.c.c.v.c.v.c.",
"p.p.i.p.i.p.p.i.i.j.c.c.c.c.K.P.P.P.P.P.P.P.P.h.z = * & & * * k y.c.H.P.P.P.P.H.k.h.h.h.p.e.q.M > = & & = * * z u.v.c.H.P.P.P.P.P.P.P.P.P.L.v.c.c.v.v.c.v.c.c.c.",
"i.i.p.i.i.p.i.p.i.b.b.c.c.c.K.P.P.P.P.P.P.P.P.K.q.8.5.5.6.7.9.y.k.c.K.P.P.P.P.K.h.j.h.h.p.q.q.9.M m 6.5.5.5.6.y.k.v.c.H.P.P.P.P.P.P.P.P.P.L.v.v.c.c.v.c.c.c.v.v.",
"p.p.i.p.p.i.p.i.i.j.c.c.c.c.K.P.P.P.P.P.P.P.P.P.b.p.i.p.i.h.c.c.c.c.K.P.P.P.P.H.h.h.h.k.p.q.q.q.q.y.u.p.p.i.f.c.v.c.c.H.L.P.P.P.P.P.P.P.P.P.c.c.v.c.c.v.v.c.c.c."
};
