/* XPM */
static char *wall[] = {
/* columns rows colors chars-per-pixel */
"80 80 256 2 ",
"   c #39381D",
".  c #1D1B36",
"X  c #1E1A2F",
"o  c #360B2C",
"O  c #221333",
"+  c #221C3A",
"@  c #241A36",
"#  c #2F112E",
"$  c #1C2739",
"%  c #1D363C",
"&  c #23263A",
"*  c #25383B",
"=  c #33312E",
"-  c #480D2E",
";  c #581435",
":  c #4E1332",
">  c #671634",
",  c #761A36",
"<  c #4B332A",
"1  c #722B36",
"2  c #46361D",
"3  c #3C4D15",
"4  c #1C473E",
"5  c #394724",
"6  c #284839",
"7  c #2A5638",
"8  c #365935",
"9  c #37502E",
"0  c #39662C",
"q  c #356835",
"w  c #377636",
"e  c #307033",
"r  c #1E663C",
"t  c #445918",
"y  c #4A4818",
"u  c #436601",
"i  c #456E00",
"p  c #476B04",
"a  c #457100",
"s  c #497400",
"d  c #4D7A00",
"f  c #517C03",
"g  c #4E6E17",
"h  c #46552D",
"j  c #476838",
"k  c #4A7430",
"l  c #6A7228",
"z  c #6C572F",
"x  c #1D2C43",
"c  c #1D2543",
"v  c #1C3647",
"b  c #1C3D52",
"n  c #222943",
"m  c #243847",
"M  c #343D49",
"N  c #672E47",
"B  c #1A4749",
"V  c #1A4A57",
"C  c #195658",
"Z  c #1C564C",
"A  c #234946",
"S  c #255846",
"D  c #234556",
"F  c #225954",
"G  c #374F4F",
"H  c #196859",
"J  c #187758",
"K  c #196E4C",
"L  c #286847",
"P  c #257957",
"I  c #29714D",
"U  c #185A65",
"Y  c #1A4E61",
"T  c #265865",
"R  c #176769",
"E  c #187769",
"W  c #176A74",
"Q  c #167977",
"!  c #0D766B",
"~  c #276E69",
"^  c #765043",
"/  c #4E744C",
"(  c #697155",
")  c #6C736C",
"_  c #535A57",
"`  c #8A1E38",
"'  c #932739",
"]  c #AB303D",
"[  c #953747",
"{  c #AD3942",
"}  c #871D41",
"|  c #BA4F4F",
" . c #946961",
".. c #C74642",
"X. c #D65449",
"o. c #E45A48",
"O. c #E86754",
"+. c #E67964",
"@. c #D97063",
"#. c #877A39",
"$. c #368738",
"%. c #38963A",
"&. c #318A30",
"*. c #36AE36",
"=. c #1E8F39",
"-. c #548400",
";. c #568901",
":. c #598D00",
">. c #59860B",
",. c #5C9100",
"<. c #5F9404",
"1. c #598811",
"2. c #649A00",
"3. c #669A05",
"4. c #699219",
"5. c #4DAE1C",
"6. c #66A300",
"7. c #69A600",
"8. c #67A800",
"9. c #69AB00",
"0. c #69A40C",
"q. c #73AD01",
"w. c #6EB200",
"e. c #73B600",
"r. c #75B900",
"t. c #7ABE01",
"y. c #77B80B",
"u. c #70A916",
"i. c #488A2B",
"p. c #488538",
"a. c #4F932E",
"s. c #6B912B",
"d. c #46BA38",
"f. c #4FB22D",
"g. c #6DAE32",
"h. c #32C72F",
"j. c #57CE1C",
"k. c #7CC500",
"l. c #7FC800",
"z. c #77C202",
"x. c #66D71C",
"c. c #75DB1C",
"v. c #67C91A",
"b. c #57C826",
"n. c #57D327",
"m. c #48C436",
"M. c #57C937",
"N. c #4DCD2D",
"B. c #66CB29",
"V. c #68D525",
"C. c #76DA28",
"Z. c #65CB36",
"A. c #78D738",
"S. c #6CD132",
"D. c #7AE221",
"F. c #188B54",
"G. c #268858",
"H. c #269758",
"J. c #2E8F49",
"K. c #35A748",
"L. c #37B548",
"P. c #2AA956",
"I. c #36A656",
"U. c #2DB150",
"Y. c #198868",
"T. c #168779",
"R. c #1A9877",
"E. c #15926F",
"W. c #259766",
"Q. c #278E6D",
"!. c #24A766",
"~. c #27AC67",
"^. c #1CA368",
"/. c #4E8A4E",
"(. c #6F9252",
"). c #46B546",
"_. c #50B049",
"`. c #6A8B6A",
"'. c #64AC55",
"]. c #38C245",
"[. c #50C543",
"{. c #70CE4C",
"}. c #7DD470",
"|. c #859137",
" X c #84B923",
".X c #81CC00",
"XX c #82C504",
"oX c #86D300",
"OX c #8ADB00",
"+X c #8AD605",
"@X c #8FD70A",
"#X c #93E500",
"$X c #98EB00",
"%X c #9DF500",
"&X c #91E103",
"*X c #A1F600",
"=X c #A8EE1A",
"-X c #86DC28",
";X c #86D934",
":X c #8EE434",
">X c #89B15C",
",X c #F09176",
"<X c #E29A71",
"1X c #86DA46",
"2X c #89D854",
"3X c #8CE249",
"4X c #98E558",
"5X c #99E64C",
"6X c #A6EA53",
"7X c #8FD071",
"8X c #A5DA75",
"9X c #9AE367",
"0X c #A7E968",
"qX c #A8E674",
"wX c #B6ED78",
"eX c #B8F175",
"rX c #B2EE6B",
"tX c #C1F27C",
"yX c #177D80",
"uX c #207E80",
"iX c #168886",
"pX c #169588",
"aX c #189997",
"sX c #0F918D",
"dX c #208E8A",
"fX c #1AA593",
"gX c #11ACA7",
"hX c #27A481",
"jX c #6C8687",
"kX c #0AC1B5",
"lX c #90A98D",
"zX c #A9ABA1",
"xX c #EF9C84",
"cX c #F3B092",
"vX c #D6A596",
"bX c #9BCB8D",
"nX c #ACD88B",
"mX c #B9EB86",
"MX c #B6E895",
"NX c #B2DE9D",
"BX c #EAD093",
"VX c #C4F289",
"CX c #CAF396",
"ZX c #CBF298",
"AX c #F1C9AE",
"SX c #C8EAA9",
"DX c #D8F8A9",
"FX c #DAF6B7",
"GX c #CFF1AF",
"HX c #E3FDB9",
"JX c #C9D1AF",
"KX c #EBFBCC",
"LX c #E5F9C6",
"PX c #EDFAD4",
"IX c #EAF4D3",
"UX c #D9E9C8",
/* pixels */
"7.2.r.r.l.e.k.t.2.7.2.2.2.2.<.2.<.2.<.<.6.<.<.6.<.6.<.6.2.2.<.6.<.6.3.<.0.1.3.3.3.3.0.0.<.3.3.3.<.<.6.<.2.2.2.2.2.2.2.2.2.2.2.<.6.<.6.<.6.<.<.6.<.6.<.6.2.2.2.<.",
"7.7.9.9.9.e.e.e.e.9.7.7.6.8.9.9.8.9.9.r.k.l.l.k.r.9.8.9.7.k.OXOXOX+X@X+X+X+X@Xl.z.z.z.XXz.l.l.k.l.r.2.6.2.2.3.XXXXk.k.k.l.k.l.l.l.OXOXOXOXOXl.l.l.l.z.e.e.e.r.r.",
"7.7.8.7.w.e.e.e.e.q.7.7.8.8.8.9.9.8.9.e.k.l.l.l.e.9.9.8.7.k.oXOXOX@Xv.u.u.4.s.i.0.u.|.XXXXz.l.XXXXe.2.2.3.3.3.XXk.l.k..Xk.l.k.l.l.OXOXOXOXoXl.l.k.l.k.r.e.e.e.e.",
"7.8.7.7.e.e.e.e.e.9.7.7.8.9.8.8.9.9.9.r.k.z.l.k.r.9.8.9.9.k..Xk.k.y.u.s.(.(.`.) (.a.(.s.u.y.z.l.k.r.2.2.3.3.3.XXXXk.l.k.l.l.l.k.l.OX&XOXOXOXl.k.k.l.k.e.e.e.e.e.",
"7.7.7.7.e.e.e.e.e.9.7.7.7.7.8.9.9.9.9.r.XX.XXXXXe.9.9.7.7.k.u.4.k q a.{.nXGXUXUX7Xf.w 7 9 k u.XXXXe.2.2.2.2.7.XXk.k.k.XXl.l.l.l.l.OXOXOXOXOXl.k.l.l.l.e.e.e.e.e.",
"w.w.9.w.e.t.r.k.k.r.e.e.e.e.e.9.w.e.9.w.w.e.e.e.9.8.3.6.>.k a.'.>XlXbXMXGXGXFXLX0XB.5.g w &.k 1.e.q.3.7.7.3.3.q.q.q.q.e.k.k.l.k.l.oXoXl.l.l.r.r.e.r.w.9.w.9.9.9.",
"e.e.e.e.t.k.l.k.k.k.k.k.k.k.t.e.e.e.r.w.9.9.0.q.6.<.2.3.g = a.{.nXJXFXFXGXZXDXLXrXc.v.5.5.=.7 j 6.7.0.q.7.q.7.3.2.3.2.q.t.l.k.l.k.l.l.k.l.z.9.9.9.8.9.9.7.7.9.7.",
"e.e.e.e.r..Xk.l..Xl.k..Xk.l.t.e.e.e.r.9.9.u.u.u.0.3.3.3.g & g.9XmXZXGXFXFXGXDXFXrX-Xc.x.h.h.r 0 3.u.0.0.0.0.0.3.3.2.2.7.k.k.l.l.l.k.l.l.l.z.9.9.9.9.8.8.7.7.8.7.",
"e.e.e.e.k.k.l.k.k.k..Xk.k.k.t.e.e.e.e.w.u.u.s.g h 9 h 5 3 6 >X6X4X6XwXZXFXFXHXHXrX-Xc.x.b.*.r 9 9 9 t 9 9 h g 3.0.u.u.u.XXXXt.XXk.l.k.l.l.k.9.9.8.9.7.9.7.8.9.9.",
"e.e.e.e.r.l.l.k..Xk.k..Xk.k.t.e.r.e.3.1.0.g.g.(.(.( / j 0 0 (.>XA.;X5XeXtXVXVXVX6XC.V.b.d.&.e 0 k 0 j j h q k 5.s.l |.s.XXXXk.XXl.l.k.l.k.r.9.9.8.9.9.7.8.9.8.9.",
".XoX.XoX.Xl.k.l.k..XoXoXoXoX.Xk.t.t.g 6 f.{.rXZXDXZX4X;Xj.b.7 9 s.C.-X-X-X-X-X-Xc.x.*.U.K n i.f.v.x.C.V.x.x.j.N.L G ) s.e..XXXk.k.r.w.9.w.e.r.r.z.z.t.k.k..Xk.l.",
"OXOXOXOX.Xk.l.k..XoXOXOXOXOX.Xk.t.a.p.p.7XSXDXLXKXLXGXmX4XC.a.$.p.p.f.C.V.V.x.x.x.b.$.r I a.>XnXmXmXmXmXmXqX2Xn.$.S _ G l .Xk.l.z.9.9.9.w.e.k.l.k.z.k.OXOXOXOXOX",
"OXOXOXOXoXl.k.l.l.oXOXOXOXOXoXl.r.w w f.NXFXLXFXPXPXPXFXeX:Xf.$.q 7 k m.f.5.5.f.f.*.q S j B.8XGXFXHXHXFXDXMX9Xn.%.K D m h k.l.l.z.9.9.9.9.7.k.l.k.l.XXOXOXOXOXOX",
"OXOXOXOXoXk.l.l.k.OXOXOXOXOX.Xl.z.0 &.n.SXFXGXSXLXPXPXDXtX:Xd.J.A * 8 $.&.&.$.$.$.e 6 6 k v.mXFXKXKXIXLXZXwX3Xx.*.J C $ 5 oXk.l.z.9.9.8.9.w.k.l.l.l.l.OXOXOXOXoX",
"OXOXOXOX.Xl.k.k.k.OXOXOXOXOXl.l.r.0 &.[.SXSXqX9XSXIXIXDXrX:X).J B x * 6 6 * * * * * m 6 w x.wXFXKXIXKXHXmX3Xx.V.*.J C x 5 l.l.k.z.8.9.8.8.9.k.k.l.k.l.OXOXOXOXOX",
"%X$X$X$XOXOXoXoXOXl.oXl..XoXoXoXk.k &.h.7X9X6X6XrXtXwX0X2X[.P.J B * 6 w (.) (./.p.k 6 6 w x.4XqXwXwXwXrX5XA.V.K.H.Y.C & 5 w.w.r.e.r.z.z.r.e.e.w.r.w.r.l.oXoX.X.X",
"%X%X*X%X$XOXOXOXOXl.v.r.y.z.c.z.y.q =.*.h.n.3X6X5X:XD.S.L.F.E.J C G K.{.MXCXVXrX:Xb.e 0 k f.b.b.v.C.D.C.C.S._.! T.! U c = 4.0.0.0.u.y.k.k.k.9.w.9.9.9.l.l.l.l.k.",
"*X*X*X*X%XOXOXOX&Xu.j / $./.a.k 7 6 =.h.h.h.n.V.n.h.N.[.U.^.H ~ jXlXNXMXFXLXHXDX9XV.5.a.w q %.d.n.V.M.).)._.I.T.sXsXW c * J.J./ / / s.k.k.t.9.9.9.9.9.l.k.k..Xk.",
"*X*X*X*X#X@XOXOXy.(.`.`.`.'._.w 6 4 r %.=.*.L.*.h.U.U.H.F.J ~ jXzXJXSXNXFXPXKXKXmX3XC.f.5.7 w J.*.m.).H.G.G.P Q ! yXU n % F././ / w / g. X X9.9.9.9.9.l.k..Xk.k.",
"*X*X*X*X$X+X+X-X/.jXzXlXbXbX'.&.6 * S L I e K J.=.P.F.F.J Z jXzXUXUXSXbXGXIXPXPXDXeX3Xc.5.w q r I K.P.Y.! U C F R R Y m 4 K /._.g.a./ (  X X9.9.9.9.9.l..Xk.l.k.",
"*X$X$X*X#X$X-X(./ /.UXUXSXSX>Xp.h G M D G G G S J Y.Y.! H S zXIXIXIXbX{.ZXFXKXLXLXDX0X:Xx.j.w 6 B J Y.! C B 6 M M G M A 7 J _.;X:XB.i.q s.@Xy.y.e.e.e.z.z.k.r.k.",
"OXOXOXOX$X Xs._ a.g.9X9XqX8X/./ `.`.lXzXzXjX'.%.S v v B r J.NXPXIXIXGXMXHXHXLXHXFXDXeX5X-Xv.%.S B b v B 7 e /.(.(.(./.a.e B k g.D.c.5.&.p.p.s.y.k.l.k.e.e.e.e.r.",
"OXOXOXOX$Xg.G q 5.c.c.C.g.'._ jXbXNXFXPXPXGXbX{.k * X = q m.nXFXIXPXPXPXKXHXHXHXHXDXVXrX:Xx.K.K B . $ G k '.9XmXmXqX9X{.f.6 j a.5.n.j.*.e G / y.k.l.k.e.e.e.e.e.",
"OXOXOXOX$Xg.P $.5.c.C.a.w G zXJXUXKXPXPXPXKXLXGX{.&.7 * 0 h.{.9XSXLXPXKXHXHXHXHXHXDXVXtX5Xx.K.J V $ 8 g.8XSXLXIXKXLXFXFXNXg.i.8 * f.n.f.J.Q.`.z.l.k.k.e.e.e.e.e.",
"OXOXOXOX#Xf.I $.N.B.i.k w / NXIXKXPXPXKXSXGXFXFX2Xi.9 6 e h.j.1X9XMXFXKXLXHXHXHXHXDXVX0X1Xv.K.J V n j 1XnXFXIXGXFXLXHXHXwXg.a.e B e %.*.H.P /.u.k.l.k.e.e.e.e.r.",
"t.t.t.t.4.k P J.m.f.6 8 w d.JXLXKXKXIXHXnXmXZXDX2X5.9 * e h.V.;X3X9XmXFXFXHXHXHXDXCX0X1XC.V.I.P V + j 1XmXFXLXnXSXLXHXZX0Xc.f.I Z B e I.W.E ~ 1.y..XoXz.r.k.z.r.",
"9.9.q.7.X 4 P H.m.*.X 9 a.S.mXFXHXKXPXHX8X8XtXCXS.5.7 6 r h.}.4XA.C.3XmXDXDXDXHXZXqX1XV.V.:X_.E V $ j 2XqXFXFX8XCXFXDXeX5Xc.d.G.R $ m G.Q.Y.C & 4.@XOXk.l.k.l.k.",
"7.7.7.7.X B H H.*.*.X 7 &.b.A.qXFXKXPXIXDXCXrX6Xn.5.7 * K h.nXMX4XA.S.A.eXCXDXDXqX;XV.x.C.6X`.Y.V c j S.9XZXKXFXHXHXZXrX-Xv.d.H.R c m ~ T.Q U + l @XOXk.l.k.l.l.",
"7.7.7.7.$ % D P H.J.. 7 i.j.x.1XwXVXZXCXVXrX5X-XN.*.7 % Z P.7XqX4X3XC.x.3X9X0X0X;XV.x.n.S.'.W.E V c 0 b.{.0XVXCXVXtXrX:XC.d.K.Y.R c x U U U b @ 1.@XOXXXXXk.l.l.",
"7.7.7.7.. + n M F C . 7 &.N.V.-X-X;X-X;X-X-XC.C.m.=.A % B F.*.[.4XrX3Xj.x.x.x.x.x.x.x.V.).T.E R V c 0 v.x.V.C.-X-X-X-X-XM.H.E.T.W c x C b + . O s.-XoXk.XX.Xk.l.",
"7.7.7.7.$ _ (.(._.p.$ 7 %.].b.B.B.S.S.Z.g.Z.f.g.P.W.D x % K *.N.{.{.{.b.V.D.c.c.B.d.)._.~.pXQ R V . 8 5.n.n.B.S.B.Z.M.d.L.Q.R.iXT.x v T F A m @ s.=X$XoX.XoXoX.X",
"7.7.7.7.$ / 7X8X1Xa.X S J U.L.m._.d.d.d.d.d.I.W.hXpXV x $ B =.m.h.m.m.m.S.A.;XC.).I.W.W.R.gXQ U v $ 0 d.m.m.m.M.d.).I.I.Q.T.pXpXiXx x F P I A O 4.=X*XOXOXoXOXOX",
"7.7.7.7.$ ) 8XwX5X5.= 4 K G.H.K.~.U.U.U.U.!.Q.iXaXdXV % $ % w *.L.*.*.*.[.[.{.{.I.R.T.iXpXaX~ D x & 7 %.*.L.L.L.U.P.^.T.iXuXiXiXyXx v I G.G.L n s.=X*XOXOXOXOXOX",
"7.7.7.7.$ ( >X4X:X5.&.8 6 % m P ^.hXhXR.hXhXpXdXT D A S S F A 7 F.U.U.*.P.^.F.^.Q.iXfXgXuXm D F F F A 6 I H.!.W.R.hXhXgXaX~ T b x x V H Q.P F & s.=X*X#XOXOXOXOX",
"7.7.7.7.$ w '.S.V.B.5.e 6 & & A E T.T.Q T.Q T.Q Y A L I J.J.7 A r I J.F.F.E.E.T.T.uXdXdXW $ F ~ P P L 6 S ~ Y.E E E T.aXuXF m x $ A Z ! Y.Y.H n s.=X*XOXOXOXOXOX",
"e.e.e.e.$ r *.d.N.f.i.w r 4 & * D D D V V V V V S q %.%.).*.w 8 S 6 4 Z Y.T.T.iXW W W T T V H G.H.I.J.q L S D V V V D T V & n v x B C H T.T.R n s.=X*X#X#X&X#X$X",
"oXoXoXoX. S K.U.^.F.$ 4 K F.$ X @ . @ . . . $ & w f.b.B.n.n.b.a.6 & . v R Q iXQ R D m n B Y.Y.W._.[.b.B.k 6 $ . @ @ @ . O O x B C $ v R aXgXuXn s.=X*X*X*X*X*X*X",
"OX&XOXOX. S W.^.^.E . 7 /.f.i.e 7 % $ & 7 e k a.{.7X'.{.2XqXA.f.a.$.7 B b b b b v n b F H Y.I.I._.d.S.;Xg.a.k F v & & m B B C C C $ v ! gXgXuXn s.=X*X*X*X*X*X*X",
"OXOXOXOX5 L Q.Q.R.E . 8 f.A.S.M.%.r % $ =.f.g.;XwXZX}.7XbXDX4XS.B.b.%.C c . X O O % Z G.H.~.[.}.{.'.{.5X-XS.M.Y.V & m F I P P J H $ b W aXaXuXh  X=X*X*X*X*X*X*X",
"OXOXOXOXy.p.T R W C @ 8 a.S.3X{.d.e 6 = &.d.S.:XeXSXnXbXSXDXeX5XC.b.=.! v $ X O $ Z $.).{.bXqXqXqX8X4X:X-XV.d.E.V n m F J.'.K.G.H n c Y T T /.@X*X*X*X*X*X*X*X*X",
"oXoX.XoXt.k _ b D b O 6 %.[.9X9XA.a.9 $ =.d.S.:XeXCXCXMXDXCXtX6X{.M.K.E B x . . x L %.M.3XmXmXmXCXMX0XD.C.V.).E.C n m Z I.1X_.H.R & + & m / g.&X$X#X#X$X$X$X$X$X",
"l.l.l.l.e.4._ h A * = 7 G.[.9X4XC.a.9 & F.L.[.A.4XeXeXeXrXrX0X4XA.N.K.! B x $ $ v 7 i.B.3XeXeXeXeXeX4XD.n.[.I.pXF & * H J.g._.Q.! n O & h g k..X.X.X.XOX&X#XOX&X",
"l.k.k.l.t.9.7.u.g h h 8 P U.N.x.x.a.9 * F.P.U.h.n.x.x.x.x.x.x.V.n.m.P.Q B v x Z m * $.f.n.D.D.D.D.D.c.V.[.~.pXpXT n v Z J H iXiXiXn # = >.q.XXXXk..X.XOXOXOXOXOX",
"k.l..Xk.e.9.9.u.3.g = A G.~.U.[.n.f.w 4 Z J P.U.U.L.N.m.N.[.L.L.K.H.E.yXV v B P A A I K.].N.N.N.N.N.m.).I.R.sXaXU n * Z H R T.pXiXm   f 3.e.t.XXXXk..XoXOXOXOXOX",
"k.l.k.l.e.9.9.u.9.1.& A J ^.^.P.d.d.=.S 4 Z G.H.E.^.U.L.L.U.W.R.R.Q.Q R V A L J.L 8 I G.P.L.h.].].].U.R.iXsXdXsXC x v Z R E iXaXdXm h 7.7.9.k.k.k..Xl.OXOXOXOXOX",
"r.z.r.r.e.e.w.w.w.4.# A U T.sXR.I.K.K.J.* m F J T.E.^.P.!.R.pXiXyXQ W C C I %.*.i.q I H Y.~.^.^.~.~.^.sXaXaXaXW V x v C E sXaXfXaXb h 6.7.8.t.e.r.e.r..Xl.l..Xl.",
"w.w.w.w.r.z.z.z.t.0.n M V R sXpXR.!.U.K.m n b C ! sXT.R.pXpXiXiXyXW Y v I %.*.j.b.f.r B C pXR.T.sXE.sXsXaXgXsXv x b V R yXaXgXgXfXD h 7.7.7.e.9.7.9.7.r.w.9.w.w.",
"9.9.9.9.r.z.k.l.XXXXl a.q b U W T.R.^.W.Z b m n V U U U C U U W W R K e f.d.j.x.x.f.w Z Y W R U U U U U W yXY . v V W iXyXW W W ~ j 1.7.7.7.7.7.7.7.8.9.9.8.8.9.",
"7.8.9.8.r.l.l.k.z.oXOXOX0.= = D ~ pXpXpXE C v $ @ @ @ + + + + v Y E K.d.n.n.j.n.n.m.H.~ U D n + . . O O O n + + V W yXaXyX= = = h 1.7.7.7.7.7.7.7.7.7.7.9.9.8.9.",
"9.9.9.8.r.z.l.l.l.oXOXOX.Xy.l.s.T T W T.T.E R V x & O O O O O x U E E.P.U.U.L.U.I.I.hXaXaXuXY n X O O O n b V V R Q yXU H 0.y.y.y.7.7.7.7.7.7.7.q.6.7.7.8.9.9.8.",
"w.9.9.w.r.oXoXl.oXoXoXoXoXoXz.4.k G T ! E E R R V v x c O O O c V W T.E.R.^.pXR.R.R.aXaXaXdXT n + + + c v V U W W Q W T 8 ;.w.k.t.7.7.2.3.7.3.7.7.7.7.7.8.9.8.9.",
"r.w.r.w.l.OXOXOXOX.Xk.k.k.7.:.:.>./ G V U R U R U C Y V n O O X b V U W sXsXsXsXaXaXaXdXdXuXY n c b b b V V C Y U ~ G _ h a s 6.6.2.3.2.3.2.3.3.2.3.2.7.9.8.9.8.",
"w.r.e.e.l.OXOXOXOX.Xk..Xr.,.:.<.>.1.h @ $ x $ v R iXsXsXU O O O X . . v yXaXgXgXkXgXW b + + O n b yXiXQ U x . . @ * 1.1.f a a -.8.2.2.2.2.2.2.2.2.2.2.7.9.9.8.9.",
"w.r.e.e.l.OXOXOXOX.Xk.k.w.-.:.:.,.<.f 0 3 t t 0 S C R T S 3 3 y N : # + Y U yXyXQ W V c = g t g k V V C V m h t t p ;.;.s p i a <.2.2.2.2.2.2.2.3.3.2.9.9.9.9.8.",
"r.e.e.e.l.OXOXOXOXoX.Xk.7.-.:.,.,.,.,.,.,.,.,.:.3 6 * 9 t a u z  .N ; @ + c + c n n + @ 5 3.6.6.2.9 5 = 9 j k >.:.,.,.-.s i a i ;.2.2.2.3.2.<.6.2.3.3.7.9.9.9.8.",
"r.r.e.e.l.oXl.oX.Xk.r.k.,.d :.:.,.,.,.,.,.:.:.;.-.d d d -.s u l @.[ , ; : - o O # O # # y 2.2.8.2.,.-.;.-.>.:.-.-.;.-.-.a a i a -.6.2.3.3.3.6.8.3.7.3.7.9.9.8.9.",
"l.k.k.l.r.w.9.w.9.w.w.9.-.s -.,.,.,.,.;.;.;.-.-.d s s s s i a #.<X| { ` , ; : o # # # #   :.,.,.,.:.-.-.-.-.f d s s a a u u u u d 9.9.8.8.8.w.w.e.e.9.9.8.8.9.8.",
"l.k.l.k.e.9.9.9.9.7.9.9.s a -.,.,.,.,.;.-.-.-.-.d a i a a i i |.<X@.X.{ ' ' > - o o # #   ;.,.,.,.:.-.d -.-.f a i i i i u u u u -.9.8.9.9.9.w.e.e.e.e.9.8.9.9.8.",
"k.l.k.l.e.9.9.9.9.8.8.8.s a -.:.,.:.:.;.-.-.-.-.d a a a a i a s.<X,X+.X...] 1 ; o o # #   ;.,.,.,.:.-.-.-.-.f i i i i i u u u u ,.9.9.8.9.9.w.e.e.e.w.9.9.8.8.9.",
"k.k.l.z.r.9.9.9.9.9.9.8.s a ;.:.,.,.:.;.-.-.-.-.d a a a i a a |.ZXBX,XO...] ' , - o o #   ,.,.,.:.:.-.-.f -.f s a a i a u u u s 6.9.9.8.9.9.w.e.e.e.r.8.8.9.8.9.",
"z.r.r.r.z.w.w.e.r.z.z.z.-.-.-.;.;.:.:.-.-.d d -.d d s d s d s |.BXAX,XO.X...{ ' > - o #   -.;.;.;.-.f d f f d d s s f s p s p :.9.w.e.r.e.r.t.r.r.r.r.7.9.8.8.8.",
"w.w.w.9.e.z.z.z.z.l.l.l.6.;.-.-.-.-.;.-.s a a a d :.:.:.;.-.-.>XDXAX,XO.o.X...] ` , - -   s s s s s a s a s d -.:.:.:.-.-.f f q.XXoXOXoXoXoXl.k.k.k.k.9.8.7.8.8.",
"7.7.7.7.w.l.l.l.l.l.OXOXw.,.;.-.-.-.;.s a a i i -.,.,.,.<.;.j >XBXAXcXo.o.X...] ` > - o   i s a a a a i p a s :.:.,.,.:.-.-.:.e.l.OXOXOXOXoXk.l.k.k.l.9.7.7.8.7.",
"7.7.7.7.r.l.l.l.l.OXOXOXr.:.;.-.-.-.-.s a a a a -.:.,.,.<.;.^  .JXAX,Xo.o.o...] ` > - o # 3 0 g a a i i a p s :.,.,.,.,.-.-.3.XX.XOXOXOXOXOXl.k.XXk.z.9.7.7.7.7.",
"9.9.7.7.e.k.k.k.k.OXoXOXl.<.-.-.-.-.-.d i a a a d ,.:.:.:.f z  .vXAXcXo.o.X...] ` > - o o o 9 0 a a a i i a s :.:.,.,.:.-.:.e..Xl.OXOXOXOXOXl.l.k.l.k.9.8.7.7.7.",
"9.7.9.7.k..X.X.Xk.OXOXoXoXw.;.;.-.-.-.-.d d d d ;.,.2.,.g - lXvXAXAXxXX.o.X...' ` > - o o o # X 6 p a a a a d ;.:.:.:.;.;.9.l..XoX&X&X&XOX&Xl.oX.Xk..X7.9.7.7.8.",
"e.e.e.e.k.OXOXOXOXoXl.l.l.r.,.,.,.,.,.,.:.,.:.:.2.6.7.4.( ) vXcXcXxXO.o.o.X...] , > > > - - o o = 5 t d s s d -.-.-.-.;.6.oXOXOXOX*X*X*X%X%XOXOXOXOXoX9.8.7.7.9.",
"e.e.e.e.k.OXOXOXOXl.k.l.k.l.e.,.,.,.,.:.,.,.,.,.2.3.4.(  .vXAXcX<X+.o.o.o.....] , > > ` , - - - : = 9 d s d d -.-.-.-.,.k.OXOXOX#X%X*X*X*X%XOXOXOXOXOX7.7.7.7.7.",
"r.e.e.e..XOXOXOXOX.Xl.k.l.k.oX9.,.,.,.,.,.,.,.,.3.s. .)  .AXvXxX@.....o.o.X...] , - , ` , > ` > > ; y d d d f -.-.-.-.9.OXOXOXOX#X%X*X*X*X*XOXoXOXOXoX9.7.7.7.7.",
"e.e.e.e.l.OXOXOXOX.Xk.l.l.l.OXoXr.<.,.,.,.,.,.,.z _ zXzXvXxX@.| [ ` ] X.O.O.X.{ , ; - - , ` ' ' ` , < y p d s -.-.-.<..XOXOXOXOXOX*X*X*X*X%X&XOXOXOXOX7.9.7.7.8.",
"w.e.w.r.k.OXOXOXOX.Xl.k.l.l.oXOXOXoX9.<.,.,.,.,.y N zXvXvXX.{ } > > ` X.+.,X+...` - - o - ' ' ' ' } > # p d d -.-.,.z.l.OXoXOXOX#X%X*X%X%X*XOXOXOXOXoX8.7.9.9.w.",
"9.9.9.w.r.l.l.l.l.oXOXOXOXoXOXOXOXOXoXl.r.7.6.6.2 ; [ [ } > ; : o - ` X.xXcX,XO.' ; o o o - - > > > : # p -.-.:.9.k.OXoXl.k.k.oXoXOX&XOX&XOX.Xk..X.Xk.k.r.k.r.k.",
"8.9.9.8.e.z.k.k.k.oXOXOXOXOXOXOXOXOXOX&X%X$Xt.9.l z ^ ' N < < & @ : 1 ..xXcXcXO.[ > - o # y = : : : < t f -.,.e.oXOXOXoXl.k.l.k..XOXOXOXOXOXk..Xk.k..Xk.XXk.XXk.",
"9.8.9.8.z.z.l.l.l.OXOXOXOXOXOXOXOXOXOX#X*X*X*X#X4.l l z g h y h = < 1 [ vXcXBX,X| 1 : #   u 5 2 < < t 1.:.7.k.oXOXOXOXoXl.l.l.l..XoXOXOXOXOXk.l.k..Xk.XXk..Xk.l.",
"9.9.8.9.w.l.z.l.l.OXOXOXOXOXoXOXOXOXOX$X%X*X*X*X&X.Xk.k.k.<.a p i y : , <XAXcX,X| 1 : @   u u u u s :.9.k.l..XOXOXOXOXOXl.l.l.l..XOXOXOXOXoXk.k.l.k.l.k.k.k..Xk.",
"9.8.9.8.z.l.l.l.z.l.OXOXOXOXOXOXOXOXOX#X*X*X%X%X@XXXXXk.k.w.6.-.s t 2 >  .X.@.X.[ 1 3 3 u u u u f 2.k.XXk.k.l.OXOXOXOXoXl.k.l.l.l.OXOXOXOXOXl.k.k..Xk.l.k..Xk.k.",
"8.9.8.9.9.8.8.9.9.z.k.l.k.l.oXOXOXOXOXOXOXOXOXOXk.q.9.9.9.e.k.k.9.6.g y ] { { ' < y f -.d f :.2.2.6.9.9.9.8.9.k.k.l.l.l.OXOXOXOXOXOXOXOXOXOXl.k.l.l.l.k.l.k..Xk.",
"9.8.9.8.9.8.9.8.8.z.k.l.l.l.oXOXOXOXOXOXOXOXOXOXz.9.9.8.9.e.k..XXXk.XXq.z 1 , ; l 9.e.e.q.2.2.2.2.3.9.9.9.9.w.z.l.k.l.l.OXOXOXOXOXOXOXOXOXOXl.l.k.l.k.l.k..Xk.l.",
"8.9.8.9.8.9.8.9.8.z.k.k.l.k.oXOXOXOXOXOXOXOXOXOXt.w.9.9.7.e.k.XXl..XoXXX#.#.^ z 4.e.e.e.9.2.2.2.2.3.q.7.8.9.9.k.k..Xk..XOXOXOXOXOXOXOXOXOXOXk.l.l.k.l.l.l.k..Xk.",
"9.8.9.8.9.8.9.8.8.z.z.l.k.l.oXOXOXOXOXOXOXOXOXOXt.w.9.9.9.e.k.k.XXXX.XXX#. . .^ 4.e.e.e.e.2.2.6.2.7.7.7.9.8.q.k.l.k..X.XoXOXOXOXOXOXOXOXOXOXl.l.k.l.k.l.k.l.k.l."
};
